solid OpenSCAD_Model
  facet normal 0.994522 -0.104529 0
    outer loop
      vertex -307.879 -30.2088 1.5
      vertex -304.704 0 -10
      vertex -304.704 0 1.5
    endloop
  endfacet
  facet normal 0.994522 -0.104529 0
    outer loop
      vertex -304.704 0 -10
      vertex -307.879 -30.2088 1.5
      vertex -307.879 -30.2088 -10
    endloop
  endfacet
  facet normal 0.587785 -0.809017 0
    outer loop
      vertex -377.352 -125.83 -10
      vertex -352.778 -107.976 1.5
      vertex -377.352 -125.83 1.5
    endloop
  endfacet
  facet normal 0.587785 -0.809017 0
    outer loop
      vertex -352.778 -107.976 1.5
      vertex -377.352 -125.83 -10
      vertex -352.778 -107.976 -10
    endloop
  endfacet
  facet normal 0 0 1
    outer loop
      vertex -383.352 -115.438 1.5
      vertex -402.063 -128.06 1.5
      vertex -400.82 -129.272 1.5
    endloop
  endfacet
  facet normal -0 0 1
    outer loop
      vertex -408.809 -126.772 1.5
      vertex -402.063 -128.06 1.5
      vertex -383.352 -115.438 1.5
    endloop
  endfacet
  facet normal 0 0 1
    outer loop
      vertex -402.063 -128.06 1.5
      vertex -408.809 -126.772 1.5
      vertex -403.785 -128.276 1.5
    endloop
  endfacet
  facet normal 0 0 1
    outer loop
      vertex -408.809 -126.772 1.5
      vertex -404.69 -129.757 1.5
      vertex -403.785 -128.276 1.5
    endloop
  endfacet
  facet normal 0 0 1
    outer loop
      vertex -404.096 -131.388 1.5
      vertex -408.809 -126.772 1.5
      vertex -405.101 -138.185 1.5
    endloop
  endfacet
  facet normal 0 0 1
    outer loop
      vertex -408.809 -126.772 1.5
      vertex -434.812 -144.501 1.5
      vertex -405.101 -138.185 1.5
    endloop
  endfacet
  facet normal -0 0 1
    outer loop
      vertex -436.067 -132.566 1.5
      vertex -434.812 -144.501 1.5
      vertex -408.809 -126.772 1.5
    endloop
  endfacet
  facet normal 0 0 1
    outer loop
      vertex -450 -144.501 1.5
      vertex -436.067 -132.566 1.5
      vertex -450 -132.566 1.5
    endloop
  endfacet
  facet normal 0 0 1
    outer loop
      vertex -436.067 -132.566 1.5
      vertex -450 -144.501 1.5
      vertex -434.812 -144.501 1.5
    endloop
  endfacet
  facet normal -0 0 1
    outer loop
      vertex -316.704 0 1.5
      vertex -307.879 -30.2088 1.5
      vertex -304.704 0 1.5
    endloop
  endfacet
  facet normal -0 0 1
    outer loop
      vertex -319.616 -27.7139 1.5
      vertex -307.879 -30.2088 1.5
      vertex -316.704 0 1.5
    endloop
  endfacet
  facet normal 0 0 1
    outer loop
      vertex -318.364 -48.3853 1.5
      vertex -307.879 -30.2088 1.5
      vertex -318.148 -46.6632 1.5
    endloop
  endfacet
  facet normal 0 -0 1
    outer loop
      vertex -319.36 -45.4208 1.5
      vertex -307.879 -30.2088 1.5
      vertex -319.616 -27.7139 1.5
    endloop
  endfacet
  facet normal 0 0 1
    outer loop
      vertex -307.879 -30.2088 1.5
      vertex -319.36 -45.4208 1.5
      vertex -318.148 -46.6632 1.5
    endloop
  endfacet
  facet normal 0 0 1
    outer loop
      vertex -319.616 -27.7139 1.5
      vertex -321.087 -45.5936 1.5
      vertex -319.36 -45.4208 1.5
    endloop
  endfacet
  facet normal 0 0 1
    outer loop
      vertex -319.616 -27.7139 1.5
      vertex -322.028 -47.0515 1.5
      vertex -321.087 -45.5936 1.5
    endloop
  endfacet
  facet normal 0 -0 1
    outer loop
      vertex -322.028 -47.0515 1.5
      vertex -319.616 -27.7139 1.5
      vertex -328.228 -54.2166 1.5
    endloop
  endfacet
  facet normal 0 0 1
    outer loop
      vertex -307.879 -30.2088 1.5
      vertex -318.364 -48.3853 1.5
      vertex -317.265 -59.0974 1.5
    endloop
  endfacet
  facet normal -0 0 1
    outer loop
      vertex -319.845 -49.2902 1.5
      vertex -317.265 -59.0974 1.5
      vertex -318.364 -48.3853 1.5
    endloop
  endfacet
  facet normal 0 0 1
    outer loop
      vertex -328.228 -54.2166 1.5
      vertex -319.845 -49.2902 1.5
      vertex -321.476 -48.6966 1.5
    endloop
  endfacet
  facet normal 0 0 1
    outer loop
      vertex -328.228 -54.2166 1.5
      vertex -321.476 -48.6966 1.5
      vertex -322.028 -47.0515 1.5
    endloop
  endfacet
  facet normal 0 0 1
    outer loop
      vertex -319.845 -49.2902 1.5
      vertex -328.228 -54.2166 1.5
      vertex -317.265 -59.0974 1.5
    endloop
  endfacet
  facet normal 0 0 1
    outer loop
      vertex -328.228 -54.2166 1.5
      vertex -332.453 -85.4031 1.5
      vertex -317.265 -59.0974 1.5
    endloop
  endfacet
  facet normal -0 0 1
    outer loop
      vertex -342.161 -78.3497 1.5
      vertex -332.453 -85.4031 1.5
      vertex -328.228 -54.2166 1.5
    endloop
  endfacet
  facet normal 0 0 1
    outer loop
      vertex -342.161 -78.3497 1.5
      vertex -352.778 -107.976 1.5
      vertex -332.453 -85.4031 1.5
    endloop
  endfacet
  facet normal -0 0 1
    outer loop
      vertex -360.807 -99.0586 1.5
      vertex -352.778 -107.976 1.5
      vertex -342.161 -78.3497 1.5
    endloop
  endfacet
  facet normal 0 0 1
    outer loop
      vertex -360.807 -99.0586 1.5
      vertex -377.352 -125.83 1.5
      vertex -352.778 -107.976 1.5
    endloop
  endfacet
  facet normal -0 0 1
    outer loop
      vertex -383.352 -115.438 1.5
      vertex -377.352 -125.83 1.5
      vertex -360.807 -99.0586 1.5
    endloop
  endfacet
  facet normal 0 0 1
    outer loop
      vertex -400.82 -129.272 1.5
      vertex -377.352 -125.83 1.5
      vertex -383.352 -115.438 1.5
    endloop
  endfacet
  facet normal 0 0 1
    outer loop
      vertex -400.993 -130.999 1.5
      vertex -377.352 -125.83 1.5
      vertex -400.82 -129.272 1.5
    endloop
  endfacet
  facet normal 0 0 1
    outer loop
      vertex -405.101 -138.185 1.5
      vertex -400.993 -130.999 1.5
      vertex -402.451 -131.941 1.5
    endloop
  endfacet
  facet normal -0 0 1
    outer loop
      vertex -400.993 -130.999 1.5
      vertex -405.101 -138.185 1.5
      vertex -377.352 -125.83 1.5
    endloop
  endfacet
  facet normal 0 0 1
    outer loop
      vertex -404.096 -131.388 1.5
      vertex -405.101 -138.185 1.5
      vertex -402.451 -131.941 1.5
    endloop
  endfacet
  facet normal 0 0 1
    outer loop
      vertex -408.809 -126.772 1.5
      vertex -404.096 -131.388 1.5
      vertex -404.69 -129.757 1.5
    endloop
  endfacet
  facet normal 0.951056 -0.309017 0
    outer loop
      vertex -317.265 -59.0974 1.5
      vertex -307.879 -30.2088 -10
      vertex -307.879 -30.2088 1.5
    endloop
  endfacet
  facet normal 0.951056 -0.309017 0
    outer loop
      vertex -307.879 -30.2088 -10
      vertex -317.265 -59.0974 1.5
      vertex -317.265 -59.0974 -10
    endloop
  endfacet
  facet normal 0.866025 -0.5 0
    outer loop
      vertex -332.453 -85.4031 1.5
      vertex -317.265 -59.0974 -10
      vertex -317.265 -59.0974 1.5
    endloop
  endfacet
  facet normal 0.866025 -0.5 0
    outer loop
      vertex -317.265 -59.0974 -10
      vertex -332.453 -85.4031 1.5
      vertex -332.453 -85.4031 -10
    endloop
  endfacet
  facet normal 0.207912 -0.978148 0
    outer loop
      vertex -434.812 -144.501 -10
      vertex -405.101 -138.185 1.5
      vertex -434.812 -144.501 1.5
    endloop
  endfacet
  facet normal 0.207912 -0.978148 0
    outer loop
      vertex -405.101 -138.185 1.5
      vertex -434.812 -144.501 -10
      vertex -405.101 -138.185 -10
    endloop
  endfacet
  facet normal 0.406737 -0.913545 0
    outer loop
      vertex -405.101 -138.185 -10
      vertex -377.352 -125.83 1.5
      vertex -405.101 -138.185 1.5
    endloop
  endfacet
  facet normal 0.406737 -0.913545 0
    outer loop
      vertex -377.352 -125.83 1.5
      vertex -405.101 -138.185 -10
      vertex -377.352 -125.83 -10
    endloop
  endfacet
  facet normal 0.743145 -0.66913 0
    outer loop
      vertex -352.778 -107.976 1.5
      vertex -332.453 -85.4031 -10
      vertex -332.453 -85.4031 1.5
    endloop
  endfacet
  facet normal 0.743145 -0.66913 0
    outer loop
      vertex -332.453 -85.4031 -10
      vertex -352.778 -107.976 1.5
      vertex -352.778 -107.976 -10
    endloop
  endfacet
  facet normal 0 -1 0
    outer loop
      vertex -450 -144.501 -10
      vertex -434.812 -144.501 1.5
      vertex -450 -144.501 1.5
    endloop
  endfacet
  facet normal 0 -1 -0
    outer loop
      vertex -434.812 -144.501 1.5
      vertex -450 -144.501 -10
      vertex -434.812 -144.501 -10
    endloop
  endfacet
  facet normal -0 0 1
    outer loop
      vertex -337.223 -23.9715 -5
      vertex -319.616 -27.7139 -5
      vertex -316.704 0 -5
    endloop
  endfacet
  facet normal 0 0 1
    outer loop
      vertex -337.223 -23.9715 -5
      vertex -316.704 0 -5
      vertex -334.704 0 -5
    endloop
  endfacet
  facet normal 0 0 1
    outer loop
      vertex -319.616 -27.7139 -5
      vertex -337.223 -23.9715 -5
      vertex -328.228 -54.2166 -5
    endloop
  endfacet
  facet normal -0 0 1
    outer loop
      vertex -344.671 -46.8953 -5
      vertex -328.228 -54.2166 -5
      vertex -337.223 -23.9715 -5
    endloop
  endfacet
  facet normal 0 0 1
    outer loop
      vertex -328.228 -54.2166 -5
      vertex -344.671 -46.8953 -5
      vertex -342.161 -78.3497 -5
    endloop
  endfacet
  facet normal -0 0 1
    outer loop
      vertex -356.723 -67.7696 -5
      vertex -342.161 -78.3497 -5
      vertex -344.671 -46.8953 -5
    endloop
  endfacet
  facet normal 0 0 1
    outer loop
      vertex -356.723 -67.7696 -5
      vertex -360.807 -99.0586 -5
      vertex -342.161 -78.3497 -5
    endloop
  endfacet
  facet normal -0 0 1
    outer loop
      vertex -372.852 -85.682 -5
      vertex -360.807 -99.0586 -5
      vertex -356.723 -67.7696 -5
    endloop
  endfacet
  facet normal 0 0 1
    outer loop
      vertex -372.852 -85.682 -5
      vertex -383.352 -115.438 -5
      vertex -360.807 -99.0586 -5
    endloop
  endfacet
  facet normal -0 0 1
    outer loop
      vertex -392.352 -99.8497 -5
      vertex -383.352 -115.438 -5
      vertex -372.852 -85.682 -5
    endloop
  endfacet
  facet normal 0 0 1
    outer loop
      vertex -392.352 -99.8497 -5
      vertex -408.809 -126.772 -5
      vertex -383.352 -115.438 -5
    endloop
  endfacet
  facet normal -0 0 1
    outer loop
      vertex -414.371 -109.653 -5
      vertex -408.809 -126.772 -5
      vertex -392.352 -99.8497 -5
    endloop
  endfacet
  facet normal 0 0 1
    outer loop
      vertex -414.371 -109.653 -5
      vertex -436.067 -132.566 -5
      vertex -408.809 -126.772 -5
    endloop
  endfacet
  facet normal -0 0 1
    outer loop
      vertex -437.948 -114.665 -5
      vertex -436.067 -132.566 -5
      vertex -414.371 -109.653 -5
    endloop
  endfacet
  facet normal 0 0 1
    outer loop
      vertex -450 -132.566 -5
      vertex -437.948 -114.665 -5
      vertex -450 -114.665 -5
    endloop
  endfacet
  facet normal 0 0 1
    outer loop
      vertex -437.948 -114.665 -5
      vertex -450 -132.566 -5
      vertex -436.067 -132.566 -5
    endloop
  endfacet
  facet normal 0 1 0
    outer loop
      vertex -304.704 0 1.5
      vertex -316.704 0 -5
      vertex -316.704 0 1.5
    endloop
  endfacet
  facet normal 0 1 -0
    outer loop
      vertex -304.704 0 -10
      vertex -316.704 0 -5
      vertex -304.704 0 1.5
    endloop
  endfacet
  facet normal 0 1 0
    outer loop
      vertex -334.704 0 -10
      vertex -316.704 0 -5
      vertex -304.704 0 -10
    endloop
  endfacet
  facet normal 0 1 0
    outer loop
      vertex -316.704 0 -5
      vertex -334.704 0 -10
      vertex -334.704 0 -5
    endloop
  endfacet
  facet normal 0 1 -0
    outer loop
      vertex -436.067 -132.566 -5
      vertex -450 -132.566 1.5
      vertex -436.067 -132.566 1.5
    endloop
  endfacet
  facet normal 0 1 0
    outer loop
      vertex -450 -132.566 1.5
      vertex -436.067 -132.566 -5
      vertex -450 -132.566 -5
    endloop
  endfacet
  facet normal -0.951057 0.309017 0
    outer loop
      vertex -328.228 -54.2166 -5
      vertex -319.616 -27.7139 1.5
      vertex -319.616 -27.7139 -5
    endloop
  endfacet
  facet normal -0.951057 0.309017 0
    outer loop
      vertex -319.616 -27.7139 1.5
      vertex -328.228 -54.2166 -5
      vertex -328.228 -54.2166 1.5
    endloop
  endfacet
  facet normal -0.994522 0.104529 0
    outer loop
      vertex -319.616 -27.7139 -5
      vertex -316.704 0 1.5
      vertex -316.704 0 -5
    endloop
  endfacet
  facet normal -0.994522 0.104529 0
    outer loop
      vertex -316.704 0 1.5
      vertex -319.616 -27.7139 -5
      vertex -319.616 -27.7139 1.5
    endloop
  endfacet
  facet normal -0.207912 0.978148 0
    outer loop
      vertex -408.809 -126.772 -5
      vertex -436.067 -132.566 1.5
      vertex -408.809 -126.772 1.5
    endloop
  endfacet
  facet normal -0.207912 0.978148 0
    outer loop
      vertex -436.067 -132.566 1.5
      vertex -408.809 -126.772 -5
      vertex -436.067 -132.566 -5
    endloop
  endfacet
  facet normal -0.866026 0.5 0
    outer loop
      vertex -342.161 -78.3497 -5
      vertex -328.228 -54.2166 1.5
      vertex -328.228 -54.2166 -5
    endloop
  endfacet
  facet normal -0.866026 0.5 0
    outer loop
      vertex -328.228 -54.2166 1.5
      vertex -342.161 -78.3497 -5
      vertex -342.161 -78.3497 1.5
    endloop
  endfacet
  facet normal -0.587785 0.809017 0
    outer loop
      vertex -360.807 -99.0586 -5
      vertex -383.352 -115.438 1.5
      vertex -360.807 -99.0586 1.5
    endloop
  endfacet
  facet normal -0.587785 0.809017 0
    outer loop
      vertex -383.352 -115.438 1.5
      vertex -360.807 -99.0586 -5
      vertex -383.352 -115.438 -5
    endloop
  endfacet
  facet normal -0.406736 0.913546 0
    outer loop
      vertex -383.352 -115.438 -5
      vertex -408.809 -126.772 1.5
      vertex -383.352 -115.438 1.5
    endloop
  endfacet
  facet normal -0.406736 0.913546 0
    outer loop
      vertex -408.809 -126.772 1.5
      vertex -383.352 -115.438 -5
      vertex -408.809 -126.772 -5
    endloop
  endfacet
  facet normal -0.743145 0.669131 0
    outer loop
      vertex -360.807 -99.0586 -5
      vertex -342.161 -78.3497 1.5
      vertex -342.161 -78.3497 -5
    endloop
  endfacet
  facet normal -0.743145 0.669131 0
    outer loop
      vertex -342.161 -78.3497 1.5
      vertex -360.807 -99.0586 -5
      vertex -360.807 -99.0586 1.5
    endloop
  endfacet
  facet normal -1 0 0
    outer loop
      vertex -450 -114.665 -10
      vertex -450 -132.566 -5
      vertex -450 -114.665 -5
    endloop
  endfacet
  facet normal -1 0 0
    outer loop
      vertex -450 -144.501 -10
      vertex -450 -132.566 -5
      vertex -450 -114.665 -10
    endloop
  endfacet
  facet normal -1 0 0
    outer loop
      vertex -450 -144.501 1.5
      vertex -450 -132.566 -5
      vertex -450 -144.501 -10
    endloop
  endfacet
  facet normal -1 0 0
    outer loop
      vertex -450 -132.566 -5
      vertex -450 -144.501 1.5
      vertex -450 -132.566 1.5
    endloop
  endfacet
  facet normal -0.698229 -0.715874 0
    outer loop
      vertex -402.063 -128.06 -10
      vertex -400.82 -129.272 1.5
      vertex -402.063 -128.06 1.5
    endloop
  endfacet
  facet normal -0.698229 -0.715874 -0
    outer loop
      vertex -400.82 -129.272 1.5
      vertex -402.063 -128.06 -10
      vertex -400.82 -129.272 -10
    endloop
  endfacet
  facet normal 0.124338 -0.99224 0
    outer loop
      vertex -403.785 -128.276 -10
      vertex -402.063 -128.06 1.5
      vertex -403.785 -128.276 1.5
    endloop
  endfacet
  facet normal 0.124338 -0.99224 0
    outer loop
      vertex -402.063 -128.06 1.5
      vertex -403.785 -128.276 -10
      vertex -402.063 -128.06 -10
    endloop
  endfacet
  facet normal 0.318493 0.947925 -0
    outer loop
      vertex -402.451 -131.941 -10
      vertex -404.096 -131.388 1.5
      vertex -402.451 -131.941 1.5
    endloop
  endfacet
  facet normal 0.318493 0.947925 0
    outer loop
      vertex -404.096 -131.388 1.5
      vertex -402.451 -131.941 -10
      vertex -404.096 -131.388 -10
    endloop
  endfacet
  facet normal 0.853293 -0.521432 0
    outer loop
      vertex -404.69 -129.757 1.5
      vertex -403.785 -128.276 -10
      vertex -403.785 -128.276 1.5
    endloop
  endfacet
  facet normal 0.853293 -0.521432 0
    outer loop
      vertex -403.785 -128.276 -10
      vertex -404.69 -129.757 1.5
      vertex -404.69 -129.757 -10
    endloop
  endfacet
  facet normal 0.93969 0.342027 0
    outer loop
      vertex -404.096 -131.388 1.5
      vertex -404.69 -129.757 -10
      vertex -404.69 -129.757 1.5
    endloop
  endfacet
  facet normal 0.93969 0.342027 0
    outer loop
      vertex -404.69 -129.757 -10
      vertex -404.096 -131.388 1.5
      vertex -404.096 -131.388 -10
    endloop
  endfacet
  facet normal -0.542547 0.840025 0
    outer loop
      vertex -400.993 -130.999 -10
      vertex -402.451 -131.941 1.5
      vertex -400.993 -130.999 1.5
    endloop
  endfacet
  facet normal -0.542547 0.840025 0
    outer loop
      vertex -402.451 -131.941 1.5
      vertex -400.993 -130.999 -10
      vertex -402.451 -131.941 -10
    endloop
  endfacet
  facet normal -0.99503 0.0995777 0
    outer loop
      vertex -400.993 -130.999 -10
      vertex -400.82 -129.272 1.5
      vertex -400.82 -129.272 -10
    endloop
  endfacet
  facet normal -0.99503 0.0995777 0
    outer loop
      vertex -400.82 -129.272 1.5
      vertex -400.993 -130.999 -10
      vertex -400.993 -130.999 1.5
    endloop
  endfacet
  facet normal 0.0995677 -0.995031 0
    outer loop
      vertex -321.087 -45.5936 -10
      vertex -319.36 -45.4208 1.5
      vertex -321.087 -45.5936 1.5
    endloop
  endfacet
  facet normal 0.0995677 -0.995031 0
    outer loop
      vertex -319.36 -45.4208 1.5
      vertex -321.087 -45.5936 -10
      vertex -319.36 -45.4208 -10
    endloop
  endfacet
  facet normal 0.840023 -0.54255 0
    outer loop
      vertex -322.028 -47.0515 1.5
      vertex -321.087 -45.5936 -10
      vertex -321.087 -45.5936 1.5
    endloop
  endfacet
  facet normal 0.840023 -0.54255 0
    outer loop
      vertex -321.087 -45.5936 -10
      vertex -322.028 -47.0515 1.5
      vertex -322.028 -47.0515 -10
    endloop
  endfacet
  facet normal 0.947924 0.318498 0
    outer loop
      vertex -321.476 -48.6966 1.5
      vertex -322.028 -47.0515 -10
      vertex -322.028 -47.0515 1.5
    endloop
  endfacet
  facet normal 0.947924 0.318498 0
    outer loop
      vertex -322.028 -47.0515 -10
      vertex -321.476 -48.6966 1.5
      vertex -321.476 -48.6966 -10
    endloop
  endfacet
  facet normal -0.715865 -0.698239 0
    outer loop
      vertex -318.148 -46.6632 -10
      vertex -319.36 -45.4208 1.5
      vertex -319.36 -45.4208 -10
    endloop
  endfacet
  facet normal -0.715865 -0.698239 0
    outer loop
      vertex -319.36 -45.4208 1.5
      vertex -318.148 -46.6632 -10
      vertex -318.148 -46.6632 1.5
    endloop
  endfacet
  facet normal 0.342023 0.939692 -0
    outer loop
      vertex -319.845 -49.2902 -10
      vertex -321.476 -48.6966 1.5
      vertex -319.845 -49.2902 1.5
    endloop
  endfacet
  facet normal 0.342023 0.939692 0
    outer loop
      vertex -321.476 -48.6966 1.5
      vertex -319.845 -49.2902 -10
      vertex -321.476 -48.6966 -10
    endloop
  endfacet
  facet normal -0.99224 0.124336 0
    outer loop
      vertex -318.364 -48.3853 -10
      vertex -318.148 -46.6632 1.5
      vertex -318.148 -46.6632 -10
    endloop
  endfacet
  facet normal -0.99224 0.124336 0
    outer loop
      vertex -318.148 -46.6632 1.5
      vertex -318.364 -48.3853 -10
      vertex -318.364 -48.3853 1.5
    endloop
  endfacet
  facet normal -0.521432 0.853293 0
    outer loop
      vertex -318.364 -48.3853 -10
      vertex -319.845 -49.2902 1.5
      vertex -318.364 -48.3853 1.5
    endloop
  endfacet
  facet normal -0.521432 0.853293 0
    outer loop
      vertex -319.845 -49.2902 1.5
      vertex -318.364 -48.3853 -10
      vertex -319.845 -49.2902 -10
    endloop
  endfacet
  facet normal -0 0 -1
    outer loop
      vertex -377.352 -125.83 -10
      vertex -402.063 -128.06 -10
      vertex -392.352 -99.8497 -10
    endloop
  endfacet
  facet normal 0 0 -1
    outer loop
      vertex -414.371 -109.653 -10
      vertex -402.063 -128.06 -10
      vertex -403.785 -128.276 -10
    endloop
  endfacet
  facet normal 0 0 -1
    outer loop
      vertex -414.371 -109.653 -10
      vertex -403.785 -128.276 -10
      vertex -404.69 -129.757 -10
    endloop
  endfacet
  facet normal 0 0 -1
    outer loop
      vertex -402.063 -128.06 -10
      vertex -414.371 -109.653 -10
      vertex -392.352 -99.8497 -10
    endloop
  endfacet
  facet normal 0 0 -1
    outer loop
      vertex -434.812 -144.501 -10
      vertex -404.69 -129.757 -10
      vertex -405.101 -138.185 -10
    endloop
  endfacet
  facet normal 0 0 -1
    outer loop
      vertex -437.948 -114.665 -10
      vertex -404.69 -129.757 -10
      vertex -434.812 -144.501 -10
    endloop
  endfacet
  facet normal 0 0 -1
    outer loop
      vertex -404.69 -129.757 -10
      vertex -437.948 -114.665 -10
      vertex -414.371 -109.653 -10
    endloop
  endfacet
  facet normal 0 0 -1
    outer loop
      vertex -450 -144.501 -10
      vertex -437.948 -114.665 -10
      vertex -434.812 -144.501 -10
    endloop
  endfacet
  facet normal -0 0 -1
    outer loop
      vertex -437.948 -114.665 -10
      vertex -450 -144.501 -10
      vertex -450 -114.665 -10
    endloop
  endfacet
  facet normal 0 0 -1
    outer loop
      vertex -307.879 -30.2088 -10
      vertex -318.364 -48.3853 -10
      vertex -318.148 -46.6632 -10
    endloop
  endfacet
  facet normal 0 0 -1
    outer loop
      vertex -317.265 -59.0974 -10
      vertex -319.845 -49.2902 -10
      vertex -318.364 -48.3853 -10
    endloop
  endfacet
  facet normal 0 0 -1
    outer loop
      vertex -317.265 -59.0974 -10
      vertex -321.476 -48.6966 -10
      vertex -319.845 -49.2902 -10
    endloop
  endfacet
  facet normal 0 0 -1
    outer loop
      vertex -317.265 -59.0974 -10
      vertex -344.671 -46.8953 -10
      vertex -321.476 -48.6966 -10
    endloop
  endfacet
  facet normal 0 0 -1
    outer loop
      vertex -344.671 -46.8953 -10
      vertex -317.265 -59.0974 -10
      vertex -332.453 -85.4031 -10
    endloop
  endfacet
  facet normal 0 0 -1
    outer loop
      vertex -318.364 -48.3853 -10
      vertex -307.879 -30.2088 -10
      vertex -317.265 -59.0974 -10
    endloop
  endfacet
  facet normal 0 0 -1
    outer loop
      vertex -319.36 -45.4208 -10
      vertex -307.879 -30.2088 -10
      vertex -318.148 -46.6632 -10
    endloop
  endfacet
  facet normal 0 0 -1
    outer loop
      vertex -321.087 -45.5936 -10
      vertex -307.879 -30.2088 -10
      vertex -319.36 -45.4208 -10
    endloop
  endfacet
  facet normal -0 0 -1
    outer loop
      vertex -307.879 -30.2088 -10
      vertex -321.087 -45.5936 -10
      vertex -337.223 -23.9715 -10
    endloop
  endfacet
  facet normal 0 0 -1
    outer loop
      vertex -344.671 -46.8953 -10
      vertex -321.087 -45.5936 -10
      vertex -322.028 -47.0515 -10
    endloop
  endfacet
  facet normal 0 0 -1
    outer loop
      vertex -307.879 -30.2088 -10
      vertex -337.223 -23.9715 -10
      vertex -304.704 0 -10
    endloop
  endfacet
  facet normal 0 0 -1
    outer loop
      vertex -321.476 -48.6966 -10
      vertex -344.671 -46.8953 -10
      vertex -322.028 -47.0515 -10
    endloop
  endfacet
  facet normal -0 0 -1
    outer loop
      vertex -304.704 0 -10
      vertex -337.223 -23.9715 -10
      vertex -334.704 0 -10
    endloop
  endfacet
  facet normal -0 0 -1
    outer loop
      vertex -321.087 -45.5936 -10
      vertex -344.671 -46.8953 -10
      vertex -337.223 -23.9715 -10
    endloop
  endfacet
  facet normal 0 0 -1
    outer loop
      vertex -356.723 -67.7696 -10
      vertex -332.453 -85.4031 -10
      vertex -352.778 -107.976 -10
    endloop
  endfacet
  facet normal 0 0 -1
    outer loop
      vertex -332.453 -85.4031 -10
      vertex -356.723 -67.7696 -10
      vertex -344.671 -46.8953 -10
    endloop
  endfacet
  facet normal 0 0 -1
    outer loop
      vertex -352.778 -107.976 -10
      vertex -372.852 -85.682 -10
      vertex -356.723 -67.7696 -10
    endloop
  endfacet
  facet normal 0 0 -1
    outer loop
      vertex -377.352 -125.83 -10
      vertex -372.852 -85.682 -10
      vertex -352.778 -107.976 -10
    endloop
  endfacet
  facet normal 0 0 -1
    outer loop
      vertex -377.352 -125.83 -10
      vertex -392.352 -99.8497 -10
      vertex -372.852 -85.682 -10
    endloop
  endfacet
  facet normal 0 0 -1
    outer loop
      vertex -402.063 -128.06 -10
      vertex -377.352 -125.83 -10
      vertex -400.82 -129.272 -10
    endloop
  endfacet
  facet normal 0 0 -1
    outer loop
      vertex -377.352 -125.83 -10
      vertex -400.993 -130.999 -10
      vertex -400.82 -129.272 -10
    endloop
  endfacet
  facet normal 0 0 -1
    outer loop
      vertex -405.101 -138.185 -10
      vertex -400.993 -130.999 -10
      vertex -377.352 -125.83 -10
    endloop
  endfacet
  facet normal -0 0 -1
    outer loop
      vertex -404.096 -131.388 -10
      vertex -405.101 -138.185 -10
      vertex -404.69 -129.757 -10
    endloop
  endfacet
  facet normal -0 0 -1
    outer loop
      vertex -402.451 -131.941 -10
      vertex -405.101 -138.185 -10
      vertex -404.096 -131.388 -10
    endloop
  endfacet
  facet normal 0 0 -1
    outer loop
      vertex -400.993 -130.999 -10
      vertex -405.101 -138.185 -10
      vertex -402.451 -131.941 -10
    endloop
  endfacet
  facet normal 0 1 -0
    outer loop
      vertex -437.948 -114.665 -10
      vertex -450 -114.665 -5
      vertex -437.948 -114.665 -5
    endloop
  endfacet
  facet normal 0 1 0
    outer loop
      vertex -450 -114.665 -5
      vertex -437.948 -114.665 -10
      vertex -450 -114.665 -10
    endloop
  endfacet
  facet normal -0.994522 0.10453 0
    outer loop
      vertex -337.223 -23.9715 -10
      vertex -334.704 0 -5
      vertex -334.704 0 -10
    endloop
  endfacet
  facet normal -0.994522 0.10453 0
    outer loop
      vertex -334.704 0 -5
      vertex -337.223 -23.9715 -10
      vertex -337.223 -23.9715 -5
    endloop
  endfacet
  facet normal -0.207911 0.978148 0
    outer loop
      vertex -414.371 -109.653 -10
      vertex -437.948 -114.665 -5
      vertex -414.371 -109.653 -5
    endloop
  endfacet
  facet normal -0.207911 0.978148 0
    outer loop
      vertex -437.948 -114.665 -5
      vertex -414.371 -109.653 -10
      vertex -437.948 -114.665 -10
    endloop
  endfacet
  facet normal -0.743145 0.66913 0
    outer loop
      vertex -372.852 -85.682 -10
      vertex -356.723 -67.7696 -5
      vertex -356.723 -67.7696 -10
    endloop
  endfacet
  facet normal -0.743145 0.66913 0
    outer loop
      vertex -356.723 -67.7696 -5
      vertex -372.852 -85.682 -10
      vertex -372.852 -85.682 -5
    endloop
  endfacet
  facet normal -0.951057 0.309017 0
    outer loop
      vertex -344.671 -46.8953 -10
      vertex -337.223 -23.9715 -5
      vertex -337.223 -23.9715 -10
    endloop
  endfacet
  facet normal -0.951057 0.309017 0
    outer loop
      vertex -337.223 -23.9715 -5
      vertex -344.671 -46.8953 -10
      vertex -344.671 -46.8953 -5
    endloop
  endfacet
  facet normal -0.866026 0.5 0
    outer loop
      vertex -356.723 -67.7696 -10
      vertex -344.671 -46.8953 -5
      vertex -344.671 -46.8953 -10
    endloop
  endfacet
  facet normal -0.866026 0.5 0
    outer loop
      vertex -344.671 -46.8953 -5
      vertex -356.723 -67.7696 -10
      vertex -356.723 -67.7696 -5
    endloop
  endfacet
  facet normal -0.587785 0.809017 0
    outer loop
      vertex -372.852 -85.682 -10
      vertex -392.352 -99.8497 -5
      vertex -372.852 -85.682 -5
    endloop
  endfacet
  facet normal -0.587785 0.809017 0
    outer loop
      vertex -392.352 -99.8497 -5
      vertex -372.852 -85.682 -10
      vertex -392.352 -99.8497 -10
    endloop
  endfacet
  facet normal -0.406737 0.913545 0
    outer loop
      vertex -392.352 -99.8497 -10
      vertex -414.371 -109.653 -5
      vertex -392.352 -99.8497 -5
    endloop
  endfacet
  facet normal -0.406737 0.913545 0
    outer loop
      vertex -414.371 -109.653 -5
      vertex -392.352 -99.8497 -10
      vertex -414.371 -109.653 -10
    endloop
  endfacet
endsolid OpenSCAD_Model
