solid OpenSCAD_Model
  facet normal 0 0 -1
    outer loop
      vertex -434 12.9288 -25
      vertex -440 20 -25
      vertex -434 26 -25
    endloop
  endfacet
  facet normal 0 0 -1
    outer loop
      vertex -434 12.9288 -25
      vertex -440.226 19.5309 -25
      vertex -440 20 -25
    endloop
  endfacet
  facet normal 0 0 -1
    outer loop
      vertex -434 12.9288 -25
      vertex -440.753 18.4363 -25
      vertex -440.226 19.5309 -25
    endloop
  endfacet
  facet normal 0 0 -1
    outer loop
      vertex -434 12.9288 -25
      vertex -442.445 18.0501 -25
      vertex -440.753 18.4363 -25
    endloop
  endfacet
  facet normal 0 0 -1
    outer loop
      vertex -460 26 -25
      vertex -443.802 19.1322 -25
      vertex -460 12.9288 -25
    endloop
  endfacet
  facet normal -0 0 -1
    outer loop
      vertex -442.445 18.0501 -25
      vertex -460 12.9288 -25
      vertex -443.802 19.1322 -25
    endloop
  endfacet
  facet normal 0 0 -1
    outer loop
      vertex -460 12.9288 -25
      vertex -442.445 18.0501 -25
      vertex -434 12.9288 -25
    endloop
  endfacet
  facet normal 0 0 -1
    outer loop
      vertex -440.226 20.4691 -25
      vertex -434 26 -25
      vertex -440 20 -25
    endloop
  endfacet
  facet normal 0 0 -1
    outer loop
      vertex -440.753 21.5637 -25
      vertex -434 26 -25
      vertex -440.226 20.4691 -25
    endloop
  endfacet
  facet normal 0 0 -1
    outer loop
      vertex -442.445 21.9499 -25
      vertex -434 26 -25
      vertex -440.753 21.5637 -25
    endloop
  endfacet
  facet normal 0 0 -1
    outer loop
      vertex -443.802 19.1322 -25
      vertex -460 26 -25
      vertex -443.802 20.8678 -25
    endloop
  endfacet
  facet normal 0 0 -1
    outer loop
      vertex -442.445 21.9499 -25
      vertex -460 26 -25
      vertex -434 26 -25
    endloop
  endfacet
  facet normal 0 0 -1
    outer loop
      vertex -443.802 20.8678 -25
      vertex -460 26 -25
      vertex -442.445 21.9499 -25
    endloop
  endfacet
  facet normal 0 0 -1
    outer loop
      vertex -434 -26 -25
      vertex -440 -20 -25
      vertex -434 -12.9288 -25
    endloop
  endfacet
  facet normal 0 0 -1
    outer loop
      vertex -434 -26 -25
      vertex -440.226 -20.4691 -25
      vertex -440 -20 -25
    endloop
  endfacet
  facet normal 0 0 -1
    outer loop
      vertex -434 -26 -25
      vertex -440.753 -21.5637 -25
      vertex -440.226 -20.4691 -25
    endloop
  endfacet
  facet normal 0 0 -1
    outer loop
      vertex -434 -26 -25
      vertex -442.445 -21.9499 -25
      vertex -440.753 -21.5637 -25
    endloop
  endfacet
  facet normal -0 0 -1
    outer loop
      vertex -443.802 -20.8678 -25
      vertex -460 -26 -25
      vertex -443.802 -19.1322 -25
    endloop
  endfacet
  facet normal -0 0 -1
    outer loop
      vertex -442.445 -21.9499 -25
      vertex -460 -26 -25
      vertex -443.802 -20.8678 -25
    endloop
  endfacet
  facet normal 0 0 -1
    outer loop
      vertex -460 -26 -25
      vertex -442.445 -21.9499 -25
      vertex -434 -26 -25
    endloop
  endfacet
  facet normal 0 0 -1
    outer loop
      vertex -440.226 -19.5309 -25
      vertex -434 -12.9288 -25
      vertex -440 -20 -25
    endloop
  endfacet
  facet normal 0 0 -1
    outer loop
      vertex -440.753 -18.4363 -25
      vertex -434 -12.9288 -25
      vertex -440.226 -19.5309 -25
    endloop
  endfacet
  facet normal 0 0 -1
    outer loop
      vertex -442.445 -18.0501 -25
      vertex -434 -12.9288 -25
      vertex -440.753 -18.4363 -25
    endloop
  endfacet
  facet normal 0 0 -1
    outer loop
      vertex -460 -12.9288 -25
      vertex -443.802 -19.1322 -25
      vertex -460 -26 -25
    endloop
  endfacet
  facet normal 0 0 -1
    outer loop
      vertex -443.802 -19.1322 -25
      vertex -460 -12.9288 -25
      vertex -442.445 -18.0501 -25
    endloop
  endfacet
  facet normal 0 0 -1
    outer loop
      vertex -442.445 -18.0501 -25
      vertex -460 -12.9288 -25
      vertex -434 -12.9288 -25
    endloop
  endfacet
  facet normal -1 0 0
    outer loop
      vertex -460 -26 -25
      vertex -460 -12.9288 -23.6411
      vertex -460 -12.9288 -25
    endloop
  endfacet
  facet normal -1 0 0
    outer loop
      vertex -460 -12.9288 -23.6411
      vertex -460 -17.1322 -1.80194
      vertex -460 -16.0501 -0.445042
    endloop
  endfacet
  facet normal -1 0 0
    outer loop
      vertex -460 -12.9288 -23.6411
      vertex -460 -18.8678 -1.80194
      vertex -460 -17.1322 -1.80194
    endloop
  endfacet
  facet normal -1 -0 0
    outer loop
      vertex -460 -12.9288 -23.6411
      vertex -460 -26 -25
      vertex -460 -18.8678 -1.80194
    endloop
  endfacet
  facet normal -1 -0 0
    outer loop
      vertex -460 -18.8678 -1.80194
      vertex -460 -26 -25
      vertex -460 -19.9499 -0.445042
    endloop
  endfacet
  facet normal -1 0 0
    outer loop
      vertex -460 26 -25
      vertex -460 19.9499 -0.445042
      vertex -460 26 10
    endloop
  endfacet
  facet normal -1 0 0
    outer loop
      vertex -460 26 -25
      vertex -460 18.8678 -1.80194
      vertex -460 19.9499 -0.445042
    endloop
  endfacet
  facet normal -1 0 0
    outer loop
      vertex -460 11.2583 -18.5
      vertex -460 18.8678 -1.80194
      vertex -460 26 -25
    endloop
  endfacet
  facet normal -1 0 0
    outer loop
      vertex -460 9.66088 -16.3013
      vertex -460 18.8678 -1.80194
      vertex -460 11.2583 -18.5
    endloop
  endfacet
  facet normal -1 0 0
    outer loop
      vertex -460 12.9288 -23.6411
      vertex -460 26 -25
      vertex -460 12.9288 -25
    endloop
  endfacet
  facet normal -1 0 0
    outer loop
      vertex -460 19.5637 1.24698
      vertex -460 26 10
      vertex -460 19.9499 -0.445042
    endloop
  endfacet
  facet normal -1 0 0
    outer loop
      vertex -460 18 2
      vertex -460 26 10
      vertex -460 19.5637 1.24698
    endloop
  endfacet
  facet normal -1 0 0
    outer loop
      vertex -460 16.4363 1.24698
      vertex -460 26 10
      vertex -460 18 2
    endloop
  endfacet
  facet normal -1 0 0
    outer loop
      vertex -460 12.3637 -20.9828
      vertex -460 26 -25
      vertex -460 12.9288 -23.6411
    endloop
  endfacet
  facet normal -1 0 0
    outer loop
      vertex -460 11.2583 -18.5
      vertex -460 26 -25
      vertex -460 12.3637 -20.9828
    endloop
  endfacet
  facet normal -1 -0 0
    outer loop
      vertex -460 18.8678 -1.80194
      vertex -460 9.66088 -16.3013
      vertex -460 17.1322 -1.80194
    endloop
  endfacet
  facet normal -1 0 0
    outer loop
      vertex -460 7.64121 -14.4828
      vertex -460 17.1322 -1.80194
      vertex -460 9.66088 -16.3013
    endloop
  endfacet
  facet normal -1 0 0
    outer loop
      vertex -460 5.28758 -13.1239
      vertex -460 17.1322 -1.80194
      vertex -460 7.64121 -14.4828
    endloop
  endfacet
  facet normal -1 -0 0
    outer loop
      vertex -460 17.1322 -1.80194
      vertex -460 5.28758 -13.1239
      vertex -460 16.0501 -0.445042
    endloop
  endfacet
  facet normal -1 0 0
    outer loop
      vertex -460 2.70285 -12.2841
      vertex -460 16.0501 -0.445042
      vertex -460 5.28758 -13.1239
    endloop
  endfacet
  facet normal -1 0 0
    outer loop
      vertex -460 0 -12
      vertex -460 16.0501 -0.445042
      vertex -460 2.70285 -12.2841
    endloop
  endfacet
  facet normal -1 -0 0
    outer loop
      vertex -460 16.0501 -0.445042
      vertex -460 0 -12
      vertex -460 16.4363 1.24698
    endloop
  endfacet
  facet normal -1 0 0
    outer loop
      vertex -460 -16.4363 1.24698
      vertex -460 16.4363 1.24698
      vertex -460 0 -12
    endloop
  endfacet
  facet normal -1 0 0
    outer loop
      vertex -460 -16.0501 -0.445042
      vertex -460 0 -12
      vertex -460 -2.70285 -12.2841
    endloop
  endfacet
  facet normal -1 0 0
    outer loop
      vertex -460 -16.0501 -0.445042
      vertex -460 -2.70285 -12.2841
      vertex -460 -5.28758 -13.1239
    endloop
  endfacet
  facet normal -1 0 0
    outer loop
      vertex -460 -16.0501 -0.445042
      vertex -460 -5.28758 -13.1239
      vertex -460 -7.64121 -14.4828
    endloop
  endfacet
  facet normal -1 0 0
    outer loop
      vertex -460 -16.0501 -0.445042
      vertex -460 -12.3637 -20.9828
      vertex -460 -12.9288 -23.6411
    endloop
  endfacet
  facet normal -1 0 0
    outer loop
      vertex -460 -16.0501 -0.445042
      vertex -460 -11.2583 -18.5
      vertex -460 -12.3637 -20.9828
    endloop
  endfacet
  facet normal -1 0 0
    outer loop
      vertex -460 -16.0501 -0.445042
      vertex -460 -9.66088 -16.3013
      vertex -460 -11.2583 -18.5
    endloop
  endfacet
  facet normal -1 0 0
    outer loop
      vertex -460 -16.0501 -0.445042
      vertex -460 -7.64121 -14.4828
      vertex -460 -9.66088 -16.3013
    endloop
  endfacet
  facet normal -1 0 0
    outer loop
      vertex -460 0 -12
      vertex -460 -16.0501 -0.445042
      vertex -460 -16.4363 1.24698
    endloop
  endfacet
  facet normal -1 0 0
    outer loop
      vertex -460 16.4363 1.24698
      vertex -460 -16.4363 1.24698
      vertex -460 26 10
    endloop
  endfacet
  facet normal -1 0 0
    outer loop
      vertex -460 -26 10
      vertex -460 -16.4363 1.24698
      vertex -460 -18 2
    endloop
  endfacet
  facet normal -1 0 0
    outer loop
      vertex -460 -26 10
      vertex -460 -19.9499 -0.445042
      vertex -460 -26 -25
    endloop
  endfacet
  facet normal -1 0 0
    outer loop
      vertex -460 -16.4363 1.24698
      vertex -460 -26 10
      vertex -460 26 10
    endloop
  endfacet
  facet normal -1 0 0
    outer loop
      vertex -460 -19.5637 1.24698
      vertex -460 -26 10
      vertex -460 -18 2
    endloop
  endfacet
  facet normal -1 0 0
    outer loop
      vertex -460 -19.9499 -0.445042
      vertex -460 -26 10
      vertex -460 -19.5637 1.24698
    endloop
  endfacet
  facet normal -0 0 1
    outer loop
      vertex -460 26 10
      vertex -450 -26 10
      vertex -450 26 10
    endloop
  endfacet
  facet normal 0 0 1
    outer loop
      vertex -450 -26 10
      vertex -460 26 10
      vertex -460 -26 10
    endloop
  endfacet
  facet normal 1 0 0
    outer loop
      vertex -450 26 10
      vertex -450 19.9499 -0.445042
      vertex -450 26 -15
    endloop
  endfacet
  facet normal 1 0 0
    outer loop
      vertex -450 26 10
      vertex -450 19.5637 1.24698
      vertex -450 19.9499 -0.445042
    endloop
  endfacet
  facet normal 1 0 0
    outer loop
      vertex -450 26 10
      vertex -450 18 2
      vertex -450 19.5637 1.24698
    endloop
  endfacet
  facet normal 1 0 0
    outer loop
      vertex -450 26 10
      vertex -450 16.4363 1.24698
      vertex -450 18 2
    endloop
  endfacet
  facet normal 1 0 0
    outer loop
      vertex -450 0 -12
      vertex -450 16.0501 -0.445042
      vertex -450 16.4363 1.24698
    endloop
  endfacet
  facet normal 1 0 0
    outer loop
      vertex -450 16.0501 -0.445042
      vertex -450 7.64121 -14.4828
      vertex -450 8.21564 -15
    endloop
  endfacet
  facet normal 1 0 0
    outer loop
      vertex -450 16.0501 -0.445042
      vertex -450 5.28758 -13.1239
      vertex -450 7.64121 -14.4828
    endloop
  endfacet
  facet normal 1 0 0
    outer loop
      vertex -450 16.0501 -0.445042
      vertex -450 2.70285 -12.2841
      vertex -450 5.28758 -13.1239
    endloop
  endfacet
  facet normal 1 0 0
    outer loop
      vertex -450 16.0501 -0.445042
      vertex -450 0 -12
      vertex -450 2.70285 -12.2841
    endloop
  endfacet
  facet normal 1 0 0
    outer loop
      vertex -450 -16.4363 1.24698
      vertex -450 16.4363 1.24698
      vertex -450 26 10
    endloop
  endfacet
  facet normal 1 0 0
    outer loop
      vertex -450 16.4363 1.24698
      vertex -450 -16.4363 1.24698
      vertex -450 0 -12
    endloop
  endfacet
  facet normal 1 -0 -0
    outer loop
      vertex -450 -16.0501 -0.445042
      vertex -450 0 -12
      vertex -450 -16.4363 1.24698
    endloop
  endfacet
  facet normal 1 0 0
    outer loop
      vertex -450 0 -12
      vertex -450 -16.0501 -0.445042
      vertex -450 -2.70285 -12.2841
    endloop
  endfacet
  facet normal 1 0 0
    outer loop
      vertex -450 -5.28758 -13.1239
      vertex -450 -17.1322 -1.80194
      vertex -450 -7.64121 -14.4828
    endloop
  endfacet
  facet normal 1 -0 0
    outer loop
      vertex -450 -17.1322 -1.80194
      vertex -450 -5.28758 -13.1239
      vertex -450 -16.0501 -0.445042
    endloop
  endfacet
  facet normal 1 0 0
    outer loop
      vertex -450 -2.70285 -12.2841
      vertex -450 -16.0501 -0.445042
      vertex -450 -5.28758 -13.1239
    endloop
  endfacet
  facet normal 1 -0 0
    outer loop
      vertex -450 -26 10
      vertex -450 -16.4363 1.24698
      vertex -450 26 10
    endloop
  endfacet
  facet normal 1 0 0
    outer loop
      vertex -450 -19.5637 1.24698
      vertex -450 -26 10
      vertex -450 -19.9499 -0.445042
    endloop
  endfacet
  facet normal 1 0 0
    outer loop
      vertex -450 -18 2
      vertex -450 -26 10
      vertex -450 -19.5637 1.24698
    endloop
  endfacet
  facet normal 1 0 0
    outer loop
      vertex -450 -16.4363 1.24698
      vertex -450 -26 10
      vertex -450 -18 2
    endloop
  endfacet
  facet normal 1 -0 0
    outer loop
      vertex -450 18.8678 -1.80194
      vertex -450 26 -15
      vertex -450 19.9499 -0.445042
    endloop
  endfacet
  facet normal 1 -0 0
    outer loop
      vertex -450 17.1322 -1.80194
      vertex -450 26 -15
      vertex -450 18.8678 -1.80194
    endloop
  endfacet
  facet normal 1 0 0
    outer loop
      vertex -450 8.21564 -15
      vertex -450 17.1322 -1.80194
      vertex -450 16.0501 -0.445042
    endloop
  endfacet
  facet normal 1 0 0
    outer loop
      vertex -450 17.1322 -1.80194
      vertex -450 8.21564 -15
      vertex -450 26 -15
    endloop
  endfacet
  facet normal 1 0 0
    outer loop
      vertex -450 -7.64121 -14.4828
      vertex -450 -17.1322 -1.80194
      vertex -450 -8.21564 -15
    endloop
  endfacet
  facet normal 1 0 0
    outer loop
      vertex -450 -26 -15
      vertex -450 -17.1322 -1.80194
      vertex -450 -18.8678 -1.80194
    endloop
  endfacet
  facet normal 1 0 0
    outer loop
      vertex -450 -17.1322 -1.80194
      vertex -450 -26 -15
      vertex -450 -8.21564 -15
    endloop
  endfacet
  facet normal 1 0 0
    outer loop
      vertex -450 -19.9499 -0.445042
      vertex -450 -26 -15
      vertex -450 -18.8678 -1.80194
    endloop
  endfacet
  facet normal 1 0 0
    outer loop
      vertex -450 -26 -15
      vertex -450 -19.9499 -0.445042
      vertex -450 -26 10
    endloop
  endfacet
  facet normal 0 -1 0
    outer loop
      vertex -460 -26 10
      vertex -450 -26 -15
      vertex -450 -26 10
    endloop
  endfacet
  facet normal 0 -1 0
    outer loop
      vertex -460 -26 -25
      vertex -450 -26 -15
      vertex -460 -26 10
    endloop
  endfacet
  facet normal 0 -1 0
    outer loop
      vertex -434 -26 -25
      vertex -450 -26 -15
      vertex -460 -26 -25
    endloop
  endfacet
  facet normal 0 -1 0
    outer loop
      vertex -450 -26 -15
      vertex -434 -26 -25
      vertex -434 -26 -15
    endloop
  endfacet
  facet normal 0 1 0
    outer loop
      vertex -434 26 -15
      vertex -434 26 -25
      vertex -450 26 -15
    endloop
  endfacet
  facet normal 0 1 -0
    outer loop
      vertex -450 26 -15
      vertex -460 26 10
      vertex -450 26 10
    endloop
  endfacet
  facet normal 0 1 0
    outer loop
      vertex -450 26 -15
      vertex -460 26 -25
      vertex -460 26 10
    endloop
  endfacet
  facet normal 0 1 0
    outer loop
      vertex -460 26 -25
      vertex -450 26 -15
      vertex -434 26 -25
    endloop
  endfacet
  facet normal 0 0 1
    outer loop
      vertex -434 -8.21564 -15
      vertex -440 -20 -15
      vertex -434 -26 -15
    endloop
  endfacet
  facet normal 0 0 1
    outer loop
      vertex -434 -8.21564 -15
      vertex -440.377 -19.2182 -15
      vertex -440 -20 -15
    endloop
  endfacet
  facet normal 0 0 1
    outer loop
      vertex -434 -8.21564 -15
      vertex -440.753 -18.4363 -15
      vertex -440.377 -19.2182 -15
    endloop
  endfacet
  facet normal 0 0 1
    outer loop
      vertex -434 -8.21564 -15
      vertex -442.445 -18.0501 -15
      vertex -440.753 -18.4363 -15
    endloop
  endfacet
  facet normal -0 0 1
    outer loop
      vertex -450 -8.21564 -15
      vertex -442.445 -18.0501 -15
      vertex -434 -8.21564 -15
    endloop
  endfacet
  facet normal 0 0 1
    outer loop
      vertex -450 -26 -15
      vertex -443.802 -19.1322 -15
      vertex -450 -8.21564 -15
    endloop
  endfacet
  facet normal 0 0 1
    outer loop
      vertex -442.445 -18.0501 -15
      vertex -450 -8.21564 -15
      vertex -443.802 -19.1322 -15
    endloop
  endfacet
  facet normal -0 0 1
    outer loop
      vertex -440.377 -20.7818 -15
      vertex -434 -26 -15
      vertex -440 -20 -15
    endloop
  endfacet
  facet normal -0 0 1
    outer loop
      vertex -440.753 -21.5637 -15
      vertex -434 -26 -15
      vertex -440.377 -20.7818 -15
    endloop
  endfacet
  facet normal -0 0 1
    outer loop
      vertex -442.445 -21.9499 -15
      vertex -434 -26 -15
      vertex -440.753 -21.5637 -15
    endloop
  endfacet
  facet normal 0 0 1
    outer loop
      vertex -442.445 -21.9499 -15
      vertex -450 -26 -15
      vertex -434 -26 -15
    endloop
  endfacet
  facet normal 0 0 1
    outer loop
      vertex -443.802 -20.8678 -15
      vertex -450 -26 -15
      vertex -442.445 -21.9499 -15
    endloop
  endfacet
  facet normal 0 0 1
    outer loop
      vertex -443.802 -19.1322 -15
      vertex -450 -26 -15
      vertex -443.802 -20.8678 -15
    endloop
  endfacet
  facet normal 0 0 1
    outer loop
      vertex -434 26 -15
      vertex -440 20 -15
      vertex -434 8.21564 -15
    endloop
  endfacet
  facet normal 0 0 1
    outer loop
      vertex -434 26 -15
      vertex -440.377 20.7818 -15
      vertex -440 20 -15
    endloop
  endfacet
  facet normal 0 0 1
    outer loop
      vertex -434 26 -15
      vertex -440.753 21.5637 -15
      vertex -440.377 20.7818 -15
    endloop
  endfacet
  facet normal 0 0 1
    outer loop
      vertex -434 26 -15
      vertex -442.445 21.9499 -15
      vertex -440.753 21.5637 -15
    endloop
  endfacet
  facet normal 0 0 1
    outer loop
      vertex -443.802 20.8678 -15
      vertex -450 26 -15
      vertex -443.802 19.1322 -15
    endloop
  endfacet
  facet normal 0 0 1
    outer loop
      vertex -442.445 21.9499 -15
      vertex -450 26 -15
      vertex -443.802 20.8678 -15
    endloop
  endfacet
  facet normal -0 0 1
    outer loop
      vertex -450 26 -15
      vertex -442.445 21.9499 -15
      vertex -434 26 -15
    endloop
  endfacet
  facet normal -0 0 1
    outer loop
      vertex -440.377 19.2182 -15
      vertex -434 8.21564 -15
      vertex -440 20 -15
    endloop
  endfacet
  facet normal -0 0 1
    outer loop
      vertex -440.753 18.4363 -15
      vertex -434 8.21564 -15
      vertex -440.377 19.2182 -15
    endloop
  endfacet
  facet normal -0 0 1
    outer loop
      vertex -442.445 18.0501 -15
      vertex -434 8.21564 -15
      vertex -440.753 18.4363 -15
    endloop
  endfacet
  facet normal 0 0 1
    outer loop
      vertex -450 8.21564 -15
      vertex -442.445 18.0501 -15
      vertex -443.802 19.1322 -15
    endloop
  endfacet
  facet normal 0 0 1
    outer loop
      vertex -450 8.21564 -15
      vertex -443.802 19.1322 -15
      vertex -450 26 -15
    endloop
  endfacet
  facet normal 0 0 1
    outer loop
      vertex -442.445 18.0501 -15
      vertex -450 8.21564 -15
      vertex -434 8.21564 -15
    endloop
  endfacet
  facet normal 1 -0 0
    outer loop
      vertex -434 12.3637 -20.9828
      vertex -434 26 -25
      vertex -434 26 -15
    endloop
  endfacet
  facet normal 1 0 0
    outer loop
      vertex -434 26 -25
      vertex -434 12.3637 -20.9828
      vertex -434 12.9288 -23.6411
    endloop
  endfacet
  facet normal 1 0 0
    outer loop
      vertex -434 26 -15
      vertex -434 11.2583 -18.5
      vertex -434 12.3637 -20.9828
    endloop
  endfacet
  facet normal 1 0 0
    outer loop
      vertex -434 26 -15
      vertex -434 9.66088 -16.3013
      vertex -434 11.2583 -18.5
    endloop
  endfacet
  facet normal 1 0 -0
    outer loop
      vertex -434 9.66088 -16.3013
      vertex -434 26 -15
      vertex -434 8.21564 -15
    endloop
  endfacet
  facet normal 1 0 0
    outer loop
      vertex -434 26 -25
      vertex -434 12.9288 -23.6411
      vertex -434 12.9288 -25
    endloop
  endfacet
  facet normal 1 -0 0
    outer loop
      vertex -434 -26 -15
      vertex -434 -9.66088 -16.3013
      vertex -434 -8.21564 -15
    endloop
  endfacet
  facet normal 1 0 0
    outer loop
      vertex -434 -26 -15
      vertex -434 -11.2583 -18.5
      vertex -434 -9.66088 -16.3013
    endloop
  endfacet
  facet normal 1 0 0
    outer loop
      vertex -434 -26 -15
      vertex -434 -12.3637 -20.9828
      vertex -434 -11.2583 -18.5
    endloop
  endfacet
  facet normal 1 0 0
    outer loop
      vertex -434 -26 -25
      vertex -434 -12.3637 -20.9828
      vertex -434 -26 -15
    endloop
  endfacet
  facet normal 1 0 0
    outer loop
      vertex -434 -12.3637 -20.9828
      vertex -434 -26 -25
      vertex -434 -12.9288 -23.6411
    endloop
  endfacet
  facet normal 1 0 0
    outer loop
      vertex -434 -12.9288 -23.6411
      vertex -434 -26 -25
      vertex -434 -12.9288 -25
    endloop
  endfacet
  facet normal 0 -0.433884 -0.900969
    outer loop
      vertex -460 18 2
      vertex -450 19.5637 1.24698
      vertex -450 18 2
    endloop
  endfacet
  facet normal -0 -0.433884 -0.900969
    outer loop
      vertex -450 19.5637 1.24698
      vertex -460 18 2
      vertex -460 19.5637 1.24698
    endloop
  endfacet
  facet normal -0 0 1
    outer loop
      vertex -460 18.8678 -1.80194
      vertex -450 17.1322 -1.80194
      vertex -450 18.8678 -1.80194
    endloop
  endfacet
  facet normal 0 0 1
    outer loop
      vertex -450 17.1322 -1.80194
      vertex -460 18.8678 -1.80194
      vertex -460 17.1322 -1.80194
    endloop
  endfacet
  facet normal 0 -0.781831 0.62349
    outer loop
      vertex -460 18.8678 -1.80194
      vertex -450 19.9499 -0.445042
      vertex -460 19.9499 -0.445042
    endloop
  endfacet
  facet normal 0 -0.781831 0.62349
    outer loop
      vertex -450 19.9499 -0.445042
      vertex -460 18.8678 -1.80194
      vertex -450 18.8678 -1.80194
    endloop
  endfacet
  facet normal 0 -0.974928 -0.222521
    outer loop
      vertex -460 19.9499 -0.445042
      vertex -450 19.5637 1.24698
      vertex -460 19.5637 1.24698
    endloop
  endfacet
  facet normal 0 -0.974928 -0.222521
    outer loop
      vertex -450 19.5637 1.24698
      vertex -460 19.9499 -0.445042
      vertex -450 19.9499 -0.445042
    endloop
  endfacet
  facet normal 0 0.433884 -0.900969
    outer loop
      vertex -460 16.4363 1.24698
      vertex -450 18 2
      vertex -450 16.4363 1.24698
    endloop
  endfacet
  facet normal 0 0.433884 -0.900969
    outer loop
      vertex -450 18 2
      vertex -460 16.4363 1.24698
      vertex -460 18 2
    endloop
  endfacet
  facet normal 0 0.974928 -0.222521
    outer loop
      vertex -450 16.0501 -0.445042
      vertex -460 16.4363 1.24698
      vertex -450 16.4363 1.24698
    endloop
  endfacet
  facet normal 0 0.974928 -0.222521
    outer loop
      vertex -460 16.4363 1.24698
      vertex -450 16.0501 -0.445042
      vertex -460 16.0501 -0.445042
    endloop
  endfacet
  facet normal 0 0.781831 0.62349
    outer loop
      vertex -450 17.1322 -1.80194
      vertex -460 16.0501 -0.445042
      vertex -450 16.0501 -0.445042
    endloop
  endfacet
  facet normal 0 0.781831 0.62349
    outer loop
      vertex -460 16.0501 -0.445042
      vertex -450 17.1322 -1.80194
      vertex -460 17.1322 -1.80194
    endloop
  endfacet
  facet normal 0 -0.433884 -0.900969
    outer loop
      vertex -460 -18 2
      vertex -450 -16.4363 1.24698
      vertex -450 -18 2
    endloop
  endfacet
  facet normal -0 -0.433884 -0.900969
    outer loop
      vertex -450 -16.4363 1.24698
      vertex -460 -18 2
      vertex -460 -16.4363 1.24698
    endloop
  endfacet
  facet normal -0 0 1
    outer loop
      vertex -460 -17.1322 -1.80194
      vertex -450 -18.8678 -1.80194
      vertex -450 -17.1322 -1.80194
    endloop
  endfacet
  facet normal 0 0 1
    outer loop
      vertex -450 -18.8678 -1.80194
      vertex -460 -17.1322 -1.80194
      vertex -460 -18.8678 -1.80194
    endloop
  endfacet
  facet normal 0 0.781831 0.62349
    outer loop
      vertex -450 -18.8678 -1.80194
      vertex -460 -19.9499 -0.445042
      vertex -450 -19.9499 -0.445042
    endloop
  endfacet
  facet normal 0 0.781831 0.62349
    outer loop
      vertex -460 -19.9499 -0.445042
      vertex -450 -18.8678 -1.80194
      vertex -460 -18.8678 -1.80194
    endloop
  endfacet
  facet normal 0 -0.781831 0.62349
    outer loop
      vertex -460 -17.1322 -1.80194
      vertex -450 -16.0501 -0.445042
      vertex -460 -16.0501 -0.445042
    endloop
  endfacet
  facet normal 0 -0.781831 0.62349
    outer loop
      vertex -450 -16.0501 -0.445042
      vertex -460 -17.1322 -1.80194
      vertex -450 -17.1322 -1.80194
    endloop
  endfacet
  facet normal 0 -0.974928 -0.222521
    outer loop
      vertex -460 -16.0501 -0.445042
      vertex -450 -16.4363 1.24698
      vertex -460 -16.4363 1.24698
    endloop
  endfacet
  facet normal 0 -0.974928 -0.222521
    outer loop
      vertex -450 -16.4363 1.24698
      vertex -460 -16.0501 -0.445042
      vertex -450 -16.0501 -0.445042
    endloop
  endfacet
  facet normal 0 0.974928 -0.222521
    outer loop
      vertex -450 -19.9499 -0.445042
      vertex -460 -19.5637 1.24698
      vertex -450 -19.5637 1.24698
    endloop
  endfacet
  facet normal 0 0.974928 -0.222521
    outer loop
      vertex -460 -19.5637 1.24698
      vertex -450 -19.9499 -0.445042
      vertex -460 -19.9499 -0.445042
    endloop
  endfacet
  facet normal 0 0.433884 -0.900969
    outer loop
      vertex -460 -19.5637 1.24698
      vertex -450 -18 2
      vertex -450 -19.5637 1.24698
    endloop
  endfacet
  facet normal 0 0.433884 -0.900969
    outer loop
      vertex -450 -18 2
      vertex -460 -19.5637 1.24698
      vertex -460 -18 2
    endloop
  endfacet
  facet normal 0 -0.104528 -0.994522
    outer loop
      vertex -460 0 -12
      vertex -450 2.70285 -12.2841
      vertex -450 0 -12
    endloop
  endfacet
  facet normal -0 -0.104528 -0.994522
    outer loop
      vertex -450 2.70285 -12.2841
      vertex -460 0 -12
      vertex -460 2.70285 -12.2841
    endloop
  endfacet
  facet normal 0 -1 0
    outer loop
      vertex -460 12.9288 -25
      vertex -434 12.9288 -23.6411
      vertex -460 12.9288 -23.6411
    endloop
  endfacet
  facet normal 0 -1 -0
    outer loop
      vertex -434 12.9288 -23.6411
      vertex -460 12.9288 -25
      vertex -434 12.9288 -25
    endloop
  endfacet
  facet normal 0 1 -0
    outer loop
      vertex -434 -12.9288 -25
      vertex -460 -12.9288 -23.6411
      vertex -434 -12.9288 -23.6411
    endloop
  endfacet
  facet normal 0 1 0
    outer loop
      vertex -460 -12.9288 -23.6411
      vertex -434 -12.9288 -25
      vertex -460 -12.9288 -25
    endloop
  endfacet
  facet normal -0 -0.669131 -0.743145
    outer loop
      vertex -450 7.64121 -14.4828
      vertex -460 7.64121 -14.4828
      vertex -450 8.21564 -15
    endloop
  endfacet
  facet normal 0 -0.669131 -0.743145
    outer loop
      vertex -450 8.21564 -15
      vertex -434 9.66088 -16.3013
      vertex -434 8.21564 -15
    endloop
  endfacet
  facet normal -5.74301e-09 -0.669131 -0.743145
    outer loop
      vertex -460 9.66088 -16.3013
      vertex -450 8.21564 -15
      vertex -460 7.64121 -14.4828
    endloop
  endfacet
  facet normal 0 -0.669131 -0.743145
    outer loop
      vertex -450 8.21564 -15
      vertex -460 9.66088 -16.3013
      vertex -434 9.66088 -16.3013
    endloop
  endfacet
  facet normal 0 0.5 -0.866025
    outer loop
      vertex -460 -7.64121 -14.4828
      vertex -450 -5.28758 -13.1239
      vertex -450 -7.64121 -14.4828
    endloop
  endfacet
  facet normal 0 0.5 -0.866025
    outer loop
      vertex -450 -5.28758 -13.1239
      vertex -460 -7.64121 -14.4828
      vertex -460 -5.28758 -13.1239
    endloop
  endfacet
  facet normal 0 -0.5 -0.866025
    outer loop
      vertex -460 5.28758 -13.1239
      vertex -450 7.64121 -14.4828
      vertex -450 5.28758 -13.1239
    endloop
  endfacet
  facet normal -0 -0.5 -0.866025
    outer loop
      vertex -450 7.64121 -14.4828
      vertex -460 5.28758 -13.1239
      vertex -460 7.64121 -14.4828
    endloop
  endfacet
  facet normal 0 -0.309017 -0.951056
    outer loop
      vertex -460 2.70285 -12.2841
      vertex -450 5.28758 -13.1239
      vertex -450 2.70285 -12.2841
    endloop
  endfacet
  facet normal -0 -0.309017 -0.951056
    outer loop
      vertex -450 5.28758 -13.1239
      vertex -460 2.70285 -12.2841
      vertex -460 5.28758 -13.1239
    endloop
  endfacet
  facet normal 0 -0.913545 -0.406737
    outer loop
      vertex -460 12.3637 -20.9828
      vertex -434 11.2583 -18.5
      vertex -460 11.2583 -18.5
    endloop
  endfacet
  facet normal 0 -0.913545 -0.406737
    outer loop
      vertex -434 11.2583 -18.5
      vertex -460 12.3637 -20.9828
      vertex -434 12.3637 -20.9828
    endloop
  endfacet
  facet normal 0 -0.978148 -0.207912
    outer loop
      vertex -460 12.9288 -23.6411
      vertex -434 12.3637 -20.9828
      vertex -460 12.3637 -20.9828
    endloop
  endfacet
  facet normal -1.52523e-08 -0.978148 -0.207912
    outer loop
      vertex -434 12.3637 -20.9828
      vertex -460 12.9288 -23.6411
      vertex -434 12.9288 -23.6411
    endloop
  endfacet
  facet normal 0 -0.809017 -0.587785
    outer loop
      vertex -460 11.2583 -18.5
      vertex -434 9.66088 -16.3013
      vertex -460 9.66088 -16.3013
    endloop
  endfacet
  facet normal 0 -0.809017 -0.587785
    outer loop
      vertex -434 9.66088 -16.3013
      vertex -460 11.2583 -18.5
      vertex -434 11.2583 -18.5
    endloop
  endfacet
  facet normal 0 0.978148 -0.207912
    outer loop
      vertex -434 -12.3637 -20.9828
      vertex -460 -12.9288 -23.6411
      vertex -460 -12.3637 -20.9828
    endloop
  endfacet
  facet normal -1.52523e-08 0.978148 -0.207912
    outer loop
      vertex -460 -12.9288 -23.6411
      vertex -434 -12.3637 -20.9828
      vertex -434 -12.9288 -23.6411
    endloop
  endfacet
  facet normal 0 0.309017 -0.951056
    outer loop
      vertex -460 -5.28758 -13.1239
      vertex -450 -2.70285 -12.2841
      vertex -450 -5.28758 -13.1239
    endloop
  endfacet
  facet normal 0 0.309017 -0.951056
    outer loop
      vertex -450 -2.70285 -12.2841
      vertex -460 -5.28758 -13.1239
      vertex -460 -2.70285 -12.2841
    endloop
  endfacet
  facet normal 0 0.104528 -0.994522
    outer loop
      vertex -460 -2.70285 -12.2841
      vertex -450 0 -12
      vertex -450 -2.70285 -12.2841
    endloop
  endfacet
  facet normal 0 0.104528 -0.994522
    outer loop
      vertex -450 0 -12
      vertex -460 -2.70285 -12.2841
      vertex -460 0 -12
    endloop
  endfacet
  facet normal 0 0.809017 -0.587785
    outer loop
      vertex -434 -11.2583 -18.5
      vertex -460 -9.66088 -16.3013
      vertex -434 -9.66088 -16.3013
    endloop
  endfacet
  facet normal 0 0.809017 -0.587785
    outer loop
      vertex -460 -9.66088 -16.3013
      vertex -434 -11.2583 -18.5
      vertex -460 -11.2583 -18.5
    endloop
  endfacet
  facet normal 0 0.913545 -0.406737
    outer loop
      vertex -434 -12.3637 -20.9828
      vertex -460 -11.2583 -18.5
      vertex -434 -11.2583 -18.5
    endloop
  endfacet
  facet normal 0 0.913545 -0.406737
    outer loop
      vertex -460 -11.2583 -18.5
      vertex -434 -12.3637 -20.9828
      vertex -460 -12.3637 -20.9828
    endloop
  endfacet
  facet normal 0 0.669131 -0.743145
    outer loop
      vertex -434 -9.66088 -16.3013
      vertex -450 -8.21564 -15
      vertex -434 -8.21564 -15
    endloop
  endfacet
  facet normal 0 0.669131 -0.743145
    outer loop
      vertex -460 -9.66088 -16.3013
      vertex -450 -8.21564 -15
      vertex -434 -9.66088 -16.3013
    endloop
  endfacet
  facet normal -5.74301e-09 0.669131 -0.743145
    outer loop
      vertex -460 -7.64121 -14.4828
      vertex -450 -8.21564 -15
      vertex -460 -9.66088 -16.3013
    endloop
  endfacet
  facet normal 0 0.669131 -0.743145
    outer loop
      vertex -450 -8.21564 -15
      vertex -460 -7.64121 -14.4828
      vertex -450 -7.64121 -14.4828
    endloop
  endfacet
  facet normal -0.900976 -0.43387 0
    outer loop
      vertex -440.753 21.5637 -25
      vertex -440.377 20.7818 -15
      vertex -440.753 21.5637 -15
    endloop
  endfacet
  facet normal -0.900964 -0.433894 -2.35673e-06
    outer loop
      vertex -440.377 20.7818 -15
      vertex -440.753 21.5637 -25
      vertex -440.226 20.4691 -25
    endloop
  endfacet
  facet normal -0.90098 -0.43386 -0
    outer loop
      vertex -440 20 -15
      vertex -440.226 20.4691 -25
      vertex -440 20 -25
    endloop
  endfacet
  facet normal -0.900962 -0.433898 -2.19961e-06
    outer loop
      vertex -440.226 20.4691 -25
      vertex -440 20 -15
      vertex -440.377 20.7818 -15
    endloop
  endfacet
  facet normal 1 -0 0
    outer loop
      vertex -443.802 19.1322 -15
      vertex -443.802 20.8678 -25
      vertex -443.802 20.8678 -15
    endloop
  endfacet
  facet normal 1 0 0
    outer loop
      vertex -443.802 20.8678 -25
      vertex -443.802 19.1322 -15
      vertex -443.802 19.1322 -25
    endloop
  endfacet
  facet normal -0.222521 -0.974928 0
    outer loop
      vertex -442.445 21.9499 -25
      vertex -440.753 21.5637 -15
      vertex -442.445 21.9499 -15
    endloop
  endfacet
  facet normal -0.222521 -0.974928 -0
    outer loop
      vertex -440.753 21.5637 -15
      vertex -442.445 21.9499 -25
      vertex -440.753 21.5637 -25
    endloop
  endfacet
  facet normal 0.623488 -0.781833 0
    outer loop
      vertex -443.802 20.8678 -25
      vertex -442.445 21.9499 -15
      vertex -443.802 20.8678 -15
    endloop
  endfacet
  facet normal 0.623488 -0.781833 0
    outer loop
      vertex -442.445 21.9499 -15
      vertex -443.802 20.8678 -25
      vertex -442.445 21.9499 -25
    endloop
  endfacet
  facet normal -0.222521 0.974928 0
    outer loop
      vertex -440.753 18.4363 -25
      vertex -442.445 18.0501 -15
      vertex -440.753 18.4363 -15
    endloop
  endfacet
  facet normal -0.222521 0.974928 0
    outer loop
      vertex -442.445 18.0501 -15
      vertex -440.753 18.4363 -25
      vertex -442.445 18.0501 -25
    endloop
  endfacet
  facet normal 0.623488 0.781833 -0
    outer loop
      vertex -442.445 18.0501 -25
      vertex -443.802 19.1322 -15
      vertex -442.445 18.0501 -15
    endloop
  endfacet
  facet normal 0.623488 0.781833 0
    outer loop
      vertex -443.802 19.1322 -15
      vertex -442.445 18.0501 -25
      vertex -443.802 19.1322 -25
    endloop
  endfacet
  facet normal -0.900964 0.433894 -2.35673e-06
    outer loop
      vertex -440.753 18.4363 -25
      vertex -440.377 19.2182 -15
      vertex -440.226 19.5309 -25
    endloop
  endfacet
  facet normal -0.900976 0.43387 0
    outer loop
      vertex -440.377 19.2182 -15
      vertex -440.753 18.4363 -25
      vertex -440.753 18.4363 -15
    endloop
  endfacet
  facet normal -0.90098 0.43386 0
    outer loop
      vertex -440.226 19.5309 -25
      vertex -440 20 -15
      vertex -440 20 -25
    endloop
  endfacet
  facet normal -0.900962 0.433898 -2.19961e-06
    outer loop
      vertex -440 20 -15
      vertex -440.226 19.5309 -25
      vertex -440.377 19.2182 -15
    endloop
  endfacet
  facet normal -0.900976 -0.43387 0
    outer loop
      vertex -440.753 -18.4363 -25
      vertex -440.377 -19.2182 -15
      vertex -440.753 -18.4363 -15
    endloop
  endfacet
  facet normal -0.900964 -0.433894 -2.35673e-06
    outer loop
      vertex -440.377 -19.2182 -15
      vertex -440.753 -18.4363 -25
      vertex -440.226 -19.5309 -25
    endloop
  endfacet
  facet normal -0.90098 -0.43386 -0
    outer loop
      vertex -440 -20 -15
      vertex -440.226 -19.5309 -25
      vertex -440 -20 -25
    endloop
  endfacet
  facet normal -0.900962 -0.433898 -2.19961e-06
    outer loop
      vertex -440.226 -19.5309 -25
      vertex -440 -20 -15
      vertex -440.377 -19.2182 -15
    endloop
  endfacet
  facet normal 1 -0 0
    outer loop
      vertex -443.802 -20.8678 -15
      vertex -443.802 -19.1322 -25
      vertex -443.802 -19.1322 -15
    endloop
  endfacet
  facet normal 1 0 0
    outer loop
      vertex -443.802 -19.1322 -25
      vertex -443.802 -20.8678 -15
      vertex -443.802 -20.8678 -25
    endloop
  endfacet
  facet normal -0.222521 -0.974928 0
    outer loop
      vertex -442.445 -18.0501 -25
      vertex -440.753 -18.4363 -15
      vertex -442.445 -18.0501 -15
    endloop
  endfacet
  facet normal -0.222521 -0.974928 -0
    outer loop
      vertex -440.753 -18.4363 -15
      vertex -442.445 -18.0501 -25
      vertex -440.753 -18.4363 -25
    endloop
  endfacet
  facet normal 0.623488 -0.781833 0
    outer loop
      vertex -443.802 -19.1322 -25
      vertex -442.445 -18.0501 -15
      vertex -443.802 -19.1322 -15
    endloop
  endfacet
  facet normal 0.623488 -0.781833 0
    outer loop
      vertex -442.445 -18.0501 -15
      vertex -443.802 -19.1322 -25
      vertex -442.445 -18.0501 -25
    endloop
  endfacet
  facet normal -0.222521 0.974928 0
    outer loop
      vertex -440.753 -21.5637 -25
      vertex -442.445 -21.9499 -15
      vertex -440.753 -21.5637 -15
    endloop
  endfacet
  facet normal -0.222521 0.974928 0
    outer loop
      vertex -442.445 -21.9499 -15
      vertex -440.753 -21.5637 -25
      vertex -442.445 -21.9499 -25
    endloop
  endfacet
  facet normal 0.623488 0.781833 -0
    outer loop
      vertex -442.445 -21.9499 -25
      vertex -443.802 -20.8678 -15
      vertex -442.445 -21.9499 -15
    endloop
  endfacet
  facet normal 0.623488 0.781833 0
    outer loop
      vertex -443.802 -20.8678 -15
      vertex -442.445 -21.9499 -25
      vertex -443.802 -20.8678 -25
    endloop
  endfacet
  facet normal -0.900964 0.433894 -2.35673e-06
    outer loop
      vertex -440.753 -21.5637 -25
      vertex -440.377 -20.7818 -15
      vertex -440.226 -20.4691 -25
    endloop
  endfacet
  facet normal -0.900976 0.43387 0
    outer loop
      vertex -440.377 -20.7818 -15
      vertex -440.753 -21.5637 -25
      vertex -440.753 -21.5637 -15
    endloop
  endfacet
  facet normal -0.90098 0.43386 0
    outer loop
      vertex -440.226 -20.4691 -25
      vertex -440 -20 -15
      vertex -440 -20 -25
    endloop
  endfacet
  facet normal -0.900962 0.433898 -2.19961e-06
    outer loop
      vertex -440 -20 -15
      vertex -440.226 -20.4691 -25
      vertex -440.377 -20.7818 -15
    endloop
  endfacet
endsolid OpenSCAD_Model
