solid OpenSCAD_Model
  facet normal 1 -0 0
    outer loop
      vertex 21.25 -20 -0.25
      vertex 21.25 0 -3
      vertex 21.25 0 -0.25
    endloop
  endfacet
  facet normal 1 0 0
    outer loop
      vertex 21.25 0 -3
      vertex 21.25 -20 -0.25
      vertex 21.25 -20 -3
    endloop
  endfacet
  facet normal -1 0 0
    outer loop
      vertex 25.75 -20 -3
      vertex 25.75 0 -0.25
      vertex 25.75 0 -3
    endloop
  endfacet
  facet normal -1 -0 0
    outer loop
      vertex 25.75 0 -0.25
      vertex 25.75 -20 -3
      vertex 25.75 -20 -0.25
    endloop
  endfacet
  facet normal 0 1 -0
    outer loop
      vertex 25.75 -20 -3
      vertex 21.25 -20 -0.25
      vertex 25.75 -20 -0.25
    endloop
  endfacet
  facet normal 0 1 0
    outer loop
      vertex 21.25 -20 -0.25
      vertex 25.75 -20 -3
      vertex 21.25 -20 -3
    endloop
  endfacet
  facet normal 0 1 -0
    outer loop
      vertex 55 -20 -0.25
      vertex 43.5 -20 0
      vertex 55 -20 0
    endloop
  endfacet
  facet normal 0 1 0
    outer loop
      vertex 43.5 -20 0
      vertex 25.75 -20 -0.25
      vertex 13.5 -20 0
    endloop
  endfacet
  facet normal 0 1 0
    outer loop
      vertex 43.5 -20 0
      vertex 55 -20 -0.25
      vertex 25.75 -20 -0.25
    endloop
  endfacet
  facet normal 0 1 -0
    outer loop
      vertex 21.25 -20 -0.25
      vertex 13.5 -20 0
      vertex 25.75 -20 -0.25
    endloop
  endfacet
  facet normal 0 1 0
    outer loop
      vertex 13 -20 -0.25
      vertex 13.5 -20 0
      vertex 21.25 -20 -0.25
    endloop
  endfacet
  facet normal 0 1 0
    outer loop
      vertex 13.5 -20 0
      vertex 13 -20 -0.25
      vertex 13 -20 0
    endloop
  endfacet
  facet normal 0 1 -0
    outer loop
      vertex 43.5 -20 0
      vertex 25.75 -20 40.25
      vertex 43.5 -20 40.25
    endloop
  endfacet
  facet normal 0 1 0
    outer loop
      vertex 13.5 -20 0
      vertex 25.75 -20 40.25
      vertex 43.5 -20 0
    endloop
  endfacet
  facet normal 0 1 0
    outer loop
      vertex 25.75 -20 40.25
      vertex 13.5 -20 0
      vertex 21.25 -20 40.25
    endloop
  endfacet
  facet normal 0 1 0
    outer loop
      vertex 21.25 -20 40.25
      vertex 13.5 -20 0
      vertex 13.5 -20 40.25
    endloop
  endfacet
  facet normal 0 1 -0
    outer loop
      vertex 25.75 -20 40.25
      vertex 21.25 -20 48
      vertex 25.75 -20 48
    endloop
  endfacet
  facet normal 0 1 0
    outer loop
      vertex 21.25 -20 48
      vertex 25.75 -20 40.25
      vertex 21.25 -20 40.25
    endloop
  endfacet
  facet normal 1 -0 0
    outer loop
      vertex 13 -20 0
      vertex 13 0 -0.25
      vertex 13 0 0
    endloop
  endfacet
  facet normal 1 0 0
    outer loop
      vertex 13 0 -0.25
      vertex 13 -20 0
      vertex 13 -20 -0.25
    endloop
  endfacet
  facet normal -0 0 1
    outer loop
      vertex 25.75 0 -0.25
      vertex 55 -20 -0.25
      vertex 55 0 -0.25
    endloop
  endfacet
  facet normal 0 0 1
    outer loop
      vertex 55 -20 -0.25
      vertex 25.75 0 -0.25
      vertex 25.75 -20 -0.25
    endloop
  endfacet
  facet normal -0 0 1
    outer loop
      vertex 13 0 -0.25
      vertex 21.25 -20 -0.25
      vertex 21.25 0 -0.25
    endloop
  endfacet
  facet normal 0 0 1
    outer loop
      vertex 21.25 -20 -0.25
      vertex 13 0 -0.25
      vertex 13 -20 -0.25
    endloop
  endfacet
  facet normal -1 0 0
    outer loop
      vertex 55 -20 -0.25
      vertex 55 0 0
      vertex 55 0 -0.25
    endloop
  endfacet
  facet normal -1 -0 0
    outer loop
      vertex 55 0 0
      vertex 55 -20 -0.25
      vertex 55 -20 0
    endloop
  endfacet
  facet normal 1 0 0
    outer loop
      vertex 21.25 0 48
      vertex 21.25 -2.14683 44.9271
      vertex 21.25 0 40.25
    endloop
  endfacet
  facet normal 1 0 0
    outer loop
      vertex 21.25 0 48
      vertex 21.25 -3.23664 46.4271
      vertex 21.25 -2.14683 44.9271
    endloop
  endfacet
  facet normal 1 0 0
    outer loop
      vertex 21.25 0 48
      vertex 21.25 -5 47
      vertex 21.25 -3.23664 46.4271
    endloop
  endfacet
  facet normal 1 0 0
    outer loop
      vertex 21.25 -7.85317 44.9271
      vertex 21.25 -12.1468 44.9271
      vertex 21.25 -7.85317 43.0729
    endloop
  endfacet
  facet normal 1 0 0
    outer loop
      vertex 21.25 -6.76336 46.4271
      vertex 21.25 -12.1468 44.9271
      vertex 21.25 -7.85317 44.9271
    endloop
  endfacet
  facet normal 1 0 0
    outer loop
      vertex 21.25 -13.2366 46.4271
      vertex 21.25 -6.76336 46.4271
      vertex 21.25 -5 47
    endloop
  endfacet
  facet normal 1 0 0
    outer loop
      vertex 21.25 -6.76336 46.4271
      vertex 21.25 -13.2366 46.4271
      vertex 21.25 -12.1468 44.9271
    endloop
  endfacet
  facet normal 1 0 0
    outer loop
      vertex 21.25 -15 47
      vertex 21.25 -5 47
      vertex 21.25 0 48
    endloop
  endfacet
  facet normal 1 0 0
    outer loop
      vertex 21.25 -5 47
      vertex 21.25 -15 47
      vertex 21.25 -13.2366 46.4271
    endloop
  endfacet
  facet normal 1 0 0
    outer loop
      vertex 21.25 -20 40.25
      vertex 21.25 -17.8532 44.9271
      vertex 21.25 -20 48
    endloop
  endfacet
  facet normal 1 0 0
    outer loop
      vertex 21.25 -16.7634 46.4271
      vertex 21.25 -20 48
      vertex 21.25 -17.8532 44.9271
    endloop
  endfacet
  facet normal 1 0 0
    outer loop
      vertex 21.25 -15 47
      vertex 21.25 -20 48
      vertex 21.25 -16.7634 46.4271
    endloop
  endfacet
  facet normal 1 -0 0
    outer loop
      vertex 21.25 -20 48
      vertex 21.25 -15 47
      vertex 21.25 0 48
    endloop
  endfacet
  facet normal 1 -0 0
    outer loop
      vertex 21.25 -2.14683 43.0729
      vertex 21.25 0 40.25
      vertex 21.25 -2.14683 44.9271
    endloop
  endfacet
  facet normal 1 -0 0
    outer loop
      vertex 21.25 -3.23664 41.5729
      vertex 21.25 0 40.25
      vertex 21.25 -2.14683 43.0729
    endloop
  endfacet
  facet normal 1 -0 0
    outer loop
      vertex 21.25 -5 41
      vertex 21.25 0 40.25
      vertex 21.25 -3.23664 41.5729
    endloop
  endfacet
  facet normal 1 0 0
    outer loop
      vertex 21.25 -12.1468 43.0729
      vertex 21.25 -7.85317 43.0729
      vertex 21.25 -12.1468 44.9271
    endloop
  endfacet
  facet normal 1 0 0
    outer loop
      vertex 21.25 -7.85317 43.0729
      vertex 21.25 -12.1468 43.0729
      vertex 21.25 -6.76336 41.5729
    endloop
  endfacet
  facet normal 1 0 0
    outer loop
      vertex 21.25 -13.2366 41.5729
      vertex 21.25 -6.76336 41.5729
      vertex 21.25 -12.1468 43.0729
    endloop
  endfacet
  facet normal 1 0 0
    outer loop
      vertex 21.25 -6.76336 41.5729
      vertex 21.25 -13.2366 41.5729
      vertex 21.25 -5 41
    endloop
  endfacet
  facet normal 1 0 0
    outer loop
      vertex 21.25 -15 41
      vertex 21.25 -5 41
      vertex 21.25 -13.2366 41.5729
    endloop
  endfacet
  facet normal 1 0 0
    outer loop
      vertex 21.25 -5 41
      vertex 21.25 -15 41
      vertex 21.25 0 40.25
    endloop
  endfacet
  facet normal 1 0 0
    outer loop
      vertex 21.25 -15 41
      vertex 21.25 -20 40.25
      vertex 21.25 0 40.25
    endloop
  endfacet
  facet normal 1 0 0
    outer loop
      vertex 21.25 -16.7634 41.5729
      vertex 21.25 -20 40.25
      vertex 21.25 -15 41
    endloop
  endfacet
  facet normal 1 0 0
    outer loop
      vertex 21.25 -17.8532 43.0729
      vertex 21.25 -20 40.25
      vertex 21.25 -16.7634 41.5729
    endloop
  endfacet
  facet normal 1 0 0
    outer loop
      vertex 21.25 -17.8532 44.9271
      vertex 21.25 -20 40.25
      vertex 21.25 -17.8532 43.0729
    endloop
  endfacet
  facet normal 0 0 -1
    outer loop
      vertex 21.25 -20 48
      vertex 25.75 0 48
      vertex 25.75 -20 48
    endloop
  endfacet
  facet normal -0 0 -1
    outer loop
      vertex 25.75 0 48
      vertex 21.25 -20 48
      vertex 21.25 0 48
    endloop
  endfacet
  facet normal -1 0 0
    outer loop
      vertex 25.75 0 40.25
      vertex 25.75 -2.5 44
      vertex 25.75 0 48
    endloop
  endfacet
  facet normal -1 0 0
    outer loop
      vertex 25.75 0 40.25
      vertex 25.75 -3.23223 42.2322
      vertex 25.75 -2.5 44
    endloop
  endfacet
  facet normal -1 0 0
    outer loop
      vertex 25.75 0 40.25
      vertex 25.75 -5 41.5
      vertex 25.75 -3.23223 42.2322
    endloop
  endfacet
  facet normal -1 0 0
    outer loop
      vertex 25.75 -6.76777 42.2322
      vertex 25.75 -12.5 44
      vertex 25.75 -7.5 44
    endloop
  endfacet
  facet normal -1 0 0
    outer loop
      vertex 25.75 -13.2322 42.2322
      vertex 25.75 -6.76777 42.2322
      vertex 25.75 -5 41.5
    endloop
  endfacet
  facet normal -1 0 0
    outer loop
      vertex 25.75 -6.76777 42.2322
      vertex 25.75 -13.2322 42.2322
      vertex 25.75 -12.5 44
    endloop
  endfacet
  facet normal -1 0 0
    outer loop
      vertex 25.75 -15 41.5
      vertex 25.75 -5 41.5
      vertex 25.75 0 40.25
    endloop
  endfacet
  facet normal -1 0 0
    outer loop
      vertex 25.75 -5 41.5
      vertex 25.75 -15 41.5
      vertex 25.75 -13.2322 42.2322
    endloop
  endfacet
  facet normal -1 -0 0
    outer loop
      vertex 25.75 -16.7678 42.2322
      vertex 25.75 -20 40.25
      vertex 25.75 -17.5 44
    endloop
  endfacet
  facet normal -1 -0 0
    outer loop
      vertex 25.75 -15 41.5
      vertex 25.75 -20 40.25
      vertex 25.75 -16.7678 42.2322
    endloop
  endfacet
  facet normal -1 0 0
    outer loop
      vertex 25.75 -20 40.25
      vertex 25.75 -15 41.5
      vertex 25.75 0 40.25
    endloop
  endfacet
  facet normal -1 0 0
    outer loop
      vertex 25.75 -3.23223 45.7678
      vertex 25.75 0 48
      vertex 25.75 -2.5 44
    endloop
  endfacet
  facet normal -1 0 0
    outer loop
      vertex 25.75 -5 46.5
      vertex 25.75 0 48
      vertex 25.75 -3.23223 45.7678
    endloop
  endfacet
  facet normal -1 0 0
    outer loop
      vertex 25.75 -12.5 44
      vertex 25.75 -6.76777 45.7678
      vertex 25.75 -7.5 44
    endloop
  endfacet
  facet normal -1 0 0
    outer loop
      vertex 25.75 -13.2322 45.7678
      vertex 25.75 -6.76777 45.7678
      vertex 25.75 -12.5 44
    endloop
  endfacet
  facet normal -1 0 0
    outer loop
      vertex 25.75 -6.76777 45.7678
      vertex 25.75 -13.2322 45.7678
      vertex 25.75 -5 46.5
    endloop
  endfacet
  facet normal -1 0 0
    outer loop
      vertex 25.75 -15 46.5
      vertex 25.75 -5 46.5
      vertex 25.75 -13.2322 45.7678
    endloop
  endfacet
  facet normal -1 0 0
    outer loop
      vertex 25.75 -5 46.5
      vertex 25.75 -15 46.5
      vertex 25.75 0 48
    endloop
  endfacet
  facet normal -1 0 0
    outer loop
      vertex 25.75 -20 48
      vertex 25.75 -17.5 44
      vertex 25.75 -20 40.25
    endloop
  endfacet
  facet normal -1 0 0
    outer loop
      vertex 25.75 -15 46.5
      vertex 25.75 -20 48
      vertex 25.75 0 48
    endloop
  endfacet
  facet normal -1 0 0
    outer loop
      vertex 25.75 -16.7678 45.7678
      vertex 25.75 -20 48
      vertex 25.75 -15 46.5
    endloop
  endfacet
  facet normal -1 0 0
    outer loop
      vertex 25.75 -17.5 44
      vertex 25.75 -20 48
      vertex 25.75 -16.7678 45.7678
    endloop
  endfacet
  facet normal 0 0 -1
    outer loop
      vertex 25.75 -20 40.25
      vertex 43.5 0 40.25
      vertex 43.5 -20 40.25
    endloop
  endfacet
  facet normal -0 0 -1
    outer loop
      vertex 43.5 0 40.25
      vertex 25.75 -20 40.25
      vertex 25.75 0 40.25
    endloop
  endfacet
  facet normal 0 0 -1
    outer loop
      vertex 13.5 -20 40.25
      vertex 21.25 0 40.25
      vertex 21.25 -20 40.25
    endloop
  endfacet
  facet normal -0 0 -1
    outer loop
      vertex 21.25 0 40.25
      vertex 13.5 -20 40.25
      vertex 13.5 0 40.25
    endloop
  endfacet
  facet normal 0 0.923883 0.382676
    outer loop
      vertex 36 -6.76777 42.2322
      vertex 25.75 -7.5 44
      vertex 36 -7.5 44
    endloop
  endfacet
  facet normal 0 0.923883 0.382676
    outer loop
      vertex 25.75 -7.5 44
      vertex 36 -6.76777 42.2322
      vertex 25.75 -6.76777 42.2322
    endloop
  endfacet
  facet normal 0 0.382668 -0.923886
    outer loop
      vertex 25.75 -6.76777 45.7678
      vertex 36 -5 46.5
      vertex 36 -6.76777 45.7678
    endloop
  endfacet
  facet normal 0 0.382668 -0.923886
    outer loop
      vertex 36 -5 46.5
      vertex 25.75 -6.76777 45.7678
      vertex 25.75 -5 46.5
    endloop
  endfacet
  facet normal 0 -0.382668 0.923886
    outer loop
      vertex 25.75 -3.23223 42.2322
      vertex 36 -5 41.5
      vertex 36 -3.23223 42.2322
    endloop
  endfacet
  facet normal 0 -0.382668 0.923886
    outer loop
      vertex 36 -5 41.5
      vertex 25.75 -3.23223 42.2322
      vertex 25.75 -5 41.5
    endloop
  endfacet
  facet normal 0 -0.382668 -0.923886
    outer loop
      vertex 25.75 -5 46.5
      vertex 36 -3.23223 45.7678
      vertex 36 -5 46.5
    endloop
  endfacet
  facet normal -0 -0.382668 -0.923886
    outer loop
      vertex 36 -3.23223 45.7678
      vertex 25.75 -5 46.5
      vertex 25.75 -3.23223 45.7678
    endloop
  endfacet
  facet normal -0 0.382668 0.923886
    outer loop
      vertex 25.75 -5 41.5
      vertex 36 -6.76777 42.2322
      vertex 36 -5 41.5
    endloop
  endfacet
  facet normal 0 0.382668 0.923886
    outer loop
      vertex 36 -6.76777 42.2322
      vertex 25.75 -5 41.5
      vertex 25.75 -6.76777 42.2322
    endloop
  endfacet
  facet normal -1 0 0
    outer loop
      vertex 36 -3.23223 42.2322
      vertex 36 -3.23223 45.7678
      vertex 36 -2.5 44
    endloop
  endfacet
  facet normal -1 0 0
    outer loop
      vertex 36 -5 41.5
      vertex 36 -3.23223 45.7678
      vertex 36 -3.23223 42.2322
    endloop
  endfacet
  facet normal -1 0 0
    outer loop
      vertex 36 -5 41.5
      vertex 36 -5 46.5
      vertex 36 -3.23223 45.7678
    endloop
  endfacet
  facet normal -1 0 0
    outer loop
      vertex 36 -6.76777 42.2322
      vertex 36 -5 46.5
      vertex 36 -5 41.5
    endloop
  endfacet
  facet normal -1 0 0
    outer loop
      vertex 36 -6.76777 42.2322
      vertex 36 -6.76777 45.7678
      vertex 36 -5 46.5
    endloop
  endfacet
  facet normal -1 0 -0
    outer loop
      vertex 36 -6.76777 45.7678
      vertex 36 -6.76777 42.2322
      vertex 36 -7.5 44
    endloop
  endfacet
  facet normal 0 0.923883 -0.382676
    outer loop
      vertex 36 -7.5 44
      vertex 25.75 -6.76777 45.7678
      vertex 36 -6.76777 45.7678
    endloop
  endfacet
  facet normal 0 0.923883 -0.382676
    outer loop
      vertex 25.75 -6.76777 45.7678
      vertex 36 -7.5 44
      vertex 25.75 -7.5 44
    endloop
  endfacet
  facet normal 0 -0.923883 -0.382676
    outer loop
      vertex 25.75 -2.5 44
      vertex 36 -3.23223 45.7678
      vertex 25.75 -3.23223 45.7678
    endloop
  endfacet
  facet normal 0 -0.923883 -0.382676
    outer loop
      vertex 36 -3.23223 45.7678
      vertex 25.75 -2.5 44
      vertex 36 -2.5 44
    endloop
  endfacet
  facet normal 0 -0.923883 0.382676
    outer loop
      vertex 25.75 -3.23223 42.2322
      vertex 36 -2.5 44
      vertex 25.75 -2.5 44
    endloop
  endfacet
  facet normal 0 -0.923883 0.382676
    outer loop
      vertex 36 -2.5 44
      vertex 25.75 -3.23223 42.2322
      vertex 36 -3.23223 42.2322
    endloop
  endfacet
  facet normal 0 0.923888 -0.382663
    outer loop
      vertex 36 -17.5 44
      vertex 25.75 -16.7678 45.7678
      vertex 36 -16.7678 45.7678
    endloop
  endfacet
  facet normal 0 0.923888 -0.382663
    outer loop
      vertex 25.75 -16.7678 45.7678
      vertex 36 -17.5 44
      vertex 25.75 -17.5 44
    endloop
  endfacet
  facet normal 0 0.923888 0.382663
    outer loop
      vertex 36 -16.7678 42.2322
      vertex 25.75 -17.5 44
      vertex 36 -17.5 44
    endloop
  endfacet
  facet normal 0 0.923888 0.382663
    outer loop
      vertex 25.75 -17.5 44
      vertex 36 -16.7678 42.2322
      vertex 25.75 -16.7678 42.2322
    endloop
  endfacet
  facet normal 0 0.382663 -0.923888
    outer loop
      vertex 25.75 -16.7678 45.7678
      vertex 36 -15 46.5
      vertex 36 -16.7678 45.7678
    endloop
  endfacet
  facet normal 0 0.382663 -0.923888
    outer loop
      vertex 36 -15 46.5
      vertex 25.75 -16.7678 45.7678
      vertex 25.75 -15 46.5
    endloop
  endfacet
  facet normal 0 -0.382663 0.923888
    outer loop
      vertex 25.75 -13.2322 42.2322
      vertex 36 -15 41.5
      vertex 36 -13.2322 42.2322
    endloop
  endfacet
  facet normal 0 -0.382663 0.923888
    outer loop
      vertex 36 -15 41.5
      vertex 25.75 -13.2322 42.2322
      vertex 25.75 -15 41.5
    endloop
  endfacet
  facet normal 0 -0.382663 -0.923888
    outer loop
      vertex 25.75 -15 46.5
      vertex 36 -13.2322 45.7678
      vertex 36 -15 46.5
    endloop
  endfacet
  facet normal -0 -0.382663 -0.923888
    outer loop
      vertex 36 -13.2322 45.7678
      vertex 25.75 -15 46.5
      vertex 25.75 -13.2322 45.7678
    endloop
  endfacet
  facet normal -0 0.382663 0.923888
    outer loop
      vertex 25.75 -15 41.5
      vertex 36 -16.7678 42.2322
      vertex 36 -15 41.5
    endloop
  endfacet
  facet normal 0 0.382663 0.923888
    outer loop
      vertex 36 -16.7678 42.2322
      vertex 25.75 -15 41.5
      vertex 25.75 -16.7678 42.2322
    endloop
  endfacet
  facet normal -1 0 0
    outer loop
      vertex 36 -13.2322 42.2322
      vertex 36 -13.2322 45.7678
      vertex 36 -12.5 44
    endloop
  endfacet
  facet normal -1 0 0
    outer loop
      vertex 36 -15 41.5
      vertex 36 -13.2322 45.7678
      vertex 36 -13.2322 42.2322
    endloop
  endfacet
  facet normal -1 0 0
    outer loop
      vertex 36 -15 41.5
      vertex 36 -15 46.5
      vertex 36 -13.2322 45.7678
    endloop
  endfacet
  facet normal -1 0 0
    outer loop
      vertex 36 -16.7678 42.2322
      vertex 36 -15 46.5
      vertex 36 -15 41.5
    endloop
  endfacet
  facet normal -1 0 0
    outer loop
      vertex 36 -16.7678 42.2322
      vertex 36 -16.7678 45.7678
      vertex 36 -15 46.5
    endloop
  endfacet
  facet normal -1 0 -0
    outer loop
      vertex 36 -16.7678 45.7678
      vertex 36 -16.7678 42.2322
      vertex 36 -17.5 44
    endloop
  endfacet
  facet normal 0 -0.923888 -0.382663
    outer loop
      vertex 25.75 -12.5 44
      vertex 36 -13.2322 45.7678
      vertex 25.75 -13.2322 45.7678
    endloop
  endfacet
  facet normal 0 -0.923888 -0.382663
    outer loop
      vertex 36 -13.2322 45.7678
      vertex 25.75 -12.5 44
      vertex 36 -12.5 44
    endloop
  endfacet
  facet normal 0 -0.923888 0.382663
    outer loop
      vertex 25.75 -13.2322 42.2322
      vertex 36 -12.5 44
      vertex 25.75 -12.5 44
    endloop
  endfacet
  facet normal 0 -0.923888 0.382663
    outer loop
      vertex 36 -12.5 44
      vertex 25.75 -13.2322 42.2322
      vertex 36 -13.2322 42.2322
    endloop
  endfacet
  facet normal -0 0.308992 0.951065
    outer loop
      vertex 13.5 -5 41
      vertex 21.25 -6.76336 41.5729
      vertex 21.25 -5 41
    endloop
  endfacet
  facet normal 0 0.308992 0.951065
    outer loop
      vertex 21.25 -6.76336 41.5729
      vertex 13.5 -5 41
      vertex 13.5 -6.76336 41.5729
    endloop
  endfacet
  facet normal 0 -0.809018 0.587784
    outer loop
      vertex 13.5 -3.23664 41.5729
      vertex 21.25 -2.14683 43.0729
      vertex 13.5 -2.14683 43.0729
    endloop
  endfacet
  facet normal 0 -0.809018 0.587784
    outer loop
      vertex 21.25 -2.14683 43.0729
      vertex 13.5 -3.23664 41.5729
      vertex 21.25 -3.23664 41.5729
    endloop
  endfacet
  facet normal 0 1 -0
    outer loop
      vertex 21.25 -7.85317 43.0729
      vertex 13.5 -7.85317 44.9271
      vertex 21.25 -7.85317 44.9271
    endloop
  endfacet
  facet normal 0 1 0
    outer loop
      vertex 13.5 -7.85317 44.9271
      vertex 21.25 -7.85317 43.0729
      vertex 13.5 -7.85317 43.0729
    endloop
  endfacet
  facet normal 0 0.308992 -0.951065
    outer loop
      vertex 13.5 -6.76336 46.4271
      vertex 21.25 -5 47
      vertex 21.25 -6.76336 46.4271
    endloop
  endfacet
  facet normal 0 0.308992 -0.951065
    outer loop
      vertex 21.25 -5 47
      vertex 13.5 -6.76336 46.4271
      vertex 13.5 -5 47
    endloop
  endfacet
  facet normal 0 -0.809018 -0.587784
    outer loop
      vertex 13.5 -2.14683 44.9271
      vertex 21.25 -3.23664 46.4271
      vertex 13.5 -3.23664 46.4271
    endloop
  endfacet
  facet normal 0 -0.809018 -0.587784
    outer loop
      vertex 21.25 -3.23664 46.4271
      vertex 13.5 -2.14683 44.9271
      vertex 21.25 -2.14683 44.9271
    endloop
  endfacet
  facet normal 0 0.809018 0.587784
    outer loop
      vertex 21.25 -6.76336 41.5729
      vertex 13.5 -7.85317 43.0729
      vertex 21.25 -7.85317 43.0729
    endloop
  endfacet
  facet normal 0 0.809018 0.587784
    outer loop
      vertex 13.5 -7.85317 43.0729
      vertex 21.25 -6.76336 41.5729
      vertex 13.5 -6.76336 41.5729
    endloop
  endfacet
  facet normal 0 -0.308992 -0.951065
    outer loop
      vertex 13.5 -5 47
      vertex 21.25 -3.23664 46.4271
      vertex 21.25 -5 47
    endloop
  endfacet
  facet normal -0 -0.308992 -0.951065
    outer loop
      vertex 21.25 -3.23664 46.4271
      vertex 13.5 -5 47
      vertex 13.5 -3.23664 46.4271
    endloop
  endfacet
  facet normal 0 0.809018 -0.587784
    outer loop
      vertex 21.25 -7.85317 44.9271
      vertex 13.5 -6.76336 46.4271
      vertex 21.25 -6.76336 46.4271
    endloop
  endfacet
  facet normal 0 0.809018 -0.587784
    outer loop
      vertex 13.5 -6.76336 46.4271
      vertex 21.25 -7.85317 44.9271
      vertex 13.5 -7.85317 44.9271
    endloop
  endfacet
  facet normal 0 -1 0
    outer loop
      vertex 13.5 -2.14683 43.0729
      vertex 21.25 -2.14683 44.9271
      vertex 13.5 -2.14683 44.9271
    endloop
  endfacet
  facet normal 0 -1 -0
    outer loop
      vertex 21.25 -2.14683 44.9271
      vertex 13.5 -2.14683 43.0729
      vertex 21.25 -2.14683 43.0729
    endloop
  endfacet
  facet normal 0 -0.308992 0.951065
    outer loop
      vertex 13.5 -3.23664 41.5729
      vertex 21.25 -5 41
      vertex 21.25 -3.23664 41.5729
    endloop
  endfacet
  facet normal 0 -0.308992 0.951065
    outer loop
      vertex 21.25 -5 41
      vertex 13.5 -3.23664 41.5729
      vertex 13.5 -5 41
    endloop
  endfacet
  facet normal 0 -1 0
    outer loop
      vertex 13.5 -12.1468 43.0729
      vertex 21.25 -12.1468 44.9271
      vertex 13.5 -12.1468 44.9271
    endloop
  endfacet
  facet normal 0 -1 -0
    outer loop
      vertex 21.25 -12.1468 44.9271
      vertex 13.5 -12.1468 43.0729
      vertex 21.25 -12.1468 43.0729
    endloop
  endfacet
  facet normal 0 1 -0
    outer loop
      vertex 21.25 -17.8532 43.0729
      vertex 13.5 -17.8532 44.9271
      vertex 21.25 -17.8532 44.9271
    endloop
  endfacet
  facet normal 0 1 0
    outer loop
      vertex 13.5 -17.8532 44.9271
      vertex 21.25 -17.8532 43.0729
      vertex 13.5 -17.8532 43.0729
    endloop
  endfacet
  facet normal 0 0.308986 -0.951067
    outer loop
      vertex 13.5 -16.7634 46.4271
      vertex 21.25 -15 47
      vertex 21.25 -16.7634 46.4271
    endloop
  endfacet
  facet normal 0 0.308986 -0.951067
    outer loop
      vertex 21.25 -15 47
      vertex 13.5 -16.7634 46.4271
      vertex 13.5 -15 47
    endloop
  endfacet
  facet normal -0 0.308986 0.951067
    outer loop
      vertex 13.5 -15 41
      vertex 21.25 -16.7634 41.5729
      vertex 21.25 -15 41
    endloop
  endfacet
  facet normal 0 0.308986 0.951067
    outer loop
      vertex 21.25 -16.7634 41.5729
      vertex 13.5 -15 41
      vertex 13.5 -16.7634 41.5729
    endloop
  endfacet
  facet normal 0 0.809021 0.58778
    outer loop
      vertex 21.25 -16.7634 41.5729
      vertex 13.5 -17.8532 43.0729
      vertex 21.25 -17.8532 43.0729
    endloop
  endfacet
  facet normal 0 0.809021 0.58778
    outer loop
      vertex 13.5 -17.8532 43.0729
      vertex 21.25 -16.7634 41.5729
      vertex 13.5 -16.7634 41.5729
    endloop
  endfacet
  facet normal 0 -0.308986 0.951067
    outer loop
      vertex 13.5 -13.2366 41.5729
      vertex 21.25 -15 41
      vertex 21.25 -13.2366 41.5729
    endloop
  endfacet
  facet normal 0 -0.308986 0.951067
    outer loop
      vertex 21.25 -15 41
      vertex 13.5 -13.2366 41.5729
      vertex 13.5 -15 41
    endloop
  endfacet
  facet normal 0 0.809021 -0.58778
    outer loop
      vertex 21.25 -17.8532 44.9271
      vertex 13.5 -16.7634 46.4271
      vertex 21.25 -16.7634 46.4271
    endloop
  endfacet
  facet normal 0 0.809021 -0.58778
    outer loop
      vertex 13.5 -16.7634 46.4271
      vertex 21.25 -17.8532 44.9271
      vertex 13.5 -17.8532 44.9271
    endloop
  endfacet
  facet normal 0 -0.809021 -0.58778
    outer loop
      vertex 13.5 -12.1468 44.9271
      vertex 21.25 -13.2366 46.4271
      vertex 13.5 -13.2366 46.4271
    endloop
  endfacet
  facet normal 0 -0.809021 -0.58778
    outer loop
      vertex 21.25 -13.2366 46.4271
      vertex 13.5 -12.1468 44.9271
      vertex 21.25 -12.1468 44.9271
    endloop
  endfacet
  facet normal 0 -0.809021 0.58778
    outer loop
      vertex 13.5 -13.2366 41.5729
      vertex 21.25 -12.1468 43.0729
      vertex 13.5 -12.1468 43.0729
    endloop
  endfacet
  facet normal 0 -0.809021 0.58778
    outer loop
      vertex 21.25 -12.1468 43.0729
      vertex 13.5 -13.2366 41.5729
      vertex 21.25 -13.2366 41.5729
    endloop
  endfacet
  facet normal 0 -0.308986 -0.951067
    outer loop
      vertex 13.5 -15 47
      vertex 21.25 -13.2366 46.4271
      vertex 21.25 -15 47
    endloop
  endfacet
  facet normal -0 -0.308986 -0.951067
    outer loop
      vertex 21.25 -13.2366 46.4271
      vertex 13.5 -15 47
      vertex 13.5 -13.2366 46.4271
    endloop
  endfacet
  facet normal -1 0 0
    outer loop
      vertex 13.5 -20 0
      vertex 13.5 -28 0
      vertex 13.5 -20 40.25
    endloop
  endfacet
  facet normal -1 0 0
    outer loop
      vertex 13.5 -2.14683 44.9271
      vertex 13.5 0 40.25
      vertex 13.5 -2.14683 43.0729
    endloop
  endfacet
  facet normal -1 0 0
    outer loop
      vertex 13.5 0 40.25
      vertex 13.5 -3.23664 41.5729
      vertex 13.5 -2.14683 43.0729
    endloop
  endfacet
  facet normal -1 0 0
    outer loop
      vertex 13.5 0 40.25
      vertex 13.5 -5 41
      vertex 13.5 -3.23664 41.5729
    endloop
  endfacet
  facet normal -1 0 0
    outer loop
      vertex 13.5 -7.85317 43.0729
      vertex 13.5 -12.1468 43.0729
      vertex 13.5 -7.85317 44.9271
    endloop
  endfacet
  facet normal -1 0 0
    outer loop
      vertex 13.5 -6.76336 41.5729
      vertex 13.5 -12.1468 43.0729
      vertex 13.5 -7.85317 43.0729
    endloop
  endfacet
  facet normal -1 0 0
    outer loop
      vertex 13.5 -13.2366 41.5729
      vertex 13.5 -6.76336 41.5729
      vertex 13.5 -5 41
    endloop
  endfacet
  facet normal -1 0 0
    outer loop
      vertex 13.5 -6.76336 41.5729
      vertex 13.5 -13.2366 41.5729
      vertex 13.5 -12.1468 43.0729
    endloop
  endfacet
  facet normal -1 0 0
    outer loop
      vertex 13.5 -15 41
      vertex 13.5 -5 41
      vertex 13.5 0 40.25
    endloop
  endfacet
  facet normal -1 0 0
    outer loop
      vertex 13.5 -5 41
      vertex 13.5 -15 41
      vertex 13.5 -13.2366 41.5729
    endloop
  endfacet
  facet normal -1 -0 0
    outer loop
      vertex 13.5 -17.8532 43.0729
      vertex 13.5 -20 40.25
      vertex 13.5 -17.8532 44.9271
    endloop
  endfacet
  facet normal -1 -0 0
    outer loop
      vertex 13.5 -16.7634 41.5729
      vertex 13.5 -20 40.25
      vertex 13.5 -17.8532 43.0729
    endloop
  endfacet
  facet normal -1 -0 0
    outer loop
      vertex 13.5 -15 41
      vertex 13.5 -20 40.25
      vertex 13.5 -16.7634 41.5729
    endloop
  endfacet
  facet normal -1 0 0
    outer loop
      vertex 13.5 -20 40.25
      vertex 13.5 -15 41
      vertex 13.5 0 40.25
    endloop
  endfacet
  facet normal -1 0 0
    outer loop
      vertex 13.5 0 40.25
      vertex 13.5 -2.14683 44.9271
      vertex 13.5 0 56
    endloop
  endfacet
  facet normal -1 0 0
    outer loop
      vertex 13.5 -3.23664 46.4271
      vertex 13.5 0 56
      vertex 13.5 -2.14683 44.9271
    endloop
  endfacet
  facet normal -1 0 0
    outer loop
      vertex 13.5 -5 47
      vertex 13.5 0 56
      vertex 13.5 -3.23664 46.4271
    endloop
  endfacet
  facet normal -1 0 0
    outer loop
      vertex 13.5 -6.76336 46.4271
      vertex 13.5 0 56
      vertex 13.5 -5 47
    endloop
  endfacet
  facet normal -1 0 0
    outer loop
      vertex 13.5 -13.2366 46.4271
      vertex 13.5 -6.76336 46.4271
      vertex 13.5 -7.85317 44.9271
    endloop
  endfacet
  facet normal -1 0 0
    outer loop
      vertex 13.5 -12.1468 44.9271
      vertex 13.5 -7.85317 44.9271
      vertex 13.5 -12.1468 43.0729
    endloop
  endfacet
  facet normal -1 0 0
    outer loop
      vertex 13.5 -13.2366 46.4271
      vertex 13.5 -7.85317 44.9271
      vertex 13.5 -12.1468 44.9271
    endloop
  endfacet
  facet normal -1 0 0
    outer loop
      vertex 13.5 -6.76336 46.4271
      vertex 13.5 -13.2366 46.4271
      vertex 13.5 0 56
    endloop
  endfacet
  facet normal -1 0 0
    outer loop
      vertex 13.5 -15 47
      vertex 13.5 0 56
      vertex 13.5 -13.2366 46.4271
    endloop
  endfacet
  facet normal -1 0 0
    outer loop
      vertex 13.5 -28 56
      vertex 13.5 -15 47
      vertex 13.5 -16.7634 46.4271
    endloop
  endfacet
  facet normal -1 0 0
    outer loop
      vertex 13.5 -15 47
      vertex 13.5 -28 56
      vertex 13.5 0 56
    endloop
  endfacet
  facet normal -1 0 0
    outer loop
      vertex 13.5 -17.8532 44.9271
      vertex 13.5 -28 56
      vertex 13.5 -16.7634 46.4271
    endloop
  endfacet
  facet normal -1 0 0
    outer loop
      vertex 13.5 -20 40.25
      vertex 13.5 -28 56
      vertex 13.5 -17.8532 44.9271
    endloop
  endfacet
  facet normal -1 0 0
    outer loop
      vertex 13.5 -28 56
      vertex 13.5 -20 40.25
      vertex 13.5 -28 0
    endloop
  endfacet
  facet normal 0 0 -1
    outer loop
      vertex 21.25 -20 -3
      vertex 29.4815 -42.2023 -3
      vertex 23.4711 -52.6126 -3
    endloop
  endfacet
  facet normal 0 0 -1
    outer loop
      vertex 29.4815 -42.2023 -3
      vertex 21.25 -20 -3
      vertex 25.75 -20 -3
    endloop
  endfacet
  facet normal 0 0 -1
    outer loop
      vertex 0 0 -3
      vertex 23.4711 -52.6126 -3
      vertex 19.7565 -64.0451 -3
    endloop
  endfacet
  facet normal 0 0 -1
    outer loop
      vertex 23.4711 -52.6126 -3
      vertex 0 0 -3
      vertex 21.25 -20 -3
    endloop
  endfacet
  facet normal 0 0 -1
    outer loop
      vertex 0 0 -3
      vertex 19.7565 -64.0451 -3
      vertex 18.5 -76 -3
    endloop
  endfacet
  facet normal 0 0 -1
    outer loop
      vertex 0 0 -3
      vertex 18.5 -76 -3
      vertex 0 -152 -3
    endloop
  endfacet
  facet normal 0 0 -1
    outer loop
      vertex 21.25 -20 -3
      vertex 0 0 -3
      vertex 21.25 0 -3
    endloop
  endfacet
  facet normal 0 0 -1
    outer loop
      vertex 128.529 -99.3874 -3
      vertex 152 -107.609 -3
      vertex 151.367 -109.556 -3
    endloop
  endfacet
  facet normal 0 0 -1
    outer loop
      vertex 152 -107.609 -3
      vertex 133.5 -76 -3
      vertex 152 -44.3909 -3
    endloop
  endfacet
  facet normal 0 0 -1
    outer loop
      vertex 128.529 -99.3874 -3
      vertex 151.367 -109.556 -3
      vertex 142.744 -124.492 -3
    endloop
  endfacet
  facet normal 0 0 -1
    outer loop
      vertex 132.243 -64.0451 -3
      vertex 152 -44.3909 -3
      vertex 133.5 -76 -3
    endloop
  endfacet
  facet normal 0 0 -1
    outer loop
      vertex 128.529 -52.6126 -3
      vertex 152 -44.3909 -3
      vertex 132.243 -64.0451 -3
    endloop
  endfacet
  facet normal 0 0 -1
    outer loop
      vertex 152 -107.609 -3
      vertex 132.243 -87.9549 -3
      vertex 133.5 -76 -3
    endloop
  endfacet
  facet normal 0 0 -1
    outer loop
      vertex 122.518 -109.798 -3
      vertex 142.744 -124.492 -3
      vertex 131.203 -137.309 -3
    endloop
  endfacet
  facet normal 0 0 -1
    outer loop
      vertex 152 -107.609 -3
      vertex 128.529 -99.3874 -3
      vertex 132.243 -87.9549 -3
    endloop
  endfacet
  facet normal 0 0 -1
    outer loop
      vertex 142.744 -124.492 -3
      vertex 122.518 -109.798 -3
      vertex 128.529 -99.3874 -3
    endloop
  endfacet
  facet normal 0 0 -1
    outer loop
      vertex 114.475 -118.731 -3
      vertex 131.203 -137.309 -3
      vertex 117.25 -147.447 -3
    endloop
  endfacet
  facet normal 0 0 -1
    outer loop
      vertex 131.203 -137.309 -3
      vertex 114.475 -118.731 -3
      vertex 122.518 -109.798 -3
    endloop
  endfacet
  facet normal 0 0 -1
    outer loop
      vertex 104.75 -125.796 -3
      vertex 117.25 -147.447 -3
      vertex 107.024 -152 -3
    endloop
  endfacet
  facet normal 0 0 -1
    outer loop
      vertex 117.25 -147.447 -3
      vertex 104.75 -125.796 -3
      vertex 114.475 -118.731 -3
    endloop
  endfacet
  facet normal 0 0 -1
    outer loop
      vertex 107.024 -152 -3
      vertex 93.7685 -130.686 -3
      vertex 104.75 -125.796 -3
    endloop
  endfacet
  facet normal 0 0 -1
    outer loop
      vertex 107.024 -152 -3
      vertex 82.0104 -133.185 -3
      vertex 93.7685 -130.686 -3
    endloop
  endfacet
  facet normal 0 0 -1
    outer loop
      vertex 107.024 -152 -3
      vertex 69.9896 -133.185 -3
      vertex 82.0104 -133.185 -3
    endloop
  endfacet
  facet normal 0 0 -1
    outer loop
      vertex 0 -152 -3
      vertex 69.9896 -133.185 -3
      vertex 107.024 -152 -3
    endloop
  endfacet
  facet normal -0 0 -1
    outer loop
      vertex 19.7565 -87.9549 -3
      vertex 0 -152 -3
      vertex 18.5 -76 -3
    endloop
  endfacet
  facet normal -0 0 -1
    outer loop
      vertex 23.4711 -99.3874 -3
      vertex 0 -152 -3
      vertex 19.7565 -87.9549 -3
    endloop
  endfacet
  facet normal -0 0 -1
    outer loop
      vertex 29.4815 -109.798 -3
      vertex 0 -152 -3
      vertex 23.4711 -99.3874 -3
    endloop
  endfacet
  facet normal -0 0 -1
    outer loop
      vertex 37.525 -118.731 -3
      vertex 0 -152 -3
      vertex 29.4815 -109.798 -3
    endloop
  endfacet
  facet normal -0 0 -1
    outer loop
      vertex 47.25 -125.796 -3
      vertex 0 -152 -3
      vertex 37.525 -118.731 -3
    endloop
  endfacet
  facet normal -0 0 -1
    outer loop
      vertex 58.2315 -130.686 -3
      vertex 0 -152 -3
      vertex 47.25 -125.796 -3
    endloop
  endfacet
  facet normal -0 0 -1
    outer loop
      vertex 69.9896 -133.185 -3
      vertex 0 -152 -3
      vertex 58.2315 -130.686 -3
    endloop
  endfacet
  facet normal -0 0 -1
    outer loop
      vertex 152 -44.3909 -3
      vertex 128.529 -52.6126 -3
      vertex 151.367 -42.4442 -3
    endloop
  endfacet
  facet normal -0 0 -1
    outer loop
      vertex 151.367 -42.4442 -3
      vertex 128.529 -52.6126 -3
      vertex 142.744 -27.5077 -3
    endloop
  endfacet
  facet normal 0 0 -1
    outer loop
      vertex 122.518 -42.2023 -3
      vertex 142.744 -27.5077 -3
      vertex 128.529 -52.6126 -3
    endloop
  endfacet
  facet normal -0 0 -1
    outer loop
      vertex 142.744 -27.5077 -3
      vertex 122.518 -42.2023 -3
      vertex 131.203 -14.6906 -3
    endloop
  endfacet
  facet normal 0 0 -1
    outer loop
      vertex 114.475 -33.2692 -3
      vertex 131.203 -14.6906 -3
      vertex 122.518 -42.2023 -3
    endloop
  endfacet
  facet normal -0 0 -1
    outer loop
      vertex 131.203 -14.6906 -3
      vertex 114.475 -33.2692 -3
      vertex 117.25 -4.55291 -3
    endloop
  endfacet
  facet normal 0 0 -1
    outer loop
      vertex 104.75 -26.2035 -3
      vertex 117.25 -4.55291 -3
      vertex 114.475 -33.2692 -3
    endloop
  endfacet
  facet normal -0 0 -1
    outer loop
      vertex 117.25 -4.55291 -3
      vertex 104.75 -26.2035 -3
      vertex 107.024 0 -3
    endloop
  endfacet
  facet normal 0 0 -1
    outer loop
      vertex 93.7685 -21.3143 -3
      vertex 107.024 0 -3
      vertex 104.75 -26.2035 -3
    endloop
  endfacet
  facet normal 0 0 -1
    outer loop
      vertex 82.0104 -18.815 -3
      vertex 107.024 0 -3
      vertex 93.7685 -21.3143 -3
    endloop
  endfacet
  facet normal 0 0 -1
    outer loop
      vertex 69.9896 -18.815 -3
      vertex 107.024 0 -3
      vertex 82.0104 -18.815 -3
    endloop
  endfacet
  facet normal 0 0 -1
    outer loop
      vertex 25.75 0 -3
      vertex 69.9896 -18.815 -3
      vertex 58.2315 -21.3143 -3
    endloop
  endfacet
  facet normal 0 0 -1
    outer loop
      vertex 25.75 -20 -3
      vertex 37.525 -33.2692 -3
      vertex 29.4815 -42.2023 -3
    endloop
  endfacet
  facet normal 0 0 -1
    outer loop
      vertex 25.75 -20 -3
      vertex 47.25 -26.2035 -3
      vertex 37.525 -33.2692 -3
    endloop
  endfacet
  facet normal 0 0 -1
    outer loop
      vertex 25.75 0 -3
      vertex 47.25 -26.2035 -3
      vertex 25.75 -20 -3
    endloop
  endfacet
  facet normal 0 0 -1
    outer loop
      vertex 47.25 -26.2035 -3
      vertex 25.75 0 -3
      vertex 58.2315 -21.3143 -3
    endloop
  endfacet
  facet normal 0 0 -1
    outer loop
      vertex 69.9896 -18.815 -3
      vertex 25.75 0 -3
      vertex 107.024 0 -3
    endloop
  endfacet
  facet normal -0 0 1
    outer loop
      vertex 13.5 0 56
      vertex 43.5 -28 56
      vertex 43.5 0 56
    endloop
  endfacet
  facet normal 0 0 1
    outer loop
      vertex 43.5 -28 56
      vertex 13.5 0 56
      vertex 13.5 -28 56
    endloop
  endfacet
  facet normal 1 0 0
    outer loop
      vertex 43.5 0 56
      vertex 43.5 -20 40.25
      vertex 43.5 0 40.25
    endloop
  endfacet
  facet normal 1 -0 0
    outer loop
      vertex 43.5 -28 56
      vertex 43.5 -20 40.25
      vertex 43.5 0 56
    endloop
  endfacet
  facet normal 1 0 0
    outer loop
      vertex 43.5 -28 0
      vertex 43.5 -20 40.25
      vertex 43.5 -28 56
    endloop
  endfacet
  facet normal 1 0 0
    outer loop
      vertex 43.5 -20 40.25
      vertex 43.5 -28 0
      vertex 43.5 -20 0
    endloop
  endfacet
  facet normal 0 -1 0
    outer loop
      vertex 13.5 -28 0
      vertex 43.5 -28 56
      vertex 13.5 -28 56
    endloop
  endfacet
  facet normal 0 -1 -0
    outer loop
      vertex 43.5 -28 56
      vertex 13.5 -28 0
      vertex 43.5 -28 0
    endloop
  endfacet
  facet normal 0 1 0
    outer loop
      vertex 107.024 0 0
      vertex 55 0 -0.25
      vertex 55 0 0
    endloop
  endfacet
  facet normal 0 1 -0
    outer loop
      vertex 107.024 0 -3
      vertex 55 0 -0.25
      vertex 107.024 0 0
    endloop
  endfacet
  facet normal 0 1 0
    outer loop
      vertex 25.75 0 -3
      vertex 55 0 -0.25
      vertex 107.024 0 -3
    endloop
  endfacet
  facet normal 0 1 0
    outer loop
      vertex 55 0 -0.25
      vertex 25.75 0 -3
      vertex 25.75 0 -0.25
    endloop
  endfacet
  facet normal 0 1 0
    outer loop
      vertex 21.25 0 -0.25
      vertex 21.25 0 -3
      vertex 13 0 -0.25
    endloop
  endfacet
  facet normal 0 1 -0
    outer loop
      vertex 13 0 -0.25
      vertex 0 0 0
      vertex 13 0 0
    endloop
  endfacet
  facet normal 0 1 0
    outer loop
      vertex 0 0 -3
      vertex 13 0 -0.25
      vertex 21.25 0 -3
    endloop
  endfacet
  facet normal 0 1 0
    outer loop
      vertex 13 0 -0.25
      vertex 0 0 -3
      vertex 0 0 0
    endloop
  endfacet
  facet normal 0 1 0
    outer loop
      vertex 43.5 0 56
      vertex 25.75 0 48
      vertex 13.5 0 56
    endloop
  endfacet
  facet normal 0 1 -0
    outer loop
      vertex 43.5 0 40.25
      vertex 25.75 0 48
      vertex 43.5 0 56
    endloop
  endfacet
  facet normal 0 1 0
    outer loop
      vertex 25.75 0 48
      vertex 43.5 0 40.25
      vertex 25.75 0 40.25
    endloop
  endfacet
  facet normal 0 1 -0
    outer loop
      vertex 21.25 0 48
      vertex 13.5 0 56
      vertex 25.75 0 48
    endloop
  endfacet
  facet normal 0 1 0
    outer loop
      vertex 13.5 0 40.25
      vertex 21.25 0 48
      vertex 21.25 0 40.25
    endloop
  endfacet
  facet normal 0 1 0
    outer loop
      vertex 21.25 0 48
      vertex 13.5 0 40.25
      vertex 13.5 0 56
    endloop
  endfacet
  facet normal -0.994518 0.104569 0
    outer loop
      vertex 132.243 -87.9549 -3
      vertex 133.5 -76 0
      vertex 133.5 -76 -3
    endloop
  endfacet
  facet normal -0.994518 0.104569 0
    outer loop
      vertex 133.5 -76 0
      vertex 132.243 -87.9549 -3
      vertex 132.243 -87.9549 0
    endloop
  endfacet
  facet normal 0.743141 -0.669135 0
    outer loop
      vertex 29.4815 -42.2023 0
      vertex 37.525 -33.2692 -3
      vertex 37.525 -33.2692 0
    endloop
  endfacet
  facet normal 0.743141 -0.669135 0
    outer loop
      vertex 37.525 -33.2692 -3
      vertex 29.4815 -42.2023 0
      vertex 29.4815 -42.2023 -3
    endloop
  endfacet
  facet normal -0.207891 0.978152 0
    outer loop
      vertex 93.7685 -130.686 -3
      vertex 82.0104 -133.185 0
      vertex 93.7685 -130.686 0
    endloop
  endfacet
  facet normal -0.207891 0.978152 0
    outer loop
      vertex 82.0104 -133.185 0
      vertex 93.7685 -130.686 -3
      vertex 82.0104 -133.185 -3
    endloop
  endfacet
  facet normal -0.951072 0.308969 0
    outer loop
      vertex 128.529 -99.3874 -3
      vertex 132.243 -87.9549 0
      vertex 132.243 -87.9549 -3
    endloop
  endfacet
  facet normal -0.951072 0.308969 0
    outer loop
      vertex 132.243 -87.9549 0
      vertex 128.529 -99.3874 -3
      vertex 128.529 -99.3874 0
    endloop
  endfacet
  facet normal 0.207915 -0.978147 0
    outer loop
      vertex 58.2315 -21.3143 -3
      vertex 69.9896 -18.815 0
      vertex 58.2315 -21.3143 0
    endloop
  endfacet
  facet normal 0.207915 -0.978147 0
    outer loop
      vertex 69.9896 -18.815 0
      vertex 58.2315 -21.3143 -3
      vertex 69.9896 -18.815 -3
    endloop
  endfacet
  facet normal 0.743137 0.669139 0
    outer loop
      vertex 37.525 -118.731 0
      vertex 29.4815 -109.798 -3
      vertex 29.4815 -109.798 0
    endloop
  endfacet
  facet normal 0.743137 0.669139 0
    outer loop
      vertex 29.4815 -109.798 -3
      vertex 37.525 -118.731 0
      vertex 37.525 -118.731 -3
    endloop
  endfacet
  facet normal 0 1 -0
    outer loop
      vertex 82.0104 -133.185 -3
      vertex 69.9896 -133.185 0
      vertex 82.0104 -133.185 0
    endloop
  endfacet
  facet normal 0 1 0
    outer loop
      vertex 69.9896 -133.185 0
      vertex 82.0104 -133.185 -3
      vertex 69.9896 -133.185 -3
    endloop
  endfacet
  facet normal -0.743161 -0.669112 0
    outer loop
      vertex 122.518 -42.2023 -3
      vertex 114.475 -33.2692 0
      vertex 114.475 -33.2692 -3
    endloop
  endfacet
  facet normal -0.743161 -0.669112 0
    outer loop
      vertex 114.475 -33.2692 0
      vertex 122.518 -42.2023 -3
      vertex 122.518 -42.2023 0
    endloop
  endfacet
  facet normal 0.406731 -0.913548 0
    outer loop
      vertex 47.25 -26.2035 -3
      vertex 58.2315 -21.3143 0
      vertex 47.25 -26.2035 0
    endloop
  endfacet
  facet normal 0.406731 -0.913548 0
    outer loop
      vertex 58.2315 -21.3143 0
      vertex 47.25 -26.2035 -3
      vertex 58.2315 -21.3143 -3
    endloop
  endfacet
  facet normal -0.406731 -0.913548 0
    outer loop
      vertex 93.7685 -21.3143 -3
      vertex 104.75 -26.2035 0
      vertex 93.7685 -21.3143 0
    endloop
  endfacet
  facet normal -0.406731 -0.913548 -0
    outer loop
      vertex 104.75 -26.2035 0
      vertex 93.7685 -21.3143 -3
      vertex 104.75 -26.2035 -3
    endloop
  endfacet
  facet normal 0.207891 0.978152 -0
    outer loop
      vertex 69.9896 -133.185 -3
      vertex 58.2315 -130.686 0
      vertex 69.9896 -133.185 0
    endloop
  endfacet
  facet normal 0.207891 0.978152 0
    outer loop
      vertex 58.2315 -130.686 0
      vertex 69.9896 -133.185 -3
      vertex 58.2315 -130.686 -3
    endloop
  endfacet
  facet normal -0.406787 0.913523 0
    outer loop
      vertex 104.75 -125.796 -3
      vertex 93.7685 -130.686 0
      vertex 104.75 -125.796 0
    endloop
  endfacet
  facet normal -0.406787 0.913523 0
    outer loop
      vertex 93.7685 -130.686 0
      vertex 104.75 -125.796 -3
      vertex 93.7685 -130.686 -3
    endloop
  endfacet
  facet normal 0.587789 -0.809014 0
    outer loop
      vertex 37.525 -33.2692 -3
      vertex 47.25 -26.2035 0
      vertex 37.525 -33.2692 0
    endloop
  endfacet
  facet normal 0.587789 -0.809014 0
    outer loop
      vertex 47.25 -26.2035 0
      vertex 37.525 -33.2692 -3
      vertex 47.25 -26.2035 -3
    endloop
  endfacet
  facet normal -0.86601 0.500027 0
    outer loop
      vertex 122.518 -109.798 -3
      vertex 128.529 -99.3874 0
      vertex 128.529 -99.3874 -3
    endloop
  endfacet
  facet normal -0.86601 0.500027 0
    outer loop
      vertex 128.529 -99.3874 0
      vertex 122.518 -109.798 -3
      vertex 122.518 -109.798 0
    endloop
  endfacet
  facet normal 0.994522 -0.104528 0
    outer loop
      vertex 18.5 -76 0
      vertex 19.7565 -64.0451 -3
      vertex 19.7565 -64.0451 0
    endloop
  endfacet
  facet normal 0.994522 -0.104528 0
    outer loop
      vertex 19.7565 -64.0451 -3
      vertex 18.5 -76 0
      vertex 18.5 -76 -3
    endloop
  endfacet
  facet normal -0.207915 -0.978147 0
    outer loop
      vertex 82.0104 -18.815 -3
      vertex 93.7685 -21.3143 0
      vertex 82.0104 -18.815 0
    endloop
  endfacet
  facet normal -0.207915 -0.978147 -0
    outer loop
      vertex 93.7685 -21.3143 0
      vertex 82.0104 -18.815 -3
      vertex 93.7685 -21.3143 -3
    endloop
  endfacet
  facet normal 0 -1 0
    outer loop
      vertex 69.9896 -18.815 -3
      vertex 82.0104 -18.815 0
      vertex 69.9896 -18.815 0
    endloop
  endfacet
  facet normal 0 -1 -0
    outer loop
      vertex 82.0104 -18.815 0
      vertex 69.9896 -18.815 -3
      vertex 82.0104 -18.815 -3
    endloop
  endfacet
  facet normal -0.587789 -0.809014 0
    outer loop
      vertex 104.75 -26.2035 -3
      vertex 114.475 -33.2692 0
      vertex 104.75 -26.2035 0
    endloop
  endfacet
  facet normal -0.587789 -0.809014 -0
    outer loop
      vertex 114.475 -33.2692 0
      vertex 104.75 -26.2035 -3
      vertex 114.475 -33.2692 -3
    endloop
  endfacet
  facet normal -0.951072 -0.308969 0
    outer loop
      vertex 132.243 -64.0451 -3
      vertex 128.529 -52.6126 0
      vertex 128.529 -52.6126 -3
    endloop
  endfacet
  facet normal -0.951072 -0.308969 0
    outer loop
      vertex 128.529 -52.6126 0
      vertex 132.243 -64.0451 -3
      vertex 132.243 -64.0451 0
    endloop
  endfacet
  facet normal 0.587751 0.809042 -0
    outer loop
      vertex 47.25 -125.796 -3
      vertex 37.525 -118.731 0
      vertex 47.25 -125.796 0
    endloop
  endfacet
  facet normal 0.587751 0.809042 0
    outer loop
      vertex 37.525 -118.731 0
      vertex 47.25 -125.796 -3
      vertex 37.525 -118.731 -3
    endloop
  endfacet
  facet normal -0.587751 0.809042 0
    outer loop
      vertex 114.475 -118.731 -3
      vertex 104.75 -125.796 0
      vertex 114.475 -118.731 0
    endloop
  endfacet
  facet normal -0.587751 0.809042 0
    outer loop
      vertex 104.75 -125.796 0
      vertex 114.475 -118.731 -3
      vertex 104.75 -125.796 -3
    endloop
  endfacet
  facet normal -0.743158 0.669116 0
    outer loop
      vertex 114.475 -118.731 -3
      vertex 122.518 -109.798 0
      vertex 122.518 -109.798 -3
    endloop
  endfacet
  facet normal -0.743158 0.669116 0
    outer loop
      vertex 122.518 -109.798 0
      vertex 114.475 -118.731 -3
      vertex 114.475 -118.731 0
    endloop
  endfacet
  facet normal 0.406787 0.913523 -0
    outer loop
      vertex 58.2315 -130.686 -3
      vertex 47.25 -125.796 0
      vertex 58.2315 -130.686 0
    endloop
  endfacet
  facet normal 0.406787 0.913523 0
    outer loop
      vertex 47.25 -125.796 0
      vertex 58.2315 -130.686 -3
      vertex 47.25 -125.796 -3
    endloop
  endfacet
  facet normal -0.994518 -0.104569 0
    outer loop
      vertex 133.5 -76 -3
      vertex 132.243 -64.0451 0
      vertex 132.243 -64.0451 -3
    endloop
  endfacet
  facet normal -0.994518 -0.104569 0
    outer loop
      vertex 132.243 -64.0451 0
      vertex 133.5 -76 -3
      vertex 133.5 -76 0
    endloop
  endfacet
  facet normal 0.866031 0.49999 0
    outer loop
      vertex 29.4815 -109.798 0
      vertex 23.4711 -99.3874 -3
      vertex 23.4711 -99.3874 0
    endloop
  endfacet
  facet normal 0.866031 0.49999 0
    outer loop
      vertex 23.4711 -99.3874 -3
      vertex 29.4815 -109.798 0
      vertex 29.4815 -109.798 -3
    endloop
  endfacet
  facet normal 0.866025 -0.500001 0
    outer loop
      vertex 23.4711 -52.6126 0
      vertex 29.4815 -42.2023 -3
      vertex 29.4815 -42.2023 0
    endloop
  endfacet
  facet normal 0.866025 -0.500001 0
    outer loop
      vertex 29.4815 -42.2023 -3
      vertex 23.4711 -52.6126 0
      vertex 23.4711 -52.6126 -3
    endloop
  endfacet
  facet normal 0.951058 -0.309014 0
    outer loop
      vertex 19.7565 -64.0451 0
      vertex 23.4711 -52.6126 -3
      vertex 23.4711 -52.6126 0
    endloop
  endfacet
  facet normal 0.951058 -0.309014 0
    outer loop
      vertex 23.4711 -52.6126 -3
      vertex 19.7565 -64.0451 0
      vertex 19.7565 -64.0451 -3
    endloop
  endfacet
  facet normal 0.951058 0.309014 0
    outer loop
      vertex 23.4711 -99.3874 0
      vertex 19.7565 -87.9549 -3
      vertex 19.7565 -87.9549 0
    endloop
  endfacet
  facet normal 0.951058 0.309014 0
    outer loop
      vertex 19.7565 -87.9549 -3
      vertex 23.4711 -99.3874 0
      vertex 23.4711 -99.3874 -3
    endloop
  endfacet
  facet normal -0.866003 -0.500038 0
    outer loop
      vertex 128.529 -52.6126 -3
      vertex 122.518 -42.2023 0
      vertex 122.518 -42.2023 -3
    endloop
  endfacet
  facet normal -0.866003 -0.500038 0
    outer loop
      vertex 122.518 -42.2023 0
      vertex 128.529 -52.6126 -3
      vertex 128.529 -52.6126 0
    endloop
  endfacet
  facet normal 0.994522 0.104528 0
    outer loop
      vertex 19.7565 -87.9549 0
      vertex 18.5 -76 -3
      vertex 18.5 -76 0
    endloop
  endfacet
  facet normal 0.994522 0.104528 0
    outer loop
      vertex 18.5 -76 -3
      vertex 19.7565 -87.9549 0
      vertex 19.7565 -87.9549 -3
    endloop
  endfacet
  facet normal 1 -0 0
    outer loop
      vertex 152 -107.609 0
      vertex 152 -44.3909 -3
      vertex 152 -44.3909 0
    endloop
  endfacet
  facet normal 1 0 0
    outer loop
      vertex 152 -44.3909 -3
      vertex 152 -107.609 0
      vertex 152 -107.609 -3
    endloop
  endfacet
  facet normal 0 0 1
    outer loop
      vertex 13 0 0
      vertex 0 0 0
      vertex 13 -20 0
    endloop
  endfacet
  facet normal 0 0 1
    outer loop
      vertex 13.5 -20 0
      vertex 13 -20 0
      vertex 13.5 -28 0
    endloop
  endfacet
  facet normal 0 0 1
    outer loop
      vertex 128.529 -52.6126 0
      vertex 152 -44.3909 0
      vertex 151.367 -42.4442 0
    endloop
  endfacet
  facet normal 0 0 1
    outer loop
      vertex 152 -44.3909 0
      vertex 133.5 -76 0
      vertex 152 -107.609 0
    endloop
  endfacet
  facet normal 0 0 1
    outer loop
      vertex 128.529 -52.6126 0
      vertex 151.367 -42.4442 0
      vertex 142.744 -27.5077 0
    endloop
  endfacet
  facet normal -0 0 1
    outer loop
      vertex 132.243 -87.9549 0
      vertex 152 -107.609 0
      vertex 133.5 -76 0
    endloop
  endfacet
  facet normal -0 0 1
    outer loop
      vertex 128.529 -99.3874 0
      vertex 152 -107.609 0
      vertex 132.243 -87.9549 0
    endloop
  endfacet
  facet normal 0 0 1
    outer loop
      vertex 152 -44.3909 0
      vertex 132.243 -64.0451 0
      vertex 133.5 -76 0
    endloop
  endfacet
  facet normal 0 0 1
    outer loop
      vertex 122.518 -42.2023 0
      vertex 142.744 -27.5077 0
      vertex 131.203 -14.6906 0
    endloop
  endfacet
  facet normal 0 0 1
    outer loop
      vertex 152 -44.3909 0
      vertex 128.529 -52.6126 0
      vertex 132.243 -64.0451 0
    endloop
  endfacet
  facet normal 0 0 1
    outer loop
      vertex 142.744 -27.5077 0
      vertex 122.518 -42.2023 0
      vertex 128.529 -52.6126 0
    endloop
  endfacet
  facet normal 0 0 1
    outer loop
      vertex 114.475 -33.2692 0
      vertex 131.203 -14.6906 0
      vertex 117.25 -4.55291 0
    endloop
  endfacet
  facet normal 0 0 1
    outer loop
      vertex 131.203 -14.6906 0
      vertex 114.475 -33.2692 0
      vertex 122.518 -42.2023 0
    endloop
  endfacet
  facet normal 0 0 1
    outer loop
      vertex 104.75 -26.2035 0
      vertex 117.25 -4.55291 0
      vertex 107.024 0 0
    endloop
  endfacet
  facet normal 0 0 1
    outer loop
      vertex 117.25 -4.55291 0
      vertex 104.75 -26.2035 0
      vertex 114.475 -33.2692 0
    endloop
  endfacet
  facet normal 0 0 1
    outer loop
      vertex 107.024 0 0
      vertex 93.7685 -21.3143 0
      vertex 104.75 -26.2035 0
    endloop
  endfacet
  facet normal 0 0 1
    outer loop
      vertex 107.024 0 0
      vertex 82.0104 -18.815 0
      vertex 93.7685 -21.3143 0
    endloop
  endfacet
  facet normal -0 0 1
    outer loop
      vertex 55 0 0
      vertex 82.0104 -18.815 0
      vertex 107.024 0 0
    endloop
  endfacet
  facet normal 0 0 1
    outer loop
      vertex 82.0104 -18.815 0
      vertex 55 0 0
      vertex 69.9896 -18.815 0
    endloop
  endfacet
  facet normal 0 0 1
    outer loop
      vertex 69.9896 -18.815 0
      vertex 55 0 0
      vertex 58.2315 -21.3143 0
    endloop
  endfacet
  facet normal -0 0 1
    outer loop
      vertex 55 -20 0
      vertex 58.2315 -21.3143 0
      vertex 55 0 0
    endloop
  endfacet
  facet normal 0 0 1
    outer loop
      vertex 55 -20 0
      vertex 47.25 -26.2035 0
      vertex 58.2315 -21.3143 0
    endloop
  endfacet
  facet normal -0 0 1
    outer loop
      vertex 43.5 -20 0
      vertex 47.25 -26.2035 0
      vertex 55 -20 0
    endloop
  endfacet
  facet normal 0 0 1
    outer loop
      vertex 43.5 -28 0
      vertex 47.25 -26.2035 0
      vertex 43.5 -20 0
    endloop
  endfacet
  facet normal -0 0 1
    outer loop
      vertex 43.5 -28 0
      vertex 37.525 -33.2692 0
      vertex 47.25 -26.2035 0
    endloop
  endfacet
  facet normal 0 0 1
    outer loop
      vertex 19.7565 -64.0451 0
      vertex 13.5 -28 0
      vertex 18.5 -76 0
    endloop
  endfacet
  facet normal 0 0 1
    outer loop
      vertex 23.4711 -52.6126 0
      vertex 13.5 -28 0
      vertex 19.7565 -64.0451 0
    endloop
  endfacet
  facet normal 0 0 1
    outer loop
      vertex 29.4815 -42.2023 0
      vertex 13.5 -28 0
      vertex 23.4711 -52.6126 0
    endloop
  endfacet
  facet normal 0 0 1
    outer loop
      vertex 37.525 -33.2692 0
      vertex 13.5 -28 0
      vertex 29.4815 -42.2023 0
    endloop
  endfacet
  facet normal -0 0 1
    outer loop
      vertex 13.5 -28 0
      vertex 37.525 -33.2692 0
      vertex 43.5 -28 0
    endloop
  endfacet
  facet normal 0 0 1
    outer loop
      vertex 152 -107.609 0
      vertex 128.529 -99.3874 0
      vertex 151.367 -109.556 0
    endloop
  endfacet
  facet normal 0 0 1
    outer loop
      vertex 151.367 -109.556 0
      vertex 128.529 -99.3874 0
      vertex 142.744 -124.492 0
    endloop
  endfacet
  facet normal -0 0 1
    outer loop
      vertex 122.518 -109.798 0
      vertex 142.744 -124.492 0
      vertex 128.529 -99.3874 0
    endloop
  endfacet
  facet normal 0 0 1
    outer loop
      vertex 142.744 -124.492 0
      vertex 122.518 -109.798 0
      vertex 131.203 -137.309 0
    endloop
  endfacet
  facet normal -0 0 1
    outer loop
      vertex 114.475 -118.731 0
      vertex 131.203 -137.309 0
      vertex 122.518 -109.798 0
    endloop
  endfacet
  facet normal 0 0 1
    outer loop
      vertex 131.203 -137.309 0
      vertex 114.475 -118.731 0
      vertex 117.25 -147.447 0
    endloop
  endfacet
  facet normal -0 0 1
    outer loop
      vertex 104.75 -125.796 0
      vertex 117.25 -147.447 0
      vertex 114.475 -118.731 0
    endloop
  endfacet
  facet normal 0 0 1
    outer loop
      vertex 117.25 -147.447 0
      vertex 104.75 -125.796 0
      vertex 107.024 -152 0
    endloop
  endfacet
  facet normal -0 0 1
    outer loop
      vertex 93.7685 -130.686 0
      vertex 107.024 -152 0
      vertex 104.75 -125.796 0
    endloop
  endfacet
  facet normal -0 0 1
    outer loop
      vertex 82.0104 -133.185 0
      vertex 107.024 -152 0
      vertex 93.7685 -130.686 0
    endloop
  endfacet
  facet normal -0 0 1
    outer loop
      vertex 69.9896 -133.185 0
      vertex 107.024 -152 0
      vertex 82.0104 -133.185 0
    endloop
  endfacet
  facet normal 0 0 1
    outer loop
      vertex 0 -152 0
      vertex 69.9896 -133.185 0
      vertex 58.2315 -130.686 0
    endloop
  endfacet
  facet normal 0 0 1
    outer loop
      vertex 0 0 0
      vertex 13.5 -28 0
      vertex 13 -20 0
    endloop
  endfacet
  facet normal 0 0 1
    outer loop
      vertex 0 0 0
      vertex 18.5 -76 0
      vertex 13.5 -28 0
    endloop
  endfacet
  facet normal 0 0 1
    outer loop
      vertex 0 -152 0
      vertex 18.5 -76 0
      vertex 0 0 0
    endloop
  endfacet
  facet normal 0 0 1
    outer loop
      vertex 69.9896 -133.185 0
      vertex 0 -152 0
      vertex 107.024 -152 0
    endloop
  endfacet
  facet normal 0 0 1
    outer loop
      vertex 47.25 -125.796 0
      vertex 0 -152 0
      vertex 58.2315 -130.686 0
    endloop
  endfacet
  facet normal 0 0 1
    outer loop
      vertex 37.525 -118.731 0
      vertex 0 -152 0
      vertex 47.25 -125.796 0
    endloop
  endfacet
  facet normal 0 0 1
    outer loop
      vertex 29.4815 -109.798 0
      vertex 0 -152 0
      vertex 37.525 -118.731 0
    endloop
  endfacet
  facet normal 0 0 1
    outer loop
      vertex 23.4711 -99.3874 0
      vertex 0 -152 0
      vertex 29.4815 -109.798 0
    endloop
  endfacet
  facet normal 0 0 1
    outer loop
      vertex 19.7565 -87.9549 0
      vertex 0 -152 0
      vertex 23.4711 -99.3874 0
    endloop
  endfacet
  facet normal 0 0 1
    outer loop
      vertex 18.5 -76 0
      vertex 0 -152 0
      vertex 19.7565 -87.9549 0
    endloop
  endfacet
  facet normal -1 0 0
    outer loop
      vertex 0 -152 -3
      vertex 0 0 0
      vertex 0 0 -3
    endloop
  endfacet
  facet normal -1 -0 0
    outer loop
      vertex 0 0 0
      vertex 0 -152 -3
      vertex 0 -152 0
    endloop
  endfacet
  facet normal 0 -1 0
    outer loop
      vertex 0 -152 -3
      vertex 107.024 -152 0
      vertex 0 -152 0
    endloop
  endfacet
  facet normal 0 -1 -0
    outer loop
      vertex 107.024 -152 0
      vertex 0 -152 -3
      vertex 107.024 -152 -3
    endloop
  endfacet
  facet normal 0.866033 -0.499987 0
    outer loop
      vertex 142.744 -124.492 0
      vertex 151.367 -109.556 -3
      vertex 151.367 -109.556 0
    endloop
  endfacet
  facet normal 0.866033 -0.499987 0
    outer loop
      vertex 151.367 -109.556 -3
      vertex 142.744 -124.492 0
      vertex 142.744 -124.492 -3
    endloop
  endfacet
  facet normal 0.951002 -0.309185 0
    outer loop
      vertex 151.367 -109.556 0
      vertex 152 -107.609 -3
      vertex 152 -107.609 0
    endloop
  endfacet
  facet normal 0.951002 -0.309185 0
    outer loop
      vertex 152 -107.609 -3
      vertex 151.367 -109.556 0
      vertex 151.367 -109.556 -3
    endloop
  endfacet
  facet normal 0.587794 0.80901 -0
    outer loop
      vertex 131.203 -14.6906 -3
      vertex 117.25 -4.55291 0
      vertex 131.203 -14.6906 0
    endloop
  endfacet
  facet normal 0.587794 0.80901 0
    outer loop
      vertex 117.25 -4.55291 0
      vertex 131.203 -14.6906 -3
      vertex 117.25 -4.55291 -3
    endloop
  endfacet
  facet normal 0.406737 0.913545 -0
    outer loop
      vertex 117.25 -4.55291 -3
      vertex 107.024 0 0
      vertex 117.25 -4.55291 0
    endloop
  endfacet
  facet normal 0.406737 0.913545 0
    outer loop
      vertex 107.024 0 0
      vertex 117.25 -4.55291 -3
      vertex 107.024 0 -3
    endloop
  endfacet
  facet normal 0.406743 -0.913542 0
    outer loop
      vertex 107.024 -152 -3
      vertex 117.25 -147.447 0
      vertex 107.024 -152 0
    endloop
  endfacet
  facet normal 0.406743 -0.913542 0
    outer loop
      vertex 117.25 -147.447 0
      vertex 107.024 -152 -3
      vertex 117.25 -147.447 -3
    endloop
  endfacet
  facet normal 0.587806 -0.809002 0
    outer loop
      vertex 117.25 -147.447 -3
      vertex 131.203 -137.309 0
      vertex 117.25 -147.447 0
    endloop
  endfacet
  facet normal 0.587806 -0.809002 0
    outer loop
      vertex 131.203 -137.309 0
      vertex 117.25 -147.447 -3
      vertex 131.203 -137.309 -3
    endloop
  endfacet
  facet normal 0.74313 -0.669147 0
    outer loop
      vertex 131.203 -137.309 0
      vertex 142.744 -124.492 -3
      vertex 142.744 -124.492 0
    endloop
  endfacet
  facet normal 0.74313 -0.669147 0
    outer loop
      vertex 142.744 -124.492 -3
      vertex 131.203 -137.309 0
      vertex 131.203 -137.309 -3
    endloop
  endfacet
  facet normal 0.950988 0.309229 0
    outer loop
      vertex 152 -44.3909 0
      vertex 151.367 -42.4442 -3
      vertex 151.367 -42.4442 0
    endloop
  endfacet
  facet normal 0.950988 0.309229 0
    outer loop
      vertex 151.367 -42.4442 -3
      vertex 152 -44.3909 0
      vertex 152 -44.3909 -3
    endloop
  endfacet
  facet normal 0.86604 0.499974 0
    outer loop
      vertex 151.367 -42.4442 0
      vertex 142.744 -27.5077 -3
      vertex 142.744 -27.5077 0
    endloop
  endfacet
  facet normal 0.86604 0.499974 0
    outer loop
      vertex 142.744 -27.5077 -3
      vertex 151.367 -42.4442 0
      vertex 151.367 -42.4442 -3
    endloop
  endfacet
  facet normal 0.743132 0.669144 0
    outer loop
      vertex 142.744 -27.5077 0
      vertex 131.203 -14.6906 -3
      vertex 131.203 -14.6906 0
    endloop
  endfacet
  facet normal 0.743132 0.669144 0
    outer loop
      vertex 131.203 -14.6906 -3
      vertex 142.744 -27.5077 0
      vertex 142.744 -27.5077 -3
    endloop
  endfacet
endsolid OpenSCAD_Model
