solid OpenSCAD_Model
  facet normal -0.951072 0.308969 0
    outer loop
      vertex 129.029 -99.8874 -3
      vertex 132.743 -88.4549 0
      vertex 132.743 -88.4549 -3
    endloop
  endfacet
  facet normal -0.951072 0.308969 0
    outer loop
      vertex 132.743 -88.4549 0
      vertex 129.029 -99.8874 -3
      vertex 129.029 -99.8874 0
    endloop
  endfacet
  facet normal -0.994518 0.104569 0
    outer loop
      vertex 132.743 -88.4549 -3
      vertex 134 -76.5 0
      vertex 134 -76.5 -3
    endloop
  endfacet
  facet normal -0.994518 0.104569 0
    outer loop
      vertex 134 -76.5 0
      vertex 132.743 -88.4549 -3
      vertex 132.743 -88.4549 0
    endloop
  endfacet
  facet normal -0.86601 0.500027 0
    outer loop
      vertex 123.018 -110.298 -3
      vertex 129.029 -99.8874 0
      vertex 129.029 -99.8874 -3
    endloop
  endfacet
  facet normal -0.86601 0.500027 0
    outer loop
      vertex 129.029 -99.8874 0
      vertex 123.018 -110.298 -3
      vertex 123.018 -110.298 0
    endloop
  endfacet
  facet normal 0.587789 -0.809014 0
    outer loop
      vertex 38.025 -33.7692 -3
      vertex 47.75 -26.7035 0
      vertex 38.025 -33.7692 0
    endloop
  endfacet
  facet normal 0.587789 -0.809014 0
    outer loop
      vertex 47.75 -26.7035 0
      vertex 38.025 -33.7692 -3
      vertex 47.75 -26.7035 -3
    endloop
  endfacet
  facet normal 0.994522 0.104528 0
    outer loop
      vertex 20.2565 -88.4549 0
      vertex 19 -76.5 -3
      vertex 19 -76.5 0
    endloop
  endfacet
  facet normal 0.994522 0.104528 0
    outer loop
      vertex 19 -76.5 -3
      vertex 20.2565 -88.4549 0
      vertex 20.2565 -88.4549 -3
    endloop
  endfacet
  facet normal -0.994518 -0.104569 0
    outer loop
      vertex 134 -76.5 -3
      vertex 132.743 -64.5451 0
      vertex 132.743 -64.5451 -3
    endloop
  endfacet
  facet normal -0.994518 -0.104569 0
    outer loop
      vertex 132.743 -64.5451 0
      vertex 134 -76.5 -3
      vertex 134 -76.5 0
    endloop
  endfacet
  facet normal -0.406731 -0.913548 0
    outer loop
      vertex 94.2685 -21.8143 -3
      vertex 105.25 -26.7035 0
      vertex 94.2685 -21.8143 0
    endloop
  endfacet
  facet normal -0.406731 -0.913548 -0
    outer loop
      vertex 105.25 -26.7035 0
      vertex 94.2685 -21.8143 -3
      vertex 105.25 -26.7035 -3
    endloop
  endfacet
  facet normal -0.866003 -0.500038 0
    outer loop
      vertex 129.029 -53.1126 -3
      vertex 123.018 -42.7023 0
      vertex 123.018 -42.7023 -3
    endloop
  endfacet
  facet normal -0.866003 -0.500038 0
    outer loop
      vertex 123.018 -42.7023 0
      vertex 129.029 -53.1126 -3
      vertex 129.029 -53.1126 0
    endloop
  endfacet
  facet normal -0.587751 0.809042 0
    outer loop
      vertex 114.975 -119.231 -3
      vertex 105.25 -126.296 0
      vertex 114.975 -119.231 0
    endloop
  endfacet
  facet normal -0.587751 0.809042 0
    outer loop
      vertex 105.25 -126.296 0
      vertex 114.975 -119.231 -3
      vertex 105.25 -126.296 -3
    endloop
  endfacet
  facet normal -0.951072 -0.308969 0
    outer loop
      vertex 132.743 -64.5451 -3
      vertex 129.029 -53.1126 0
      vertex 129.029 -53.1126 -3
    endloop
  endfacet
  facet normal -0.951072 -0.308969 0
    outer loop
      vertex 129.029 -53.1126 0
      vertex 132.743 -64.5451 -3
      vertex 132.743 -64.5451 0
    endloop
  endfacet
  facet normal 0 1 -0
    outer loop
      vertex 82.5104 -133.685 -3
      vertex 70.4896 -133.685 0
      vertex 82.5104 -133.685 0
    endloop
  endfacet
  facet normal 0 1 0
    outer loop
      vertex 70.4896 -133.685 0
      vertex 82.5104 -133.685 -3
      vertex 70.4896 -133.685 -3
    endloop
  endfacet
  facet normal -0.207891 0.978152 0
    outer loop
      vertex 94.2685 -131.186 -3
      vertex 82.5104 -133.685 0
      vertex 94.2685 -131.186 0
    endloop
  endfacet
  facet normal -0.207891 0.978152 0
    outer loop
      vertex 82.5104 -133.685 0
      vertex 94.2685 -131.186 -3
      vertex 82.5104 -133.685 -3
    endloop
  endfacet
  facet normal 0 -1 0
    outer loop
      vertex 70.4896 -19.315 -3
      vertex 82.5104 -19.315 0
      vertex 70.4896 -19.315 0
    endloop
  endfacet
  facet normal 0 -1 -0
    outer loop
      vertex 82.5104 -19.315 0
      vertex 70.4896 -19.315 -3
      vertex 82.5104 -19.315 -3
    endloop
  endfacet
  facet normal 0.951058 0.309014 0
    outer loop
      vertex 23.9711 -99.8874 0
      vertex 20.2565 -88.4549 -3
      vertex 20.2565 -88.4549 0
    endloop
  endfacet
  facet normal 0.951058 0.309014 0
    outer loop
      vertex 20.2565 -88.4549 -3
      vertex 23.9711 -99.8874 0
      vertex 23.9711 -99.8874 -3
    endloop
  endfacet
  facet normal -0.743161 -0.669112 0
    outer loop
      vertex 123.018 -42.7023 -3
      vertex 114.975 -33.7692 0
      vertex 114.975 -33.7692 -3
    endloop
  endfacet
  facet normal -0.743161 -0.669112 0
    outer loop
      vertex 114.975 -33.7692 0
      vertex 123.018 -42.7023 -3
      vertex 123.018 -42.7023 0
    endloop
  endfacet
  facet normal 0.406731 -0.913548 0
    outer loop
      vertex 47.75 -26.7035 -3
      vertex 58.7315 -21.8143 0
      vertex 47.75 -26.7035 0
    endloop
  endfacet
  facet normal 0.406731 -0.913548 0
    outer loop
      vertex 58.7315 -21.8143 0
      vertex 47.75 -26.7035 -3
      vertex 58.7315 -21.8143 -3
    endloop
  endfacet
  facet normal 0.587751 0.809042 -0
    outer loop
      vertex 47.75 -126.296 -3
      vertex 38.025 -119.231 0
      vertex 47.75 -126.296 0
    endloop
  endfacet
  facet normal 0.587751 0.809042 0
    outer loop
      vertex 38.025 -119.231 0
      vertex 47.75 -126.296 -3
      vertex 38.025 -119.231 -3
    endloop
  endfacet
  facet normal -0.587789 -0.809014 0
    outer loop
      vertex 105.25 -26.7035 -3
      vertex 114.975 -33.7692 0
      vertex 105.25 -26.7035 0
    endloop
  endfacet
  facet normal -0.587789 -0.809014 -0
    outer loop
      vertex 114.975 -33.7692 0
      vertex 105.25 -26.7035 -3
      vertex 114.975 -33.7692 -3
    endloop
  endfacet
  facet normal 0.743137 0.669139 0
    outer loop
      vertex 38.025 -119.231 0
      vertex 29.9815 -110.298 -3
      vertex 29.9815 -110.298 0
    endloop
  endfacet
  facet normal 0.743137 0.669139 0
    outer loop
      vertex 29.9815 -110.298 -3
      vertex 38.025 -119.231 0
      vertex 38.025 -119.231 -3
    endloop
  endfacet
  facet normal -0.743158 0.669116 0
    outer loop
      vertex 114.975 -119.231 -3
      vertex 123.018 -110.298 0
      vertex 123.018 -110.298 -3
    endloop
  endfacet
  facet normal -0.743158 0.669116 0
    outer loop
      vertex 123.018 -110.298 0
      vertex 114.975 -119.231 -3
      vertex 114.975 -119.231 0
    endloop
  endfacet
  facet normal 0.951058 -0.309014 0
    outer loop
      vertex 20.2565 -64.5451 0
      vertex 23.9711 -53.1126 -3
      vertex 23.9711 -53.1126 0
    endloop
  endfacet
  facet normal 0.951058 -0.309014 0
    outer loop
      vertex 23.9711 -53.1126 -3
      vertex 20.2565 -64.5451 0
      vertex 20.2565 -64.5451 -3
    endloop
  endfacet
  facet normal -0.406787 0.913523 0
    outer loop
      vertex 105.25 -126.296 -3
      vertex 94.2685 -131.186 0
      vertex 105.25 -126.296 0
    endloop
  endfacet
  facet normal -0.406787 0.913523 0
    outer loop
      vertex 94.2685 -131.186 0
      vertex 105.25 -126.296 -3
      vertex 94.2685 -131.186 -3
    endloop
  endfacet
  facet normal 0.207915 -0.978147 0
    outer loop
      vertex 58.7315 -21.8143 -3
      vertex 70.4896 -19.315 0
      vertex 58.7315 -21.8143 0
    endloop
  endfacet
  facet normal 0.207915 -0.978147 0
    outer loop
      vertex 70.4896 -19.315 0
      vertex 58.7315 -21.8143 -3
      vertex 70.4896 -19.315 -3
    endloop
  endfacet
  facet normal 0.743141 -0.669135 0
    outer loop
      vertex 29.9815 -42.7023 0
      vertex 38.025 -33.7692 -3
      vertex 38.025 -33.7692 0
    endloop
  endfacet
  facet normal 0.743141 -0.669135 0
    outer loop
      vertex 38.025 -33.7692 -3
      vertex 29.9815 -42.7023 0
      vertex 29.9815 -42.7023 -3
    endloop
  endfacet
  facet normal 0.406787 0.913523 -0
    outer loop
      vertex 58.7315 -131.186 -3
      vertex 47.75 -126.296 0
      vertex 58.7315 -131.186 0
    endloop
  endfacet
  facet normal 0.406787 0.913523 0
    outer loop
      vertex 47.75 -126.296 0
      vertex 58.7315 -131.186 -3
      vertex 47.75 -126.296 -3
    endloop
  endfacet
  facet normal 0.866031 0.49999 0
    outer loop
      vertex 29.9815 -110.298 0
      vertex 23.9711 -99.8874 -3
      vertex 23.9711 -99.8874 0
    endloop
  endfacet
  facet normal 0.866031 0.49999 0
    outer loop
      vertex 23.9711 -99.8874 -3
      vertex 29.9815 -110.298 0
      vertex 29.9815 -110.298 -3
    endloop
  endfacet
  facet normal 0.994522 -0.104528 0
    outer loop
      vertex 19 -76.5 0
      vertex 20.2565 -64.5451 -3
      vertex 20.2565 -64.5451 0
    endloop
  endfacet
  facet normal 0.994522 -0.104528 0
    outer loop
      vertex 20.2565 -64.5451 -3
      vertex 19 -76.5 0
      vertex 19 -76.5 -3
    endloop
  endfacet
  facet normal 0.866025 -0.500001 0
    outer loop
      vertex 23.9711 -53.1126 0
      vertex 29.9815 -42.7023 -3
      vertex 29.9815 -42.7023 0
    endloop
  endfacet
  facet normal 0.866025 -0.500001 0
    outer loop
      vertex 29.9815 -42.7023 -3
      vertex 23.9711 -53.1126 0
      vertex 23.9711 -53.1126 -3
    endloop
  endfacet
  facet normal -0.207915 -0.978147 0
    outer loop
      vertex 82.5104 -19.315 -3
      vertex 94.2685 -21.8143 0
      vertex 82.5104 -19.315 0
    endloop
  endfacet
  facet normal -0.207915 -0.978147 -0
    outer loop
      vertex 94.2685 -21.8143 0
      vertex 82.5104 -19.315 -3
      vertex 94.2685 -21.8143 -3
    endloop
  endfacet
  facet normal 0.207891 0.978152 -0
    outer loop
      vertex 70.4896 -133.685 -3
      vertex 58.7315 -131.186 0
      vertex 70.4896 -133.685 0
    endloop
  endfacet
  facet normal 0.207891 0.978152 0
    outer loop
      vertex 58.7315 -131.186 0
      vertex 70.4896 -133.685 -3
      vertex 58.7315 -131.186 -3
    endloop
  endfacet
  facet normal 1 -0 0
    outer loop
      vertex 153 -106.57 0
      vertex 153 -46.4297 -3
      vertex 153 -46.4297 0
    endloop
  endfacet
  facet normal 1 0 0
    outer loop
      vertex 153 -46.4297 -3
      vertex 153 -106.57 0
      vertex 153 -106.57 -3
    endloop
  endfacet
  facet normal 0 0 -1
    outer loop
      vertex 129.029 -99.8874 -3
      vertex 153 -106.57 -3
      vertex 151.867 -110.056 -3
    endloop
  endfacet
  facet normal 0 0 -1
    outer loop
      vertex 153 -106.57 -3
      vertex 134 -76.5 -3
      vertex 153 -46.4297 -3
    endloop
  endfacet
  facet normal 0 0 -1
    outer loop
      vertex 129.029 -99.8874 -3
      vertex 151.867 -110.056 -3
      vertex 143.244 -124.992 -3
    endloop
  endfacet
  facet normal 0 0 -1
    outer loop
      vertex 132.743 -64.5451 -3
      vertex 153 -46.4297 -3
      vertex 134 -76.5 -3
    endloop
  endfacet
  facet normal 0 0 -1
    outer loop
      vertex 129.029 -53.1126 -3
      vertex 153 -46.4297 -3
      vertex 132.743 -64.5451 -3
    endloop
  endfacet
  facet normal 0 0 -1
    outer loop
      vertex 153 -106.57 -3
      vertex 132.743 -88.4549 -3
      vertex 134 -76.5 -3
    endloop
  endfacet
  facet normal 0 0 -1
    outer loop
      vertex 123.018 -110.298 -3
      vertex 143.244 -124.992 -3
      vertex 131.703 -137.809 -3
    endloop
  endfacet
  facet normal 0 0 -1
    outer loop
      vertex 153 -106.57 -3
      vertex 129.029 -99.8874 -3
      vertex 132.743 -88.4549 -3
    endloop
  endfacet
  facet normal 0 0 -1
    outer loop
      vertex 143.244 -124.992 -3
      vertex 123.018 -110.298 -3
      vertex 129.029 -99.8874 -3
    endloop
  endfacet
  facet normal 0 0 -1
    outer loop
      vertex 114.975 -119.231 -3
      vertex 131.703 -137.809 -3
      vertex 117.75 -147.947 -3
    endloop
  endfacet
  facet normal 0 0 -1
    outer loop
      vertex 131.703 -137.809 -3
      vertex 114.975 -119.231 -3
      vertex 123.018 -110.298 -3
    endloop
  endfacet
  facet normal 0 0 -1
    outer loop
      vertex 105.25 -126.296 -3
      vertex 117.75 -147.947 -3
      vertex 106.401 -153 -3
    endloop
  endfacet
  facet normal 0 0 -1
    outer loop
      vertex 117.75 -147.947 -3
      vertex 105.25 -126.296 -3
      vertex 114.975 -119.231 -3
    endloop
  endfacet
  facet normal 0 0 -1
    outer loop
      vertex 106.401 -153 -3
      vertex 94.2685 -131.186 -3
      vertex 105.25 -126.296 -3
    endloop
  endfacet
  facet normal 0 0 -1
    outer loop
      vertex 106.401 -153 -3
      vertex 82.5104 -133.685 -3
      vertex 94.2685 -131.186 -3
    endloop
  endfacet
  facet normal 0 0 -1
    outer loop
      vertex 106.401 -153 -3
      vertex 70.4896 -133.685 -3
      vertex 82.5104 -133.685 -3
    endloop
  endfacet
  facet normal 0 0 -1
    outer loop
      vertex 0 -153 -3
      vertex 70.4896 -133.685 -3
      vertex 106.401 -153 -3
    endloop
  endfacet
  facet normal -0 0 -1
    outer loop
      vertex 70.4896 -133.685 -3
      vertex 0 -153 -3
      vertex 58.7315 -131.186 -3
    endloop
  endfacet
  facet normal -0 0 -1
    outer loop
      vertex 58.7315 -131.186 -3
      vertex 0 -153 -3
      vertex 47.75 -126.296 -3
    endloop
  endfacet
  facet normal 0 0 -1
    outer loop
      vertex 0 -153 -3
      vertex 38.025 -119.231 -3
      vertex 47.75 -126.296 -3
    endloop
  endfacet
  facet normal 0 0 -1
    outer loop
      vertex 0 -153 -3
      vertex 29.9815 -110.298 -3
      vertex 38.025 -119.231 -3
    endloop
  endfacet
  facet normal 0 0 -1
    outer loop
      vertex 0 -153 -3
      vertex 23.9711 -99.8874 -3
      vertex 29.9815 -110.298 -3
    endloop
  endfacet
  facet normal 0 0 -1
    outer loop
      vertex 0 -153 -3
      vertex 20.2565 -88.4549 -3
      vertex 23.9711 -99.8874 -3
    endloop
  endfacet
  facet normal 0 0 -1
    outer loop
      vertex 0 -153 -3
      vertex 19 -76.5 -3
      vertex 20.2565 -88.4549 -3
    endloop
  endfacet
  facet normal 0 0 -1
    outer loop
      vertex 0 0 -3
      vertex 19 -76.5 -3
      vertex 0 -153 -3
    endloop
  endfacet
  facet normal 0 0 -1
    outer loop
      vertex 19 -76.5 -3
      vertex 0 0 -3
      vertex 15.5 0 -3
    endloop
  endfacet
  facet normal -0 0 -1
    outer loop
      vertex 153 -46.4297 -3
      vertex 129.029 -53.1126 -3
      vertex 151.867 -42.9442 -3
    endloop
  endfacet
  facet normal -0 0 -1
    outer loop
      vertex 151.867 -42.9442 -3
      vertex 129.029 -53.1126 -3
      vertex 143.244 -28.0077 -3
    endloop
  endfacet
  facet normal 0 0 -1
    outer loop
      vertex 123.018 -42.7023 -3
      vertex 143.244 -28.0077 -3
      vertex 129.029 -53.1126 -3
    endloop
  endfacet
  facet normal -0 0 -1
    outer loop
      vertex 143.244 -28.0077 -3
      vertex 123.018 -42.7023 -3
      vertex 131.703 -15.1906 -3
    endloop
  endfacet
  facet normal 0 0 -1
    outer loop
      vertex 114.975 -33.7692 -3
      vertex 131.703 -15.1906 -3
      vertex 123.018 -42.7023 -3
    endloop
  endfacet
  facet normal -0 0 -1
    outer loop
      vertex 131.703 -15.1906 -3
      vertex 114.975 -33.7692 -3
      vertex 117.75 -5.05291 -3
    endloop
  endfacet
  facet normal 0 0 -1
    outer loop
      vertex 105.25 -26.7035 -3
      vertex 117.75 -5.05291 -3
      vertex 114.975 -33.7692 -3
    endloop
  endfacet
  facet normal -0 0 -1
    outer loop
      vertex 117.75 -5.05291 -3
      vertex 105.25 -26.7035 -3
      vertex 106.401 0 -3
    endloop
  endfacet
  facet normal 0 0 -1
    outer loop
      vertex 94.2685 -21.8143 -3
      vertex 106.401 0 -3
      vertex 105.25 -26.7035 -3
    endloop
  endfacet
  facet normal 0 0 -1
    outer loop
      vertex 82.5104 -19.315 -3
      vertex 106.401 0 -3
      vertex 94.2685 -21.8143 -3
    endloop
  endfacet
  facet normal 0 0 -1
    outer loop
      vertex 70.4896 -19.315 -3
      vertex 106.401 0 -3
      vertex 82.5104 -19.315 -3
    endloop
  endfacet
  facet normal 0 0 -1
    outer loop
      vertex 41.5 0 -3
      vertex 70.4896 -19.315 -3
      vertex 58.7315 -21.8143 -3
    endloop
  endfacet
  facet normal 0 0 -1
    outer loop
      vertex 41.5 0 -3
      vertex 58.7315 -21.8143 -3
      vertex 47.75 -26.7035 -3
    endloop
  endfacet
  facet normal 0 0 -1
    outer loop
      vertex 70.4896 -19.315 -3
      vertex 41.5 0 -3
      vertex 106.401 0 -3
    endloop
  endfacet
  facet normal 0 0 -1
    outer loop
      vertex 38.025 -33.7692 -3
      vertex 41.5 0 -3
      vertex 47.75 -26.7035 -3
    endloop
  endfacet
  facet normal 0 0 -1
    outer loop
      vertex 15.5 0 -3
      vertex 41.5 0 -3
      vertex 38.025 -33.7692 -3
    endloop
  endfacet
  facet normal 0 0 -1
    outer loop
      vertex 15.5 0 -3
      vertex 38.025 -33.7692 -3
      vertex 29.9815 -42.7023 -3
    endloop
  endfacet
  facet normal 0 0 -1
    outer loop
      vertex 15.5 0 -3
      vertex 29.9815 -42.7023 -3
      vertex 23.9711 -53.1126 -3
    endloop
  endfacet
  facet normal 0 0 -1
    outer loop
      vertex 15.5 0 -3
      vertex 23.9711 -53.1126 -3
      vertex 20.2565 -64.5451 -3
    endloop
  endfacet
  facet normal 0 0 -1
    outer loop
      vertex 15.5 0 -3
      vertex 20.2565 -64.5451 -3
      vertex 19 -76.5 -3
    endloop
  endfacet
  facet normal 0 0 -1
    outer loop
      vertex 41.5 0 -3
      vertex 15.5 0 -3
      vertex 41.5 16 -3
    endloop
  endfacet
  facet normal -0 0 -1
    outer loop
      vertex 41.5 16 -3
      vertex 15.5 0 -3
      vertex 15.5 16 -3
    endloop
  endfacet
  facet normal -0 0 1
    outer loop
      vertex 19.5 14 0
      vertex 39.5 0 0
      vertex 39.5 14 0
    endloop
  endfacet
  facet normal 0 0 1
    outer loop
      vertex 39.5 0 0
      vertex 19.5 14 0
      vertex 19.5 0 0
    endloop
  endfacet
  facet normal -0 0 1
    outer loop
      vertex 19.5 0 0
      vertex 39.5 -28 0
      vertex 39.5 0 0
    endloop
  endfacet
  facet normal 0 0 1
    outer loop
      vertex 39.5 -28 0
      vertex 19.5 0 0
      vertex 19.5 -28 0
    endloop
  endfacet
  facet normal 0 0 1
    outer loop
      vertex 15.5 0 0
      vertex 0 0 0
      vertex 15.5 -30 0
    endloop
  endfacet
  facet normal 0 0 1
    outer loop
      vertex 129.029 -53.1126 0
      vertex 153 -46.4297 0
      vertex 151.867 -42.9442 0
    endloop
  endfacet
  facet normal 0 0 1
    outer loop
      vertex 153 -46.4297 0
      vertex 134 -76.5 0
      vertex 153 -106.57 0
    endloop
  endfacet
  facet normal 0 0 1
    outer loop
      vertex 129.029 -53.1126 0
      vertex 151.867 -42.9442 0
      vertex 143.244 -28.0077 0
    endloop
  endfacet
  facet normal -0 0 1
    outer loop
      vertex 132.743 -88.4549 0
      vertex 153 -106.57 0
      vertex 134 -76.5 0
    endloop
  endfacet
  facet normal -0 0 1
    outer loop
      vertex 129.029 -99.8874 0
      vertex 153 -106.57 0
      vertex 132.743 -88.4549 0
    endloop
  endfacet
  facet normal 0 0 1
    outer loop
      vertex 153 -46.4297 0
      vertex 132.743 -64.5451 0
      vertex 134 -76.5 0
    endloop
  endfacet
  facet normal 0 0 1
    outer loop
      vertex 123.018 -42.7023 0
      vertex 143.244 -28.0077 0
      vertex 131.703 -15.1906 0
    endloop
  endfacet
  facet normal 0 0 1
    outer loop
      vertex 153 -46.4297 0
      vertex 129.029 -53.1126 0
      vertex 132.743 -64.5451 0
    endloop
  endfacet
  facet normal 0 0 1
    outer loop
      vertex 143.244 -28.0077 0
      vertex 123.018 -42.7023 0
      vertex 129.029 -53.1126 0
    endloop
  endfacet
  facet normal 0 0 1
    outer loop
      vertex 114.975 -33.7692 0
      vertex 131.703 -15.1906 0
      vertex 117.75 -5.05291 0
    endloop
  endfacet
  facet normal 0 0 1
    outer loop
      vertex 131.703 -15.1906 0
      vertex 114.975 -33.7692 0
      vertex 123.018 -42.7023 0
    endloop
  endfacet
  facet normal 0 0 1
    outer loop
      vertex 105.25 -26.7035 0
      vertex 117.75 -5.05291 0
      vertex 106.401 0 0
    endloop
  endfacet
  facet normal 0 0 1
    outer loop
      vertex 117.75 -5.05291 0
      vertex 105.25 -26.7035 0
      vertex 114.975 -33.7692 0
    endloop
  endfacet
  facet normal 0 0 1
    outer loop
      vertex 106.401 0 0
      vertex 94.2685 -21.8143 0
      vertex 105.25 -26.7035 0
    endloop
  endfacet
  facet normal 0 0 1
    outer loop
      vertex 106.401 0 0
      vertex 82.5104 -19.315 0
      vertex 94.2685 -21.8143 0
    endloop
  endfacet
  facet normal 0 0 1
    outer loop
      vertex 106.401 0 0
      vertex 70.4896 -19.315 0
      vertex 82.5104 -19.315 0
    endloop
  endfacet
  facet normal -0 0 1
    outer loop
      vertex 41.5 0 0
      vertex 70.4896 -19.315 0
      vertex 106.401 0 0
    endloop
  endfacet
  facet normal 0 0 1
    outer loop
      vertex 70.4896 -19.315 0
      vertex 41.5 0 0
      vertex 58.7315 -21.8143 0
    endloop
  endfacet
  facet normal 0 0 1
    outer loop
      vertex 58.7315 -21.8143 0
      vertex 41.5 0 0
      vertex 47.75 -26.7035 0
    endloop
  endfacet
  facet normal 0 0 1
    outer loop
      vertex 41.5 -30 0
      vertex 47.75 -26.7035 0
      vertex 41.5 0 0
    endloop
  endfacet
  facet normal -0 0 1
    outer loop
      vertex 41.5 -30 0
      vertex 38.025 -33.7692 0
      vertex 47.75 -26.7035 0
    endloop
  endfacet
  facet normal 0 0 1
    outer loop
      vertex 20.2565 -64.5451 0
      vertex 15.5 -30 0
      vertex 19 -76.5 0
    endloop
  endfacet
  facet normal 0 0 1
    outer loop
      vertex 23.9711 -53.1126 0
      vertex 15.5 -30 0
      vertex 20.2565 -64.5451 0
    endloop
  endfacet
  facet normal 0 0 1
    outer loop
      vertex 29.9815 -42.7023 0
      vertex 15.5 -30 0
      vertex 23.9711 -53.1126 0
    endloop
  endfacet
  facet normal 0 0 1
    outer loop
      vertex 38.025 -33.7692 0
      vertex 15.5 -30 0
      vertex 29.9815 -42.7023 0
    endloop
  endfacet
  facet normal -0 0 1
    outer loop
      vertex 15.5 -30 0
      vertex 38.025 -33.7692 0
      vertex 41.5 -30 0
    endloop
  endfacet
  facet normal 0 0 1
    outer loop
      vertex 153 -106.57 0
      vertex 129.029 -99.8874 0
      vertex 151.867 -110.056 0
    endloop
  endfacet
  facet normal 0 0 1
    outer loop
      vertex 151.867 -110.056 0
      vertex 129.029 -99.8874 0
      vertex 143.244 -124.992 0
    endloop
  endfacet
  facet normal -0 0 1
    outer loop
      vertex 123.018 -110.298 0
      vertex 143.244 -124.992 0
      vertex 129.029 -99.8874 0
    endloop
  endfacet
  facet normal 0 0 1
    outer loop
      vertex 143.244 -124.992 0
      vertex 123.018 -110.298 0
      vertex 131.703 -137.809 0
    endloop
  endfacet
  facet normal -0 0 1
    outer loop
      vertex 114.975 -119.231 0
      vertex 131.703 -137.809 0
      vertex 123.018 -110.298 0
    endloop
  endfacet
  facet normal 0 0 1
    outer loop
      vertex 131.703 -137.809 0
      vertex 114.975 -119.231 0
      vertex 117.75 -147.947 0
    endloop
  endfacet
  facet normal -0 0 1
    outer loop
      vertex 105.25 -126.296 0
      vertex 117.75 -147.947 0
      vertex 114.975 -119.231 0
    endloop
  endfacet
  facet normal 0 0 1
    outer loop
      vertex 117.75 -147.947 0
      vertex 105.25 -126.296 0
      vertex 106.401 -153 0
    endloop
  endfacet
  facet normal -0 0 1
    outer loop
      vertex 94.2685 -131.186 0
      vertex 106.401 -153 0
      vertex 105.25 -126.296 0
    endloop
  endfacet
  facet normal -0 0 1
    outer loop
      vertex 82.5104 -133.685 0
      vertex 106.401 -153 0
      vertex 94.2685 -131.186 0
    endloop
  endfacet
  facet normal -0 0 1
    outer loop
      vertex 70.4896 -133.685 0
      vertex 106.401 -153 0
      vertex 82.5104 -133.685 0
    endloop
  endfacet
  facet normal 0 0 1
    outer loop
      vertex 0 -153 0
      vertex 70.4896 -133.685 0
      vertex 58.7315 -131.186 0
    endloop
  endfacet
  facet normal 0 0 1
    outer loop
      vertex 0 -153 0
      vertex 58.7315 -131.186 0
      vertex 47.75 -126.296 0
    endloop
  endfacet
  facet normal 0 0 1
    outer loop
      vertex 0 0 0
      vertex 19 -76.5 0
      vertex 15.5 -30 0
    endloop
  endfacet
  facet normal 0 0 1
    outer loop
      vertex 0 -153 0
      vertex 19 -76.5 0
      vertex 0 0 0
    endloop
  endfacet
  facet normal 0 0 1
    outer loop
      vertex 70.4896 -133.685 0
      vertex 0 -153 0
      vertex 106.401 -153 0
    endloop
  endfacet
  facet normal 0 0 1
    outer loop
      vertex 38.025 -119.231 0
      vertex 0 -153 0
      vertex 47.75 -126.296 0
    endloop
  endfacet
  facet normal 0 0 1
    outer loop
      vertex 29.9815 -110.298 0
      vertex 0 -153 0
      vertex 38.025 -119.231 0
    endloop
  endfacet
  facet normal 0 0 1
    outer loop
      vertex 23.9711 -99.8874 0
      vertex 0 -153 0
      vertex 29.9815 -110.298 0
    endloop
  endfacet
  facet normal 0 0 1
    outer loop
      vertex 20.2565 -88.4549 0
      vertex 0 -153 0
      vertex 23.9711 -99.8874 0
    endloop
  endfacet
  facet normal 0 0 1
    outer loop
      vertex 19 -76.5 0
      vertex 0 -153 0
      vertex 20.2565 -88.4549 0
    endloop
  endfacet
  facet normal -1 0 0
    outer loop
      vertex 0 -153 -3
      vertex 0 0 0
      vertex 0 0 -3
    endloop
  endfacet
  facet normal -1 -0 0
    outer loop
      vertex 0 0 0
      vertex 0 -153 -3
      vertex 0 -153 0
    endloop
  endfacet
  facet normal 0 -1 0
    outer loop
      vertex 0 -153 -3
      vertex 106.401 -153 0
      vertex 0 -153 0
    endloop
  endfacet
  facet normal 0 -1 -0
    outer loop
      vertex 106.401 -153 0
      vertex 0 -153 -3
      vertex 106.401 -153 -3
    endloop
  endfacet
  facet normal 0 1 -0
    outer loop
      vertex 15.5 0 -3
      vertex 0 0 0
      vertex 15.5 0 0
    endloop
  endfacet
  facet normal 0 1 0
    outer loop
      vertex 0 0 0
      vertex 15.5 0 -3
      vertex 0 0 -3
    endloop
  endfacet
  facet normal 0 1 -0
    outer loop
      vertex 106.401 0 -3
      vertex 41.5 0 0
      vertex 106.401 0 0
    endloop
  endfacet
  facet normal 0 1 0
    outer loop
      vertex 41.5 0 0
      vertex 106.401 0 -3
      vertex 41.5 0 -3
    endloop
  endfacet
  facet normal 0.866033 -0.499987 0
    outer loop
      vertex 143.244 -124.992 0
      vertex 151.867 -110.056 -3
      vertex 151.867 -110.056 0
    endloop
  endfacet
  facet normal 0.866033 -0.499987 0
    outer loop
      vertex 151.867 -110.056 -3
      vertex 143.244 -124.992 0
      vertex 143.244 -124.992 -3
    endloop
  endfacet
  facet normal 0.86604 0.499974 0
    outer loop
      vertex 151.867 -42.9442 0
      vertex 143.244 -28.0077 -3
      vertex 143.244 -28.0077 0
    endloop
  endfacet
  facet normal 0.86604 0.499974 0
    outer loop
      vertex 143.244 -28.0077 -3
      vertex 151.867 -42.9442 0
      vertex 151.867 -42.9442 -3
    endloop
  endfacet
  facet normal 0.95103 -0.309098 0
    outer loop
      vertex 151.867 -110.056 0
      vertex 153 -106.57 -3
      vertex 153 -106.57 0
    endloop
  endfacet
  facet normal 0.95103 -0.309098 0
    outer loop
      vertex 153 -106.57 -3
      vertex 151.867 -110.056 0
      vertex 151.867 -110.056 -3
    endloop
  endfacet
  facet normal 0.951017 0.309139 0
    outer loop
      vertex 153 -46.4297 0
      vertex 151.867 -42.9442 -3
      vertex 151.867 -42.9442 0
    endloop
  endfacet
  facet normal 0.951017 0.309139 0
    outer loop
      vertex 151.867 -42.9442 -3
      vertex 153 -46.4297 0
      vertex 153 -46.4297 -3
    endloop
  endfacet
  facet normal 0.406737 0.913545 -0
    outer loop
      vertex 117.75 -5.05291 -3
      vertex 106.401 0 0
      vertex 117.75 -5.05291 0
    endloop
  endfacet
  facet normal 0.406737 0.913545 0
    outer loop
      vertex 106.401 0 0
      vertex 117.75 -5.05291 -3
      vertex 106.401 0 -3
    endloop
  endfacet
  facet normal 0.406743 -0.913542 0
    outer loop
      vertex 106.401 -153 -3
      vertex 117.75 -147.947 0
      vertex 106.401 -153 0
    endloop
  endfacet
  facet normal 0.406743 -0.913542 0
    outer loop
      vertex 117.75 -147.947 0
      vertex 106.401 -153 -3
      vertex 117.75 -147.947 -3
    endloop
  endfacet
  facet normal 0.587794 0.80901 -0
    outer loop
      vertex 131.703 -15.1906 -3
      vertex 117.75 -5.05291 0
      vertex 131.703 -15.1906 0
    endloop
  endfacet
  facet normal 0.587794 0.80901 0
    outer loop
      vertex 117.75 -5.05291 0
      vertex 131.703 -15.1906 -3
      vertex 117.75 -5.05291 -3
    endloop
  endfacet
  facet normal 0.587806 -0.809002 0
    outer loop
      vertex 117.75 -147.947 -3
      vertex 131.703 -137.809 0
      vertex 117.75 -147.947 0
    endloop
  endfacet
  facet normal 0.587806 -0.809002 0
    outer loop
      vertex 131.703 -137.809 0
      vertex 117.75 -147.947 -3
      vertex 131.703 -137.809 -3
    endloop
  endfacet
  facet normal 0.74313 -0.669147 0
    outer loop
      vertex 131.703 -137.809 0
      vertex 143.244 -124.992 -3
      vertex 143.244 -124.992 0
    endloop
  endfacet
  facet normal 0.74313 -0.669147 0
    outer loop
      vertex 143.244 -124.992 -3
      vertex 131.703 -137.809 0
      vertex 131.703 -137.809 -3
    endloop
  endfacet
  facet normal 0.743132 0.669144 0
    outer loop
      vertex 143.244 -28.0077 0
      vertex 131.703 -15.1906 -3
      vertex 131.703 -15.1906 0
    endloop
  endfacet
  facet normal 0.743132 0.669144 0
    outer loop
      vertex 131.703 -15.1906 -3
      vertex 143.244 -28.0077 0
      vertex 143.244 -28.0077 -3
    endloop
  endfacet
  facet normal 0 -1 0
    outer loop
      vertex 19.5 14 18
      vertex 17.5 14 42
      vertex 17.5 14 18
    endloop
  endfacet
  facet normal 0 -1 0
    outer loop
      vertex 17.5 14 42
      vertex 19.5 14 18
      vertex 39.5 14 42
    endloop
  endfacet
  facet normal 0 -1 0
    outer loop
      vertex 39.5 14 0
      vertex 19.5 14 18
      vertex 19.5 14 0
    endloop
  endfacet
  facet normal 0 -1 0
    outer loop
      vertex 19.5 14 18
      vertex 39.5 14 0
      vertex 39.5 14 42
    endloop
  endfacet
  facet normal 0 1 0
    outer loop
      vertex 39.5 -28 42
      vertex 19.5 -28 18
      vertex 17.5 -28 42
    endloop
  endfacet
  facet normal 0 1 -0
    outer loop
      vertex 39.5 -28 0
      vertex 19.5 -28 18
      vertex 39.5 -28 42
    endloop
  endfacet
  facet normal 0 1 0
    outer loop
      vertex 19.5 -28 18
      vertex 39.5 -28 0
      vertex 19.5 -28 0
    endloop
  endfacet
  facet normal 0 1 0
    outer loop
      vertex 17.5 -28 42
      vertex 19.5 -28 18
      vertex 17.5 -28 18
    endloop
  endfacet
  facet normal 1 0 0
    outer loop
      vertex 19.5 14 18
      vertex 19.5 10 5.5
      vertex 19.5 14 0
    endloop
  endfacet
  facet normal 1 0 0
    outer loop
      vertex 19.5 14 18
      vertex 19.5 8.96352 6.92658
      vertex 19.5 10 5.5
    endloop
  endfacet
  facet normal 1 -0 0
    outer loop
      vertex 19.5 3.50577 16.3225
      vertex 19.5 8.96352 6.92658
      vertex 19.5 14 18
    endloop
  endfacet
  facet normal 1 -0 0
    outer loop
      vertex 19.5 2.30369 14.2405
      vertex 19.5 8.96352 6.92658
      vertex 19.5 3.50577 16.3225
    endloop
  endfacet
  facet normal 1 0 0
    outer loop
      vertex 19.5 3.50577 16.3225
      vertex 19.5 14 18
      vertex 19.5 4.05082 18
    endloop
  endfacet
  facet normal 1 -0 0
    outer loop
      vertex 19.5 8.96352 4.07341
      vertex 19.5 14 0
      vertex 19.5 10 5.5
    endloop
  endfacet
  facet normal 1 0 0
    outer loop
      vertex 19.5 0 0
      vertex 19.5 8.96352 4.07341
      vertex 19.5 7.28647 4.61832
    endloop
  endfacet
  facet normal 1 0 0
    outer loop
      vertex 19.5 8.96352 6.92658
      vertex 19.5 2.30369 14.2405
      vertex 19.5 7.28647 6.38168
    endloop
  endfacet
  facet normal 1 -0 0
    outer loop
      vertex 19.5 0.695002 12.4538
      vertex 19.5 7.28647 6.38168
      vertex 19.5 2.30369 14.2405
    endloop
  endfacet
  facet normal 1 -0 0
    outer loop
      vertex 19.5 -1.25 11.0407
      vertex 19.5 7.28647 6.38168
      vertex 19.5 0.695002 12.4538
    endloop
  endfacet
  facet normal 1 0 0
    outer loop
      vertex 19.5 8.96352 4.07341
      vertex 19.5 0 0
      vertex 19.5 14 0
    endloop
  endfacet
  facet normal 1 0 -0
    outer loop
      vertex 19.5 0 0
      vertex 19.5 7.28647 6.38168
      vertex 19.5 -1.25 11.0407
    endloop
  endfacet
  facet normal 1 0 0
    outer loop
      vertex 19.5 7.28647 6.38168
      vertex 19.5 0 0
      vertex 19.5 7.28647 4.61832
    endloop
  endfacet
  facet normal 1 -0 0
    outer loop
      vertex 19.5 -3.44631 10.0628
      vertex 19.5 0 0
      vertex 19.5 -1.25 11.0407
    endloop
  endfacet
  facet normal 1 -0 0
    outer loop
      vertex 19.5 -5.79792 9.563
      vertex 19.5 0 0
      vertex 19.5 -3.44631 10.0628
    endloop
  endfacet
  facet normal 1 -0 0
    outer loop
      vertex 19.5 -8.20208 9.563
      vertex 19.5 0 0
      vertex 19.5 -5.79792 9.563
    endloop
  endfacet
  facet normal 1 0 0
    outer loop
      vertex 19.5 -21 5.5
      vertex 19.5 -8.20208 9.563
      vertex 19.5 -10.5537 10.0628
    endloop
  endfacet
  facet normal 1 0 0
    outer loop
      vertex 19.5 -21 5.5
      vertex 19.5 -10.5537 10.0628
      vertex 19.5 -12.75 11.0407
    endloop
  endfacet
  facet normal 1 0 0
    outer loop
      vertex 19.5 -21 5.5
      vertex 19.5 -12.75 11.0407
      vertex 19.5 -14.695 12.4538
    endloop
  endfacet
  facet normal 1 -0 0
    outer loop
      vertex 19.5 -28 18
      vertex 19.5 -17.5058 16.3225
      vertex 19.5 -18.0508 18
    endloop
  endfacet
  facet normal 1 0 0
    outer loop
      vertex 19.5 -22.0365 6.92658
      vertex 19.5 -16.3037 14.2405
      vertex 19.5 -17.5058 16.3225
    endloop
  endfacet
  facet normal 1 0 0
    outer loop
      vertex 19.5 -22.0365 6.92658
      vertex 19.5 -14.695 12.4538
      vertex 19.5 -16.3037 14.2405
    endloop
  endfacet
  facet normal 1 0 0
    outer loop
      vertex 19.5 -8.20208 9.563
      vertex 19.5 -21 5.5
      vertex 19.5 0 0
    endloop
  endfacet
  facet normal 1 -0 0
    outer loop
      vertex 19.5 -22.0365 4.07341
      vertex 19.5 0 0
      vertex 19.5 -21 5.5
    endloop
  endfacet
  facet normal 1 0 0
    outer loop
      vertex 19.5 -22.0365 4.07341
      vertex 19.5 -28 0
      vertex 19.5 0 0
    endloop
  endfacet
  facet normal 1 0 0
    outer loop
      vertex 19.5 -23.7135 4.61832
      vertex 19.5 -28 0
      vertex 19.5 -22.0365 4.07341
    endloop
  endfacet
  facet normal 1 0 0
    outer loop
      vertex 19.5 -23.7135 6.38168
      vertex 19.5 -28 0
      vertex 19.5 -23.7135 4.61832
    endloop
  endfacet
  facet normal 1 0 0
    outer loop
      vertex 19.5 -14.695 12.4538
      vertex 19.5 -22.0365 6.92658
      vertex 19.5 -21 5.5
    endloop
  endfacet
  facet normal 1 0 0
    outer loop
      vertex 19.5 -17.5058 16.3225
      vertex 19.5 -28 18
      vertex 19.5 -22.0365 6.92658
    endloop
  endfacet
  facet normal 1 0 0
    outer loop
      vertex 19.5 -28 0
      vertex 19.5 -23.7135 6.38168
      vertex 19.5 -28 18
    endloop
  endfacet
  facet normal 1 0 0
    outer loop
      vertex 19.5 -22.0365 6.92658
      vertex 19.5 -28 18
      vertex 19.5 -23.7135 6.38168
    endloop
  endfacet
  facet normal -1 0 0
    outer loop
      vertex 39.5 0 0
      vertex 39.5 14 42
      vertex 39.5 14 0
    endloop
  endfacet
  facet normal -1 0 0
    outer loop
      vertex 39.5 -28 42
      vertex 39.5 0 0
      vertex 39.5 -28 0
    endloop
  endfacet
  facet normal -1 0 0
    outer loop
      vertex 39.5 0 0
      vertex 39.5 -28 42
      vertex 39.5 14 42
    endloop
  endfacet
  facet normal 0 0.951065 0.30899
    outer loop
      vertex 19.5 -17.5058 16.3225
      vertex 15.5 -18.0508 18
      vertex 19.5 -18.0508 18
    endloop
  endfacet
  facet normal 0 0.951065 0.30899
    outer loop
      vertex 15.5 -18.0508 18
      vertex 19.5 -17.5058 16.3225
      vertex 15.5 -17.5058 16.3225
    endloop
  endfacet
  facet normal 0 -0.40675 0.913539
    outer loop
      vertex 15.5 -1.25 11.0407
      vertex 19.5 -3.44631 10.0628
      vertex 19.5 -1.25 11.0407
    endloop
  endfacet
  facet normal 0 -0.40675 0.913539
    outer loop
      vertex 19.5 -3.44631 10.0628
      vertex 15.5 -1.25 11.0407
      vertex 15.5 -3.44631 10.0628
    endloop
  endfacet
  facet normal -0 0.207891 0.978152
    outer loop
      vertex 15.5 -8.20208 9.563
      vertex 19.5 -10.5537 10.0628
      vertex 19.5 -8.20208 9.563
    endloop
  endfacet
  facet normal 0 0.207891 0.978152
    outer loop
      vertex 19.5 -10.5537 10.0628
      vertex 15.5 -8.20208 9.563
      vertex 15.5 -10.5537 10.0628
    endloop
  endfacet
  facet normal 0 -0.207892 0.978152
    outer loop
      vertex 15.5 -3.44631 10.0628
      vertex 19.5 -5.79792 9.563
      vertex 19.5 -3.44631 10.0628
    endloop
  endfacet
  facet normal 0 -0.207892 0.978152
    outer loop
      vertex 19.5 -5.79792 9.563
      vertex 15.5 -3.44631 10.0628
      vertex 15.5 -5.79792 9.563
    endloop
  endfacet
  facet normal -0 0.587778 0.809022
    outer loop
      vertex 15.5 -12.75 11.0407
      vertex 19.5 -14.695 12.4538
      vertex 19.5 -12.75 11.0407
    endloop
  endfacet
  facet normal 0 0.587778 0.809022
    outer loop
      vertex 19.5 -14.695 12.4538
      vertex 15.5 -12.75 11.0407
      vertex 15.5 -14.695 12.4538
    endloop
  endfacet
  facet normal 0 -0.866019 0.500011
    outer loop
      vertex 15.5 2.30369 14.2405
      vertex 19.5 3.50577 16.3225
      vertex 15.5 3.50577 16.3225
    endloop
  endfacet
  facet normal 0 -0.866019 0.500011
    outer loop
      vertex 19.5 3.50577 16.3225
      vertex 15.5 2.30369 14.2405
      vertex 19.5 2.30369 14.2405
    endloop
  endfacet
  facet normal 0 0.866015 0.500018
    outer loop
      vertex 19.5 -16.3037 14.2405
      vertex 15.5 -17.5058 16.3225
      vertex 19.5 -17.5058 16.3225
    endloop
  endfacet
  facet normal 0 0.866015 0.500018
    outer loop
      vertex 15.5 -17.5058 16.3225
      vertex 19.5 -16.3037 14.2405
      vertex 15.5 -16.3037 14.2405
    endloop
  endfacet
  facet normal -0 0.406752 0.913539
    outer loop
      vertex 15.5 -10.5537 10.0628
      vertex 19.5 -12.75 11.0407
      vertex 19.5 -10.5537 10.0628
    endloop
  endfacet
  facet normal 0 0.406752 0.913539
    outer loop
      vertex 19.5 -12.75 11.0407
      vertex 15.5 -10.5537 10.0628
      vertex 15.5 -12.75 11.0407
    endloop
  endfacet
  facet normal -0 0 1
    outer loop
      vertex 15.5 -5.79792 9.563
      vertex 19.5 -8.20208 9.563
      vertex 19.5 -5.79792 9.563
    endloop
  endfacet
  facet normal 0 0 1
    outer loop
      vertex 19.5 -8.20208 9.563
      vertex 15.5 -5.79792 9.563
      vertex 15.5 -8.20208 9.563
    endloop
  endfacet
  facet normal 0 -0.951057 0.309016
    outer loop
      vertex 15.5 3.50577 16.3225
      vertex 19.5 4.05082 18
      vertex 15.5 4.05082 18
    endloop
  endfacet
  facet normal 0 -0.951057 0.309016
    outer loop
      vertex 19.5 4.05082 18
      vertex 15.5 3.50577 16.3225
      vertex 19.5 3.50577 16.3225
    endloop
  endfacet
  facet normal 0 -0.743158 0.669116
    outer loop
      vertex 15.5 0.695002 12.4538
      vertex 19.5 2.30369 14.2405
      vertex 15.5 2.30369 14.2405
    endloop
  endfacet
  facet normal 0 -0.743158 0.669116
    outer loop
      vertex 19.5 2.30369 14.2405
      vertex 15.5 0.695002 12.4538
      vertex 19.5 0.695002 12.4538
    endloop
  endfacet
  facet normal 0 -0.587778 0.809022
    outer loop
      vertex 15.5 0.695002 12.4538
      vertex 19.5 -1.25 11.0407
      vertex 19.5 0.695002 12.4538
    endloop
  endfacet
  facet normal 0 -0.587778 0.809022
    outer loop
      vertex 19.5 -1.25 11.0407
      vertex 15.5 0.695002 12.4538
      vertex 15.5 -1.25 11.0407
    endloop
  endfacet
  facet normal 0 0.743156 0.669119
    outer loop
      vertex 19.5 -14.695 12.4538
      vertex 15.5 -16.3037 14.2405
      vertex 19.5 -16.3037 14.2405
    endloop
  endfacet
  facet normal 0 0.743156 0.669119
    outer loop
      vertex 15.5 -16.3037 14.2405
      vertex 19.5 -14.695 12.4538
      vertex 15.5 -14.695 12.4538
    endloop
  endfacet
  facet normal 0 1 0
    outer loop
      vertex 41.5 16 42
      vertex 17.5 16 18
      vertex 17.5 16 42
    endloop
  endfacet
  facet normal 0 1 -0
    outer loop
      vertex 41.5 16 -3
      vertex 17.5 16 18
      vertex 41.5 16 42
    endloop
  endfacet
  facet normal 0 1 0
    outer loop
      vertex 15.5 16 -3
      vertex 17.5 16 18
      vertex 41.5 16 -3
    endloop
  endfacet
  facet normal 0 1 0
    outer loop
      vertex 17.5 16 18
      vertex 15.5 16 -3
      vertex 15.5 16 18
    endloop
  endfacet
  facet normal 0 0 1
    outer loop
      vertex 41.5 16 42
      vertex 39.5 14 42
      vertex 41.5 -30 42
    endloop
  endfacet
  facet normal -0 0 1
    outer loop
      vertex 17.5 16 42
      vertex 39.5 14 42
      vertex 41.5 16 42
    endloop
  endfacet
  facet normal 0 0 1
    outer loop
      vertex 39.5 14 42
      vertex 17.5 16 42
      vertex 17.5 14 42
    endloop
  endfacet
  facet normal -0 0 1
    outer loop
      vertex 39.5 -28 42
      vertex 41.5 -30 42
      vertex 39.5 14 42
    endloop
  endfacet
  facet normal 0 0 1
    outer loop
      vertex 17.5 -30 42
      vertex 39.5 -28 42
      vertex 17.5 -28 42
    endloop
  endfacet
  facet normal 0 0 1
    outer loop
      vertex 39.5 -28 42
      vertex 17.5 -30 42
      vertex 41.5 -30 42
    endloop
  endfacet
  facet normal 0 -1 0
    outer loop
      vertex 17.5 -30 18
      vertex 41.5 -30 42
      vertex 17.5 -30 42
    endloop
  endfacet
  facet normal 0 -1 0
    outer loop
      vertex 41.5 -30 0
      vertex 17.5 -30 18
      vertex 15.5 -30 0
    endloop
  endfacet
  facet normal 0 -1 0
    outer loop
      vertex 17.5 -30 18
      vertex 41.5 -30 0
      vertex 41.5 -30 42
    endloop
  endfacet
  facet normal 0 -1 0
    outer loop
      vertex 15.5 -30 18
      vertex 15.5 -30 0
      vertex 17.5 -30 18
    endloop
  endfacet
  facet normal -1 0 0
    outer loop
      vertex 17.5 -30 18
      vertex 17.5 -28 42
      vertex 17.5 -28 18
    endloop
  endfacet
  facet normal -1 -0 0
    outer loop
      vertex 17.5 -28 42
      vertex 17.5 -30 18
      vertex 17.5 -30 42
    endloop
  endfacet
  facet normal -1 0 0
    outer loop
      vertex 17.5 14 18
      vertex 17.5 16 42
      vertex 17.5 16 18
    endloop
  endfacet
  facet normal -1 -0 0
    outer loop
      vertex 17.5 16 42
      vertex 17.5 14 18
      vertex 17.5 14 42
    endloop
  endfacet
  facet normal 1 0 0
    outer loop
      vertex 41.5 16 42
      vertex 41.5 0 0
      vertex 41.5 16 -3
    endloop
  endfacet
  facet normal 1 -0 0
    outer loop
      vertex 41.5 -30 42
      vertex 41.5 0 0
      vertex 41.5 16 42
    endloop
  endfacet
  facet normal 1 0 0
    outer loop
      vertex 41.5 0 0
      vertex 41.5 -30 42
      vertex 41.5 -30 0
    endloop
  endfacet
  facet normal 1 0 0
    outer loop
      vertex 41.5 16 -3
      vertex 41.5 0 0
      vertex 41.5 0 -3
    endloop
  endfacet
  facet normal 0 0 1
    outer loop
      vertex 19.5 -18.0508 18
      vertex 17.5 -28 18
      vertex 19.5 -28 18
    endloop
  endfacet
  facet normal -0 0 1
    outer loop
      vertex 15.5 -18.0508 18
      vertex 17.5 -28 18
      vertex 19.5 -18.0508 18
    endloop
  endfacet
  facet normal 0 0 1
    outer loop
      vertex 15.5 -30 18
      vertex 17.5 -28 18
      vertex 15.5 -18.0508 18
    endloop
  endfacet
  facet normal 0 0 1
    outer loop
      vertex 17.5 -28 18
      vertex 15.5 -30 18
      vertex 17.5 -30 18
    endloop
  endfacet
  facet normal 0 0 1
    outer loop
      vertex 17.5 16 18
      vertex 15.5 16 18
      vertex 17.5 14 18
    endloop
  endfacet
  facet normal -0 0 1
    outer loop
      vertex 17.5 14 18
      vertex 19.5 4.05082 18
      vertex 19.5 14 18
    endloop
  endfacet
  facet normal 0 0 1
    outer loop
      vertex 15.5 4.05082 18
      vertex 17.5 14 18
      vertex 15.5 16 18
    endloop
  endfacet
  facet normal 0 0 1
    outer loop
      vertex 17.5 14 18
      vertex 15.5 4.05082 18
      vertex 19.5 4.05082 18
    endloop
  endfacet
  facet normal -1 0 0
    outer loop
      vertex 15.5 16 -3
      vertex 15.5 11.5 5.5
      vertex 15.5 16 18
    endloop
  endfacet
  facet normal -1 0 0
    outer loop
      vertex 15.5 16 -3
      vertex 15.5 10.9271 3.73664
      vertex 15.5 11.5 5.5
    endloop
  endfacet
  facet normal -1 0 0
    outer loop
      vertex 15.5 16 -3
      vertex 15.5 9.42705 2.64683
      vertex 15.5 10.9271 3.73664
    endloop
  endfacet
  facet normal -1 0 0
    outer loop
      vertex 15.5 16 -3
      vertex 15.5 7.57295 2.64683
      vertex 15.5 9.42705 2.64683
    endloop
  endfacet
  facet normal -1 -0 0
    outer loop
      vertex 15.5 16 18
      vertex 15.5 3.50577 16.3225
      vertex 15.5 4.05082 18
    endloop
  endfacet
  facet normal -1 0 0
    outer loop
      vertex 15.5 6.07295 7.26336
      vertex 15.5 2.30369 14.2405
      vertex 15.5 3.50577 16.3225
    endloop
  endfacet
  facet normal -1 0 0
    outer loop
      vertex 15.5 0 0
      vertex 15.5 5.5 5.5
      vertex 15.5 6.07295 3.73664
    endloop
  endfacet
  facet normal -1 0 0
    outer loop
      vertex 15.5 6.07295 7.26336
      vertex 15.5 0.695002 12.4538
      vertex 15.5 2.30369 14.2405
    endloop
  endfacet
  facet normal -1 0 0
    outer loop
      vertex 15.5 0 -3
      vertex 15.5 7.57295 2.64683
      vertex 15.5 16 -3
    endloop
  endfacet
  facet normal -1 0 0
    outer loop
      vertex 15.5 0 0
      vertex 15.5 7.57295 2.64683
      vertex 15.5 0 -3
    endloop
  endfacet
  facet normal -1 -0 0
    outer loop
      vertex 15.5 7.57295 2.64683
      vertex 15.5 0 0
      vertex 15.5 6.07295 3.73664
    endloop
  endfacet
  facet normal -1 -0 0
    outer loop
      vertex 15.5 5.5 5.5
      vertex 15.5 0 0
      vertex 15.5 -1.25 11.0407
    endloop
  endfacet
  facet normal -1 0 0
    outer loop
      vertex 15.5 6.07295 7.26336
      vertex 15.5 -1.25 11.0407
      vertex 15.5 0.695002 12.4538
    endloop
  endfacet
  facet normal -1 0 0
    outer loop
      vertex 15.5 0 0
      vertex 15.5 -3.44631 10.0628
      vertex 15.5 -1.25 11.0407
    endloop
  endfacet
  facet normal -1 0 0
    outer loop
      vertex 15.5 0 0
      vertex 15.5 -5.79792 9.563
      vertex 15.5 -3.44631 10.0628
    endloop
  endfacet
  facet normal -1 0 0
    outer loop
      vertex 15.5 0 0
      vertex 15.5 -8.20208 9.563
      vertex 15.5 -5.79792 9.563
    endloop
  endfacet
  facet normal -1 0 0
    outer loop
      vertex 15.5 -20.0729 3.73664
      vertex 15.5 -8.20208 9.563
      vertex 15.5 0 0
    endloop
  endfacet
  facet normal -1 -0 0
    outer loop
      vertex 15.5 -8.20208 9.563
      vertex 15.5 -20.0729 3.73664
      vertex 15.5 -10.5537 10.0628
    endloop
  endfacet
  facet normal -1 0 -0
    outer loop
      vertex 15.5 -19.5 5.5
      vertex 15.5 -10.5537 10.0628
      vertex 15.5 -20.0729 3.73664
    endloop
  endfacet
  facet normal -1 0 0
    outer loop
      vertex 15.5 -21.5729 8.35317
      vertex 15.5 -16.3037 14.2405
      vertex 15.5 -20.0729 7.26336
    endloop
  endfacet
  facet normal -1 -0 0
    outer loop
      vertex 15.5 -14.695 12.4538
      vertex 15.5 -20.0729 7.26336
      vertex 15.5 -16.3037 14.2405
    endloop
  endfacet
  facet normal -1 -0 0
    outer loop
      vertex 15.5 -12.75 11.0407
      vertex 15.5 -20.0729 7.26336
      vertex 15.5 -14.695 12.4538
    endloop
  endfacet
  facet normal -1 0 0
    outer loop
      vertex 15.5 -20.0729 7.26336
      vertex 15.5 -12.75 11.0407
      vertex 15.5 -19.5 5.5
    endloop
  endfacet
  facet normal -1 -0 0
    outer loop
      vertex 15.5 -10.5537 10.0628
      vertex 15.5 -19.5 5.5
      vertex 15.5 -12.75 11.0407
    endloop
  endfacet
  facet normal -1 0 0
    outer loop
      vertex 15.5 0 0
      vertex 15.5 -21.5729 2.64683
      vertex 15.5 -20.0729 3.73664
    endloop
  endfacet
  facet normal -1 0 0
    outer loop
      vertex 15.5 -30 0
      vertex 15.5 -21.5729 2.64683
      vertex 15.5 0 0
    endloop
  endfacet
  facet normal -1 -0 0
    outer loop
      vertex 15.5 -24.9271 3.73664
      vertex 15.5 -30 0
      vertex 15.5 -25.5 5.5
    endloop
  endfacet
  facet normal -1 -0 0
    outer loop
      vertex 15.5 -23.4271 2.64683
      vertex 15.5 -30 0
      vertex 15.5 -24.9271 3.73664
    endloop
  endfacet
  facet normal -1 -0 0
    outer loop
      vertex 15.5 -21.5729 2.64683
      vertex 15.5 -30 0
      vertex 15.5 -23.4271 2.64683
    endloop
  endfacet
  facet normal -1 0 0
    outer loop
      vertex 15.5 10.9271 7.26336
      vertex 15.5 16 18
      vertex 15.5 11.5 5.5
    endloop
  endfacet
  facet normal -1 0 0
    outer loop
      vertex 15.5 9.42705 8.35317
      vertex 15.5 16 18
      vertex 15.5 10.9271 7.26336
    endloop
  endfacet
  facet normal -1 0 0
    outer loop
      vertex 15.5 3.50577 16.3225
      vertex 15.5 9.42705 8.35317
      vertex 15.5 7.57295 8.35317
    endloop
  endfacet
  facet normal -1 0 0
    outer loop
      vertex 15.5 3.50577 16.3225
      vertex 15.5 7.57295 8.35317
      vertex 15.5 6.07295 7.26336
    endloop
  endfacet
  facet normal -1 0 0
    outer loop
      vertex 15.5 3.50577 16.3225
      vertex 15.5 16 18
      vertex 15.5 9.42705 8.35317
    endloop
  endfacet
  facet normal -1 0 0
    outer loop
      vertex 15.5 -1.25 11.0407
      vertex 15.5 6.07295 7.26336
      vertex 15.5 5.5 5.5
    endloop
  endfacet
  facet normal -1 -0 0
    outer loop
      vertex 15.5 -16.3037 14.2405
      vertex 15.5 -21.5729 8.35317
      vertex 15.5 -17.5058 16.3225
    endloop
  endfacet
  facet normal -1 0 0
    outer loop
      vertex 15.5 -23.4271 8.35317
      vertex 15.5 -17.5058 16.3225
      vertex 15.5 -21.5729 8.35317
    endloop
  endfacet
  facet normal -1 0 0
    outer loop
      vertex 15.5 -30 18
      vertex 15.5 -17.5058 16.3225
      vertex 15.5 -23.4271 8.35317
    endloop
  endfacet
  facet normal -1 0 0
    outer loop
      vertex 15.5 -30 18
      vertex 15.5 -23.4271 8.35317
      vertex 15.5 -24.9271 7.26336
    endloop
  endfacet
  facet normal -1 0 0
    outer loop
      vertex 15.5 -30 18
      vertex 15.5 -25.5 5.5
      vertex 15.5 -30 0
    endloop
  endfacet
  facet normal -1 0 0
    outer loop
      vertex 15.5 -25.5 5.5
      vertex 15.5 -30 18
      vertex 15.5 -24.9271 7.26336
    endloop
  endfacet
  facet normal -1 0 0
    outer loop
      vertex 15.5 -17.5058 16.3225
      vertex 15.5 -30 18
      vertex 15.5 -18.0508 18
    endloop
  endfacet
  facet normal -0 0.309027 0.951053
    outer loop
      vertex 17.4 -22.0365 4.07341
      vertex 19.5 -23.7135 4.61832
      vertex 19.5 -22.0365 4.07341
    endloop
  endfacet
  facet normal 0 0.309027 0.951053
    outer loop
      vertex 19.5 -23.7135 4.61832
      vertex 17.4 -22.0365 4.07341
      vertex 17.4 -23.7135 4.61832
    endloop
  endfacet
  facet normal 0 0.309022 -0.951055
    outer loop
      vertex 17.4 -23.7135 6.38168
      vertex 19.5 -22.0365 6.92658
      vertex 19.5 -23.7135 6.38168
    endloop
  endfacet
  facet normal 0 0.309022 -0.951055
    outer loop
      vertex 19.5 -22.0365 6.92658
      vertex 17.4 -23.7135 6.38168
      vertex 17.4 -22.0365 6.92658
    endloop
  endfacet
  facet normal 0 -0.809009 -0.587796
    outer loop
      vertex 17.4 -21 5.5
      vertex 19.5 -22.0365 6.92658
      vertex 17.4 -22.0365 6.92658
    endloop
  endfacet
  facet normal 0 -0.809009 -0.587796
    outer loop
      vertex 19.5 -22.0365 6.92658
      vertex 17.4 -21 5.5
      vertex 19.5 -21 5.5
    endloop
  endfacet
  facet normal 0 1 -0
    outer loop
      vertex 19.5 -23.7135 4.61832
      vertex 17.4 -23.7135 6.38168
      vertex 19.5 -23.7135 6.38168
    endloop
  endfacet
  facet normal 0 1 0
    outer loop
      vertex 17.4 -23.7135 6.38168
      vertex 19.5 -23.7135 4.61832
      vertex 17.4 -23.7135 4.61832
    endloop
  endfacet
  facet normal 0 -0.809011 0.587793
    outer loop
      vertex 17.4 -22.0365 4.07341
      vertex 19.5 -21 5.5
      vertex 17.4 -21 5.5
    endloop
  endfacet
  facet normal 0 -0.809011 0.587793
    outer loop
      vertex 19.5 -21 5.5
      vertex 17.4 -22.0365 4.07341
      vertex 19.5 -22.0365 4.07341
    endloop
  endfacet
  facet normal -0 0.309019 0.951056
    outer loop
      vertex 17.4 8.96352 4.07341
      vertex 19.5 7.28647 4.61832
      vertex 19.5 8.96352 4.07341
    endloop
  endfacet
  facet normal 0 0.309019 0.951056
    outer loop
      vertex 19.5 7.28647 4.61832
      vertex 17.4 8.96352 4.07341
      vertex 17.4 7.28647 4.61832
    endloop
  endfacet
  facet normal 0 -0.809015 -0.587789
    outer loop
      vertex 17.4 10 5.5
      vertex 19.5 8.96352 6.92658
      vertex 17.4 8.96352 6.92658
    endloop
  endfacet
  facet normal 0 -0.809015 -0.587789
    outer loop
      vertex 19.5 8.96352 6.92658
      vertex 17.4 10 5.5
      vertex 19.5 10 5.5
    endloop
  endfacet
  facet normal 0 1 -0
    outer loop
      vertex 19.5 7.28647 4.61832
      vertex 17.4 7.28647 6.38168
      vertex 19.5 7.28647 6.38168
    endloop
  endfacet
  facet normal 0 1 0
    outer loop
      vertex 17.4 7.28647 6.38168
      vertex 19.5 7.28647 4.61832
      vertex 17.4 7.28647 4.61832
    endloop
  endfacet
  facet normal 0 0.309014 -0.951058
    outer loop
      vertex 17.4 7.28647 6.38168
      vertex 19.5 8.96352 6.92658
      vertex 19.5 7.28647 6.38168
    endloop
  endfacet
  facet normal 0 0.309014 -0.951058
    outer loop
      vertex 19.5 8.96352 6.92658
      vertex 17.4 7.28647 6.38168
      vertex 17.4 8.96352 6.92658
    endloop
  endfacet
  facet normal 0 -0.809017 0.587786
    outer loop
      vertex 17.4 8.96352 4.07341
      vertex 19.5 10 5.5
      vertex 17.4 10 5.5
    endloop
  endfacet
  facet normal 0 -0.809017 0.587786
    outer loop
      vertex 19.5 10 5.5
      vertex 17.4 8.96352 4.07341
      vertex 19.5 8.96352 4.07341
    endloop
  endfacet
  facet normal -1 0 0
    outer loop
      vertex 17.4 -21 5.5
      vertex 17.4 -19.5 5.5
      vertex 17.4 -20.0729 3.73664
    endloop
  endfacet
  facet normal -1 0 0
    outer loop
      vertex 17.4 -19.5 5.5
      vertex 17.4 -21 5.5
      vertex 17.4 -20.0729 7.26336
    endloop
  endfacet
  facet normal -1 0 0
    outer loop
      vertex 17.4 -22.0365 4.07341
      vertex 17.4 -20.0729 3.73664
      vertex 17.4 -21.5729 2.64683
    endloop
  endfacet
  facet normal -1 0 0
    outer loop
      vertex 17.4 -20.0729 3.73664
      vertex 17.4 -22.0365 4.07341
      vertex 17.4 -21 5.5
    endloop
  endfacet
  facet normal -1 0 0
    outer loop
      vertex 17.4 -23.4271 2.64683
      vertex 17.4 -22.0365 4.07341
      vertex 17.4 -21.5729 2.64683
    endloop
  endfacet
  facet normal -1 0 0
    outer loop
      vertex 17.4 -23.4271 2.64683
      vertex 17.4 -23.7135 4.61832
      vertex 17.4 -22.0365 4.07341
    endloop
  endfacet
  facet normal -1 0 0
    outer loop
      vertex 17.4 -25.5 5.5
      vertex 17.4 -23.7135 4.61832
      vertex 17.4 -24.9271 3.73664
    endloop
  endfacet
  facet normal -1 0 0
    outer loop
      vertex 17.4 -24.9271 3.73664
      vertex 17.4 -23.7135 4.61832
      vertex 17.4 -23.4271 2.64683
    endloop
  endfacet
  facet normal -1 0 0
    outer loop
      vertex 17.4 -22.0365 6.92658
      vertex 17.4 -20.0729 7.26336
      vertex 17.4 -21 5.5
    endloop
  endfacet
  facet normal -1 -0 0
    outer loop
      vertex 17.4 -20.0729 7.26336
      vertex 17.4 -22.0365 6.92658
      vertex 17.4 -21.5729 8.35317
    endloop
  endfacet
  facet normal -1 0 0
    outer loop
      vertex 17.4 -22.0365 6.92658
      vertex 17.4 -23.4271 8.35317
      vertex 17.4 -21.5729 8.35317
    endloop
  endfacet
  facet normal -1 0 0
    outer loop
      vertex 17.4 -23.7135 6.38168
      vertex 17.4 -23.4271 8.35317
      vertex 17.4 -22.0365 6.92658
    endloop
  endfacet
  facet normal -1 0 0
    outer loop
      vertex 17.4 -23.7135 4.61832
      vertex 17.4 -25.5 5.5
      vertex 17.4 -23.7135 6.38168
    endloop
  endfacet
  facet normal -1 0 0
    outer loop
      vertex 17.4 -23.7135 6.38168
      vertex 17.4 -24.9271 7.26336
      vertex 17.4 -23.4271 8.35317
    endloop
  endfacet
  facet normal -1 -0 0
    outer loop
      vertex 17.4 -23.7135 6.38168
      vertex 17.4 -25.5 5.5
      vertex 17.4 -24.9271 7.26336
    endloop
  endfacet
  facet normal 0 -0.587784 -0.809018
    outer loop
      vertex 15.5 -21.5729 8.35317
      vertex 17.4 -20.0729 7.26336
      vertex 17.4 -21.5729 8.35317
    endloop
  endfacet
  facet normal -0 -0.587784 -0.809018
    outer loop
      vertex 17.4 -20.0729 7.26336
      vertex 15.5 -21.5729 8.35317
      vertex 15.5 -20.0729 7.26336
    endloop
  endfacet
  facet normal 0 -0.951065 -0.308992
    outer loop
      vertex 15.5 -19.5 5.5
      vertex 17.4 -20.0729 7.26336
      vertex 15.5 -20.0729 7.26336
    endloop
  endfacet
  facet normal 0 -0.951065 -0.308992
    outer loop
      vertex 17.4 -20.0729 7.26336
      vertex 15.5 -19.5 5.5
      vertex 17.4 -19.5 5.5
    endloop
  endfacet
  facet normal 0 0 -1
    outer loop
      vertex 15.5 -23.4271 8.35317
      vertex 17.4 -21.5729 8.35317
      vertex 17.4 -23.4271 8.35317
    endloop
  endfacet
  facet normal -0 0 -1
    outer loop
      vertex 17.4 -21.5729 8.35317
      vertex 15.5 -23.4271 8.35317
      vertex 15.5 -21.5729 8.35317
    endloop
  endfacet
  facet normal 0 0.587784 -0.809018
    outer loop
      vertex 15.5 -24.9271 7.26336
      vertex 17.4 -23.4271 8.35317
      vertex 17.4 -24.9271 7.26336
    endloop
  endfacet
  facet normal 0 0.587784 -0.809018
    outer loop
      vertex 17.4 -23.4271 8.35317
      vertex 15.5 -24.9271 7.26336
      vertex 15.5 -23.4271 8.35317
    endloop
  endfacet
  facet normal 0 0.951065 -0.308992
    outer loop
      vertex 17.4 -25.5 5.5
      vertex 15.5 -24.9271 7.26336
      vertex 17.4 -24.9271 7.26336
    endloop
  endfacet
  facet normal 0 0.951065 -0.308992
    outer loop
      vertex 15.5 -24.9271 7.26336
      vertex 17.4 -25.5 5.5
      vertex 15.5 -25.5 5.5
    endloop
  endfacet
  facet normal 0 0.951065 0.308992
    outer loop
      vertex 17.4 -24.9271 3.73664
      vertex 15.5 -25.5 5.5
      vertex 17.4 -25.5 5.5
    endloop
  endfacet
  facet normal 0 0.951065 0.308992
    outer loop
      vertex 15.5 -25.5 5.5
      vertex 17.4 -24.9271 3.73664
      vertex 15.5 -24.9271 3.73664
    endloop
  endfacet
  facet normal 0 -0.587784 0.809018
    outer loop
      vertex 15.5 -20.0729 3.73664
      vertex 17.4 -21.5729 2.64683
      vertex 17.4 -20.0729 3.73664
    endloop
  endfacet
  facet normal 0 -0.587784 0.809018
    outer loop
      vertex 17.4 -21.5729 2.64683
      vertex 15.5 -20.0729 3.73664
      vertex 15.5 -21.5729 2.64683
    endloop
  endfacet
  facet normal -0 0 1
    outer loop
      vertex 15.5 -21.5729 2.64683
      vertex 17.4 -23.4271 2.64683
      vertex 17.4 -21.5729 2.64683
    endloop
  endfacet
  facet normal 0 0 1
    outer loop
      vertex 17.4 -23.4271 2.64683
      vertex 15.5 -21.5729 2.64683
      vertex 15.5 -23.4271 2.64683
    endloop
  endfacet
  facet normal -0 0.587784 0.809018
    outer loop
      vertex 15.5 -23.4271 2.64683
      vertex 17.4 -24.9271 3.73664
      vertex 17.4 -23.4271 2.64683
    endloop
  endfacet
  facet normal 0 0.587784 0.809018
    outer loop
      vertex 17.4 -24.9271 3.73664
      vertex 15.5 -23.4271 2.64683
      vertex 15.5 -24.9271 3.73664
    endloop
  endfacet
  facet normal 0 -0.951065 0.308992
    outer loop
      vertex 15.5 -20.0729 3.73664
      vertex 17.4 -19.5 5.5
      vertex 15.5 -19.5 5.5
    endloop
  endfacet
  facet normal 0 -0.951065 0.308992
    outer loop
      vertex 17.4 -19.5 5.5
      vertex 15.5 -20.0729 3.73664
      vertex 17.4 -20.0729 3.73664
    endloop
  endfacet
  facet normal -1 0 0
    outer loop
      vertex 17.4 10 5.5
      vertex 17.4 11.5 5.5
      vertex 17.4 10.9271 3.73664
    endloop
  endfacet
  facet normal -1 0 0
    outer loop
      vertex 17.4 11.5 5.5
      vertex 17.4 10 5.5
      vertex 17.4 10.9271 7.26336
    endloop
  endfacet
  facet normal -1 0 0
    outer loop
      vertex 17.4 8.96352 4.07341
      vertex 17.4 10.9271 3.73664
      vertex 17.4 9.42705 2.64683
    endloop
  endfacet
  facet normal -1 0 0
    outer loop
      vertex 17.4 10.9271 3.73664
      vertex 17.4 8.96352 4.07341
      vertex 17.4 10 5.5
    endloop
  endfacet
  facet normal -1 0 0
    outer loop
      vertex 17.4 7.57295 2.64683
      vertex 17.4 8.96352 4.07341
      vertex 17.4 9.42705 2.64683
    endloop
  endfacet
  facet normal -1 0 0
    outer loop
      vertex 17.4 7.57295 2.64683
      vertex 17.4 7.28647 4.61832
      vertex 17.4 8.96352 4.07341
    endloop
  endfacet
  facet normal -1 0 0
    outer loop
      vertex 17.4 5.5 5.5
      vertex 17.4 7.28647 4.61832
      vertex 17.4 6.07295 3.73664
    endloop
  endfacet
  facet normal -1 0 0
    outer loop
      vertex 17.4 6.07295 3.73664
      vertex 17.4 7.28647 4.61832
      vertex 17.4 7.57295 2.64683
    endloop
  endfacet
  facet normal -1 0 0
    outer loop
      vertex 17.4 8.96352 6.92658
      vertex 17.4 10.9271 7.26336
      vertex 17.4 10 5.5
    endloop
  endfacet
  facet normal -1 -0 0
    outer loop
      vertex 17.4 10.9271 7.26336
      vertex 17.4 8.96352 6.92658
      vertex 17.4 9.42705 8.35317
    endloop
  endfacet
  facet normal -1 0 0
    outer loop
      vertex 17.4 8.96352 6.92658
      vertex 17.4 7.57295 8.35317
      vertex 17.4 9.42705 8.35317
    endloop
  endfacet
  facet normal -1 0 0
    outer loop
      vertex 17.4 7.28647 6.38168
      vertex 17.4 7.57295 8.35317
      vertex 17.4 8.96352 6.92658
    endloop
  endfacet
  facet normal -1 0 0
    outer loop
      vertex 17.4 7.28647 4.61832
      vertex 17.4 5.5 5.5
      vertex 17.4 7.28647 6.38168
    endloop
  endfacet
  facet normal -1 0 0
    outer loop
      vertex 17.4 7.28647 6.38168
      vertex 17.4 6.07295 7.26336
      vertex 17.4 7.57295 8.35317
    endloop
  endfacet
  facet normal -1 -0 0
    outer loop
      vertex 17.4 7.28647 6.38168
      vertex 17.4 5.5 5.5
      vertex 17.4 6.07295 7.26336
    endloop
  endfacet
  facet normal 0 -0.587771 -0.809027
    outer loop
      vertex 15.5 9.42705 8.35317
      vertex 17.4 10.9271 7.26336
      vertex 17.4 9.42705 8.35317
    endloop
  endfacet
  facet normal -0 -0.587771 -0.809027
    outer loop
      vertex 17.4 10.9271 7.26336
      vertex 15.5 9.42705 8.35317
      vertex 15.5 10.9271 7.26336
    endloop
  endfacet
  facet normal 0 -0.951065 -0.308992
    outer loop
      vertex 15.5 11.5 5.5
      vertex 17.4 10.9271 7.26336
      vertex 15.5 10.9271 7.26336
    endloop
  endfacet
  facet normal 0 -0.951065 -0.308992
    outer loop
      vertex 17.4 10.9271 7.26336
      vertex 15.5 11.5 5.5
      vertex 17.4 11.5 5.5
    endloop
  endfacet
  facet normal 0 0 -1
    outer loop
      vertex 15.5 7.57295 8.35317
      vertex 17.4 9.42705 8.35317
      vertex 17.4 7.57295 8.35317
    endloop
  endfacet
  facet normal -0 0 -1
    outer loop
      vertex 17.4 9.42705 8.35317
      vertex 15.5 7.57295 8.35317
      vertex 15.5 9.42705 8.35317
    endloop
  endfacet
  facet normal 0 0.587784 -0.809018
    outer loop
      vertex 15.5 6.07295 7.26336
      vertex 17.4 7.57295 8.35317
      vertex 17.4 6.07295 7.26336
    endloop
  endfacet
  facet normal 0 0.587784 -0.809018
    outer loop
      vertex 17.4 7.57295 8.35317
      vertex 15.5 6.07295 7.26336
      vertex 15.5 7.57295 8.35317
    endloop
  endfacet
  facet normal 0 0.951057 -0.309017
    outer loop
      vertex 17.4 5.5 5.5
      vertex 15.5 6.07295 7.26336
      vertex 17.4 6.07295 7.26336
    endloop
  endfacet
  facet normal 0 0.951057 -0.309017
    outer loop
      vertex 15.5 6.07295 7.26336
      vertex 17.4 5.5 5.5
      vertex 15.5 5.5 5.5
    endloop
  endfacet
  facet normal 0 0.951057 0.309017
    outer loop
      vertex 17.4 6.07295 3.73664
      vertex 15.5 5.5 5.5
      vertex 17.4 5.5 5.5
    endloop
  endfacet
  facet normal 0 0.951057 0.309017
    outer loop
      vertex 15.5 5.5 5.5
      vertex 17.4 6.07295 3.73664
      vertex 15.5 6.07295 3.73664
    endloop
  endfacet
  facet normal 0 -0.587771 0.809027
    outer loop
      vertex 15.5 10.9271 3.73664
      vertex 17.4 9.42705 2.64683
      vertex 17.4 10.9271 3.73664
    endloop
  endfacet
  facet normal 0 -0.587771 0.809027
    outer loop
      vertex 17.4 9.42705 2.64683
      vertex 15.5 10.9271 3.73664
      vertex 15.5 9.42705 2.64683
    endloop
  endfacet
  facet normal -0 0 1
    outer loop
      vertex 15.5 9.42705 2.64683
      vertex 17.4 7.57295 2.64683
      vertex 17.4 9.42705 2.64683
    endloop
  endfacet
  facet normal 0 0 1
    outer loop
      vertex 17.4 7.57295 2.64683
      vertex 15.5 9.42705 2.64683
      vertex 15.5 7.57295 2.64683
    endloop
  endfacet
  facet normal -0 0.587784 0.809018
    outer loop
      vertex 15.5 7.57295 2.64683
      vertex 17.4 6.07295 3.73664
      vertex 17.4 7.57295 2.64683
    endloop
  endfacet
  facet normal 0 0.587784 0.809018
    outer loop
      vertex 17.4 6.07295 3.73664
      vertex 15.5 7.57295 2.64683
      vertex 15.5 6.07295 3.73664
    endloop
  endfacet
  facet normal 0 -0.951065 0.308992
    outer loop
      vertex 15.5 10.9271 3.73664
      vertex 17.4 11.5 5.5
      vertex 15.5 11.5 5.5
    endloop
  endfacet
  facet normal 0 -0.951065 0.308992
    outer loop
      vertex 17.4 11.5 5.5
      vertex 15.5 10.9271 3.73664
      vertex 17.4 10.9271 3.73664
    endloop
  endfacet
endsolid OpenSCAD_Model
